G04 #@! TF.GenerationSoftware,KiCad,Pcbnew,(5.1.6)-1*
G04 #@! TF.CreationDate,2020-09-01T14:42:51+09:00*
G04 #@! TF.ProjectId,TLF01_V2,544c4630-315f-4563-922e-6b696361645f,A*
G04 #@! TF.SameCoordinates,Original*
G04 #@! TF.FileFunction,Legend,Top*
G04 #@! TF.FilePolarity,Positive*
%FSLAX46Y46*%
G04 Gerber Fmt 4.6, Leading zero omitted, Abs format (unit mm)*
G04 Created by KiCad (PCBNEW (5.1.6)-1) date 2020-09-01 14:42:51*
%MOMM*%
%LPD*%
G01*
G04 APERTURE LIST*
%ADD10C,0.300000*%
%ADD11C,0.200000*%
%ADD12C,0.150000*%
%ADD13C,0.120000*%
%ADD14C,0.010000*%
G04 APERTURE END LIST*
D10*
X131668809Y-59864761D02*
X132811666Y-59864761D01*
X132240238Y-61864761D02*
X132240238Y-59864761D01*
X134430714Y-61864761D02*
X133478333Y-61864761D01*
X133478333Y-59864761D01*
X135764047Y-60817142D02*
X135097380Y-60817142D01*
X135097380Y-61864761D02*
X135097380Y-59864761D01*
X136049761Y-59864761D01*
X137192619Y-59864761D02*
X137383095Y-59864761D01*
X137573571Y-59960000D01*
X137668809Y-60055238D01*
X137764047Y-60245714D01*
X137859285Y-60626666D01*
X137859285Y-61102857D01*
X137764047Y-61483809D01*
X137668809Y-61674285D01*
X137573571Y-61769523D01*
X137383095Y-61864761D01*
X137192619Y-61864761D01*
X137002142Y-61769523D01*
X136906904Y-61674285D01*
X136811666Y-61483809D01*
X136716428Y-61102857D01*
X136716428Y-60626666D01*
X136811666Y-60245714D01*
X136906904Y-60055238D01*
X137002142Y-59960000D01*
X137192619Y-59864761D01*
X139764047Y-61864761D02*
X138621190Y-61864761D01*
X139192619Y-61864761D02*
X139192619Y-59864761D01*
X139002142Y-60150476D01*
X138811666Y-60340952D01*
X138621190Y-60436190D01*
X141859285Y-59864761D02*
X142525952Y-61864761D01*
X143192619Y-59864761D01*
X143764047Y-60055238D02*
X143859285Y-59960000D01*
X144049761Y-59864761D01*
X144525952Y-59864761D01*
X144716428Y-59960000D01*
X144811666Y-60055238D01*
X144906904Y-60245714D01*
X144906904Y-60436190D01*
X144811666Y-60721904D01*
X143668809Y-61864761D01*
X144906904Y-61864761D01*
X145764047Y-61674285D02*
X145859285Y-61769523D01*
X145764047Y-61864761D01*
X145668809Y-61769523D01*
X145764047Y-61674285D01*
X145764047Y-61864761D01*
X147097380Y-59864761D02*
X147287857Y-59864761D01*
X147478333Y-59960000D01*
X147573571Y-60055238D01*
X147668809Y-60245714D01*
X147764047Y-60626666D01*
X147764047Y-61102857D01*
X147668809Y-61483809D01*
X147573571Y-61674285D01*
X147478333Y-61769523D01*
X147287857Y-61864761D01*
X147097380Y-61864761D01*
X146906904Y-61769523D01*
X146811666Y-61674285D01*
X146716428Y-61483809D01*
X146621190Y-61102857D01*
X146621190Y-60626666D01*
X146716428Y-60245714D01*
X146811666Y-60055238D01*
X146906904Y-59960000D01*
X147097380Y-59864761D01*
X150145000Y-61864761D02*
X150145000Y-60531428D01*
X150145000Y-60912380D02*
X150240238Y-60721904D01*
X150335476Y-60626666D01*
X150525952Y-60531428D01*
X150716428Y-60531428D01*
X152145000Y-61769523D02*
X151954523Y-61864761D01*
X151573571Y-61864761D01*
X151383095Y-61769523D01*
X151287857Y-61579047D01*
X151287857Y-60817142D01*
X151383095Y-60626666D01*
X151573571Y-60531428D01*
X151954523Y-60531428D01*
X152145000Y-60626666D01*
X152240238Y-60817142D01*
X152240238Y-61007619D01*
X151287857Y-61198095D01*
X152906904Y-60531428D02*
X153383095Y-61864761D01*
X153859285Y-60531428D01*
X154621190Y-61674285D02*
X154716428Y-61769523D01*
X154621190Y-61864761D01*
X154525952Y-61769523D01*
X154621190Y-61674285D01*
X154621190Y-61864761D01*
X155478333Y-61293333D02*
X156430714Y-61293333D01*
X155287857Y-61864761D02*
X155954523Y-59864761D01*
X156621190Y-61864761D01*
D11*
X149582142Y-126436190D02*
X149629761Y-126483809D01*
X149677380Y-126626666D01*
X149677380Y-126721904D01*
X149629761Y-126864761D01*
X149534523Y-126960000D01*
X149439285Y-127007619D01*
X149248809Y-127055238D01*
X149105952Y-127055238D01*
X148915476Y-127007619D01*
X148820238Y-126960000D01*
X148725000Y-126864761D01*
X148677380Y-126721904D01*
X148677380Y-126626666D01*
X148725000Y-126483809D01*
X148772619Y-126436190D01*
X148677380Y-126007619D02*
X149486904Y-126007619D01*
X149582142Y-125960000D01*
X149629761Y-125912380D01*
X149677380Y-125817142D01*
X149677380Y-125626666D01*
X149629761Y-125531428D01*
X149582142Y-125483809D01*
X149486904Y-125436190D01*
X148677380Y-125436190D01*
X148677380Y-125102857D02*
X148677380Y-124531428D01*
X149677380Y-124817142D02*
X148677380Y-124817142D01*
X148677380Y-124007619D02*
X148677380Y-123817142D01*
X148725000Y-123721904D01*
X148820238Y-123626666D01*
X149010714Y-123579047D01*
X149344047Y-123579047D01*
X149534523Y-123626666D01*
X149629761Y-123721904D01*
X149677380Y-123817142D01*
X149677380Y-124007619D01*
X149629761Y-124102857D01*
X149534523Y-124198095D01*
X149344047Y-124245714D01*
X149010714Y-124245714D01*
X148820238Y-124198095D01*
X148725000Y-124102857D01*
X148677380Y-124007619D01*
X149153571Y-122817142D02*
X149153571Y-123150476D01*
X149677380Y-123150476D02*
X148677380Y-123150476D01*
X148677380Y-122674285D01*
X149153571Y-121960000D02*
X149153571Y-122293333D01*
X149677380Y-122293333D02*
X148677380Y-122293333D01*
X148677380Y-121817142D01*
X142501904Y-127770000D02*
X142406666Y-127722380D01*
X142263809Y-127722380D01*
X142120952Y-127770000D01*
X142025714Y-127865238D01*
X141978095Y-127960476D01*
X141930476Y-128150952D01*
X141930476Y-128293809D01*
X141978095Y-128484285D01*
X142025714Y-128579523D01*
X142120952Y-128674761D01*
X142263809Y-128722380D01*
X142359047Y-128722380D01*
X142501904Y-128674761D01*
X142549523Y-128627142D01*
X142549523Y-128293809D01*
X142359047Y-128293809D01*
X103617619Y-125547380D02*
X103617619Y-124547380D01*
X104046190Y-125547380D02*
X104046190Y-125023571D01*
X103998571Y-124928333D01*
X103903333Y-124880714D01*
X103760476Y-124880714D01*
X103665238Y-124928333D01*
X103617619Y-124975952D01*
X104379523Y-124880714D02*
X104760476Y-124880714D01*
X104522380Y-124547380D02*
X104522380Y-125404523D01*
X104570000Y-125499761D01*
X104665238Y-125547380D01*
X104760476Y-125547380D01*
X104950952Y-124880714D02*
X105331904Y-124880714D01*
X105093809Y-124547380D02*
X105093809Y-125404523D01*
X105141428Y-125499761D01*
X105236666Y-125547380D01*
X105331904Y-125547380D01*
X105665238Y-124880714D02*
X105665238Y-125880714D01*
X105665238Y-124928333D02*
X105760476Y-124880714D01*
X105950952Y-124880714D01*
X106046190Y-124928333D01*
X106093809Y-124975952D01*
X106141428Y-125071190D01*
X106141428Y-125356904D01*
X106093809Y-125452142D01*
X106046190Y-125499761D01*
X105950952Y-125547380D01*
X105760476Y-125547380D01*
X105665238Y-125499761D01*
X106522380Y-125499761D02*
X106617619Y-125547380D01*
X106808095Y-125547380D01*
X106903333Y-125499761D01*
X106950952Y-125404523D01*
X106950952Y-125356904D01*
X106903333Y-125261666D01*
X106808095Y-125214047D01*
X106665238Y-125214047D01*
X106570000Y-125166428D01*
X106522380Y-125071190D01*
X106522380Y-125023571D01*
X106570000Y-124928333D01*
X106665238Y-124880714D01*
X106808095Y-124880714D01*
X106903333Y-124928333D01*
X107379523Y-125452142D02*
X107427142Y-125499761D01*
X107379523Y-125547380D01*
X107331904Y-125499761D01*
X107379523Y-125452142D01*
X107379523Y-125547380D01*
X107379523Y-124928333D02*
X107427142Y-124975952D01*
X107379523Y-125023571D01*
X107331904Y-124975952D01*
X107379523Y-124928333D01*
X107379523Y-125023571D01*
X108570000Y-124499761D02*
X107712857Y-125785476D01*
X109617619Y-124499761D02*
X108760476Y-125785476D01*
X110379523Y-125547380D02*
X110379523Y-124547380D01*
X110379523Y-125499761D02*
X110284285Y-125547380D01*
X110093809Y-125547380D01*
X109998571Y-125499761D01*
X109950952Y-125452142D01*
X109903333Y-125356904D01*
X109903333Y-125071190D01*
X109950952Y-124975952D01*
X109998571Y-124928333D01*
X110093809Y-124880714D01*
X110284285Y-124880714D01*
X110379523Y-124928333D01*
X111284285Y-125547380D02*
X111284285Y-125023571D01*
X111236666Y-124928333D01*
X111141428Y-124880714D01*
X110950952Y-124880714D01*
X110855714Y-124928333D01*
X111284285Y-125499761D02*
X111189047Y-125547380D01*
X110950952Y-125547380D01*
X110855714Y-125499761D01*
X110808095Y-125404523D01*
X110808095Y-125309285D01*
X110855714Y-125214047D01*
X110950952Y-125166428D01*
X111189047Y-125166428D01*
X111284285Y-125118809D01*
X112189047Y-125547380D02*
X112189047Y-124547380D01*
X112189047Y-125499761D02*
X112093809Y-125547380D01*
X111903333Y-125547380D01*
X111808095Y-125499761D01*
X111760476Y-125452142D01*
X111712857Y-125356904D01*
X111712857Y-125071190D01*
X111760476Y-124975952D01*
X111808095Y-124928333D01*
X111903333Y-124880714D01*
X112093809Y-124880714D01*
X112189047Y-124928333D01*
X112808095Y-124975952D02*
X112712857Y-124928333D01*
X112665238Y-124880714D01*
X112617619Y-124785476D01*
X112617619Y-124737857D01*
X112665238Y-124642619D01*
X112712857Y-124595000D01*
X112808095Y-124547380D01*
X112998571Y-124547380D01*
X113093809Y-124595000D01*
X113141428Y-124642619D01*
X113189047Y-124737857D01*
X113189047Y-124785476D01*
X113141428Y-124880714D01*
X113093809Y-124928333D01*
X112998571Y-124975952D01*
X112808095Y-124975952D01*
X112712857Y-125023571D01*
X112665238Y-125071190D01*
X112617619Y-125166428D01*
X112617619Y-125356904D01*
X112665238Y-125452142D01*
X112712857Y-125499761D01*
X112808095Y-125547380D01*
X112998571Y-125547380D01*
X113093809Y-125499761D01*
X113141428Y-125452142D01*
X113189047Y-125356904D01*
X113189047Y-125166428D01*
X113141428Y-125071190D01*
X113093809Y-125023571D01*
X112998571Y-124975952D01*
X113760476Y-124975952D02*
X113665238Y-124928333D01*
X113617619Y-124880714D01*
X113570000Y-124785476D01*
X113570000Y-124737857D01*
X113617619Y-124642619D01*
X113665238Y-124595000D01*
X113760476Y-124547380D01*
X113950952Y-124547380D01*
X114046190Y-124595000D01*
X114093809Y-124642619D01*
X114141428Y-124737857D01*
X114141428Y-124785476D01*
X114093809Y-124880714D01*
X114046190Y-124928333D01*
X113950952Y-124975952D01*
X113760476Y-124975952D01*
X113665238Y-125023571D01*
X113617619Y-125071190D01*
X113570000Y-125166428D01*
X113570000Y-125356904D01*
X113617619Y-125452142D01*
X113665238Y-125499761D01*
X113760476Y-125547380D01*
X113950952Y-125547380D01*
X114046190Y-125499761D01*
X114093809Y-125452142D01*
X114141428Y-125356904D01*
X114141428Y-125166428D01*
X114093809Y-125071190D01*
X114046190Y-125023571D01*
X113950952Y-124975952D01*
X114617619Y-125547380D02*
X114808095Y-125547380D01*
X114903333Y-125499761D01*
X114950952Y-125452142D01*
X115046190Y-125309285D01*
X115093809Y-125118809D01*
X115093809Y-124737857D01*
X115046190Y-124642619D01*
X114998571Y-124595000D01*
X114903333Y-124547380D01*
X114712857Y-124547380D01*
X114617619Y-124595000D01*
X114570000Y-124642619D01*
X114522380Y-124737857D01*
X114522380Y-124975952D01*
X114570000Y-125071190D01*
X114617619Y-125118809D01*
X114712857Y-125166428D01*
X114903333Y-125166428D01*
X114998571Y-125118809D01*
X115046190Y-125071190D01*
X115093809Y-124975952D01*
X115427142Y-124547380D02*
X116046190Y-124547380D01*
X115712857Y-124928333D01*
X115855714Y-124928333D01*
X115950952Y-124975952D01*
X115998571Y-125023571D01*
X116046190Y-125118809D01*
X116046190Y-125356904D01*
X115998571Y-125452142D01*
X115950952Y-125499761D01*
X115855714Y-125547380D01*
X115570000Y-125547380D01*
X115474761Y-125499761D01*
X115427142Y-125452142D01*
X116474761Y-125452142D02*
X116522380Y-125499761D01*
X116474761Y-125547380D01*
X116427142Y-125499761D01*
X116474761Y-125452142D01*
X116474761Y-125547380D01*
X116950952Y-125547380D02*
X116950952Y-124547380D01*
X116950952Y-124928333D02*
X117046190Y-124880714D01*
X117236666Y-124880714D01*
X117331904Y-124928333D01*
X117379523Y-124975952D01*
X117427142Y-125071190D01*
X117427142Y-125356904D01*
X117379523Y-125452142D01*
X117331904Y-125499761D01*
X117236666Y-125547380D01*
X117046190Y-125547380D01*
X116950952Y-125499761D01*
X117998571Y-125547380D02*
X117903333Y-125499761D01*
X117855714Y-125404523D01*
X117855714Y-124547380D01*
X118522380Y-125547380D02*
X118427142Y-125499761D01*
X118379523Y-125452142D01*
X118331904Y-125356904D01*
X118331904Y-125071190D01*
X118379523Y-124975952D01*
X118427142Y-124928333D01*
X118522380Y-124880714D01*
X118665238Y-124880714D01*
X118760476Y-124928333D01*
X118808095Y-124975952D01*
X118855714Y-125071190D01*
X118855714Y-125356904D01*
X118808095Y-125452142D01*
X118760476Y-125499761D01*
X118665238Y-125547380D01*
X118522380Y-125547380D01*
X119712857Y-124880714D02*
X119712857Y-125690238D01*
X119665238Y-125785476D01*
X119617619Y-125833095D01*
X119522380Y-125880714D01*
X119379523Y-125880714D01*
X119284285Y-125833095D01*
X119712857Y-125499761D02*
X119617619Y-125547380D01*
X119427142Y-125547380D01*
X119331904Y-125499761D01*
X119284285Y-125452142D01*
X119236666Y-125356904D01*
X119236666Y-125071190D01*
X119284285Y-124975952D01*
X119331904Y-124928333D01*
X119427142Y-124880714D01*
X119617619Y-124880714D01*
X119712857Y-124928333D01*
X120141428Y-125499761D02*
X120236666Y-125547380D01*
X120427142Y-125547380D01*
X120522380Y-125499761D01*
X120570000Y-125404523D01*
X120570000Y-125356904D01*
X120522380Y-125261666D01*
X120427142Y-125214047D01*
X120284285Y-125214047D01*
X120189047Y-125166428D01*
X120141428Y-125071190D01*
X120141428Y-125023571D01*
X120189047Y-124928333D01*
X120284285Y-124880714D01*
X120427142Y-124880714D01*
X120522380Y-124928333D01*
X120998571Y-124880714D02*
X120998571Y-125880714D01*
X120998571Y-124928333D02*
X121093809Y-124880714D01*
X121284285Y-124880714D01*
X121379523Y-124928333D01*
X121427142Y-124975952D01*
X121474761Y-125071190D01*
X121474761Y-125356904D01*
X121427142Y-125452142D01*
X121379523Y-125499761D01*
X121284285Y-125547380D01*
X121093809Y-125547380D01*
X120998571Y-125499761D01*
X122046190Y-125547380D02*
X121950952Y-125499761D01*
X121903333Y-125452142D01*
X121855714Y-125356904D01*
X121855714Y-125071190D01*
X121903333Y-124975952D01*
X121950952Y-124928333D01*
X122046190Y-124880714D01*
X122189047Y-124880714D01*
X122284285Y-124928333D01*
X122331904Y-124975952D01*
X122379523Y-125071190D01*
X122379523Y-125356904D01*
X122331904Y-125452142D01*
X122284285Y-125499761D01*
X122189047Y-125547380D01*
X122046190Y-125547380D01*
X122665238Y-124880714D02*
X123046190Y-124880714D01*
X122808095Y-124547380D02*
X122808095Y-125404523D01*
X122855714Y-125499761D01*
X122950952Y-125547380D01*
X123046190Y-125547380D01*
X123379523Y-125452142D02*
X123427142Y-125499761D01*
X123379523Y-125547380D01*
X123331904Y-125499761D01*
X123379523Y-125452142D01*
X123379523Y-125547380D01*
X124284285Y-125499761D02*
X124189047Y-125547380D01*
X123998571Y-125547380D01*
X123903333Y-125499761D01*
X123855714Y-125452142D01*
X123808095Y-125356904D01*
X123808095Y-125071190D01*
X123855714Y-124975952D01*
X123903333Y-124928333D01*
X123998571Y-124880714D01*
X124189047Y-124880714D01*
X124284285Y-124928333D01*
X124855714Y-125547380D02*
X124760476Y-125499761D01*
X124712857Y-125452142D01*
X124665238Y-125356904D01*
X124665238Y-125071190D01*
X124712857Y-124975952D01*
X124760476Y-124928333D01*
X124855714Y-124880714D01*
X124998571Y-124880714D01*
X125093809Y-124928333D01*
X125141428Y-124975952D01*
X125189047Y-125071190D01*
X125189047Y-125356904D01*
X125141428Y-125452142D01*
X125093809Y-125499761D01*
X124998571Y-125547380D01*
X124855714Y-125547380D01*
X125617619Y-125547380D02*
X125617619Y-124880714D01*
X125617619Y-124975952D02*
X125665238Y-124928333D01*
X125760476Y-124880714D01*
X125903333Y-124880714D01*
X125998571Y-124928333D01*
X126046190Y-125023571D01*
X126046190Y-125547380D01*
X126046190Y-125023571D02*
X126093809Y-124928333D01*
X126189047Y-124880714D01*
X126331904Y-124880714D01*
X126427142Y-124928333D01*
X126474761Y-125023571D01*
X126474761Y-125547380D01*
X127665238Y-124499761D02*
X126808095Y-125785476D01*
X171585000Y-126491904D02*
X171537380Y-126587142D01*
X171537380Y-126730000D01*
X171585000Y-126872857D01*
X171680238Y-126968095D01*
X171775476Y-127015714D01*
X171965952Y-127063333D01*
X172108809Y-127063333D01*
X172299285Y-127015714D01*
X172394523Y-126968095D01*
X172489761Y-126872857D01*
X172537380Y-126730000D01*
X172537380Y-126634761D01*
X172489761Y-126491904D01*
X172442142Y-126444285D01*
X172108809Y-126444285D01*
X172108809Y-126634761D01*
X172537380Y-126015714D02*
X171537380Y-126015714D01*
X172537380Y-125444285D01*
X171537380Y-125444285D01*
X172537380Y-124968095D02*
X171537380Y-124968095D01*
X171537380Y-124730000D01*
X171585000Y-124587142D01*
X171680238Y-124491904D01*
X171775476Y-124444285D01*
X171965952Y-124396666D01*
X172108809Y-124396666D01*
X172299285Y-124444285D01*
X172394523Y-124491904D01*
X172489761Y-124587142D01*
X172537380Y-124730000D01*
X172537380Y-124968095D01*
D12*
X183332380Y-116577619D02*
X182332380Y-116577619D01*
X183332380Y-116101428D02*
X182332380Y-116101428D01*
X183332380Y-115530000D01*
X182332380Y-115530000D01*
X183332380Y-115053809D02*
X182332380Y-115053809D01*
X182332380Y-114672857D01*
X182380000Y-114577619D01*
X182427619Y-114530000D01*
X182522857Y-114482380D01*
X182665714Y-114482380D01*
X182760952Y-114530000D01*
X182808571Y-114577619D01*
X182856190Y-114672857D01*
X182856190Y-115053809D01*
X182332380Y-114053809D02*
X183141904Y-114053809D01*
X183237142Y-114006190D01*
X183284761Y-113958571D01*
X183332380Y-113863333D01*
X183332380Y-113672857D01*
X183284761Y-113577619D01*
X183237142Y-113530000D01*
X183141904Y-113482380D01*
X182332380Y-113482380D01*
X182332380Y-113149047D02*
X182332380Y-112577619D01*
X183332380Y-112863333D02*
X182332380Y-112863333D01*
X183427619Y-112482380D02*
X183427619Y-111720476D01*
X183332380Y-111006190D02*
X183332380Y-111482380D01*
X182332380Y-111482380D01*
X182332380Y-110815714D02*
X183332380Y-110482380D01*
X182332380Y-110149047D01*
X183332380Y-109339523D02*
X183332380Y-109815714D01*
X182332380Y-109815714D01*
X183332380Y-95011428D02*
X182856190Y-95344761D01*
X183332380Y-95582857D02*
X182332380Y-95582857D01*
X182332380Y-95201904D01*
X182380000Y-95106666D01*
X182427619Y-95059047D01*
X182522857Y-95011428D01*
X182665714Y-95011428D01*
X182760952Y-95059047D01*
X182808571Y-95106666D01*
X182856190Y-95201904D01*
X182856190Y-95582857D01*
X182808571Y-94582857D02*
X182808571Y-94249523D01*
X183332380Y-94106666D02*
X183332380Y-94582857D01*
X182332380Y-94582857D01*
X182332380Y-94106666D01*
X183284761Y-93725714D02*
X183332380Y-93582857D01*
X183332380Y-93344761D01*
X183284761Y-93249523D01*
X183237142Y-93201904D01*
X183141904Y-93154285D01*
X183046666Y-93154285D01*
X182951428Y-93201904D01*
X182903809Y-93249523D01*
X182856190Y-93344761D01*
X182808571Y-93535238D01*
X182760952Y-93630476D01*
X182713333Y-93678095D01*
X182618095Y-93725714D01*
X182522857Y-93725714D01*
X182427619Y-93678095D01*
X182380000Y-93630476D01*
X182332380Y-93535238D01*
X182332380Y-93297142D01*
X182380000Y-93154285D01*
X182332380Y-92535238D02*
X182332380Y-92344761D01*
X182380000Y-92249523D01*
X182475238Y-92154285D01*
X182665714Y-92106666D01*
X182999047Y-92106666D01*
X183189523Y-92154285D01*
X183284761Y-92249523D01*
X183332380Y-92344761D01*
X183332380Y-92535238D01*
X183284761Y-92630476D01*
X183189523Y-92725714D01*
X182999047Y-92773333D01*
X182665714Y-92773333D01*
X182475238Y-92725714D01*
X182380000Y-92630476D01*
X182332380Y-92535238D01*
X183332380Y-91678095D02*
X182332380Y-91678095D01*
X183332380Y-91106666D01*
X182332380Y-91106666D01*
X183046666Y-90678095D02*
X183046666Y-90201904D01*
X183332380Y-90773333D02*
X182332380Y-90440000D01*
X183332380Y-90106666D01*
X183332380Y-89773333D02*
X182332380Y-89773333D01*
X183332380Y-89201904D01*
X182332380Y-89201904D01*
X183237142Y-88154285D02*
X183284761Y-88201904D01*
X183332380Y-88344761D01*
X183332380Y-88440000D01*
X183284761Y-88582857D01*
X183189523Y-88678095D01*
X183094285Y-88725714D01*
X182903809Y-88773333D01*
X182760952Y-88773333D01*
X182570476Y-88725714D01*
X182475238Y-88678095D01*
X182380000Y-88582857D01*
X182332380Y-88440000D01*
X182332380Y-88344761D01*
X182380000Y-88201904D01*
X182427619Y-88154285D01*
X182808571Y-87725714D02*
X182808571Y-87392380D01*
X183332380Y-87249523D02*
X183332380Y-87725714D01*
X182332380Y-87725714D01*
X182332380Y-87249523D01*
X165362380Y-109582976D02*
X164886190Y-109916309D01*
X165362380Y-110154404D02*
X164362380Y-110154404D01*
X164362380Y-109773452D01*
X164410000Y-109678214D01*
X164457619Y-109630595D01*
X164552857Y-109582976D01*
X164695714Y-109582976D01*
X164790952Y-109630595D01*
X164838571Y-109678214D01*
X164886190Y-109773452D01*
X164886190Y-110154404D01*
X164838571Y-109154404D02*
X164838571Y-108821071D01*
X165362380Y-108678214D02*
X165362380Y-109154404D01*
X164362380Y-109154404D01*
X164362380Y-108678214D01*
X165314761Y-108297261D02*
X165362380Y-108154404D01*
X165362380Y-107916309D01*
X165314761Y-107821071D01*
X165267142Y-107773452D01*
X165171904Y-107725833D01*
X165076666Y-107725833D01*
X164981428Y-107773452D01*
X164933809Y-107821071D01*
X164886190Y-107916309D01*
X164838571Y-108106785D01*
X164790952Y-108202023D01*
X164743333Y-108249642D01*
X164648095Y-108297261D01*
X164552857Y-108297261D01*
X164457619Y-108249642D01*
X164410000Y-108202023D01*
X164362380Y-108106785D01*
X164362380Y-107868690D01*
X164410000Y-107725833D01*
X164362380Y-107106785D02*
X164362380Y-106916309D01*
X164410000Y-106821071D01*
X164505238Y-106725833D01*
X164695714Y-106678214D01*
X165029047Y-106678214D01*
X165219523Y-106725833D01*
X165314761Y-106821071D01*
X165362380Y-106916309D01*
X165362380Y-107106785D01*
X165314761Y-107202023D01*
X165219523Y-107297261D01*
X165029047Y-107344880D01*
X164695714Y-107344880D01*
X164505238Y-107297261D01*
X164410000Y-107202023D01*
X164362380Y-107106785D01*
X165362380Y-106249642D02*
X164362380Y-106249642D01*
X165362380Y-105678214D01*
X164362380Y-105678214D01*
X165076666Y-105249642D02*
X165076666Y-104773452D01*
X165362380Y-105344880D02*
X164362380Y-105011547D01*
X165362380Y-104678214D01*
X165362380Y-104344880D02*
X164362380Y-104344880D01*
X165362380Y-103773452D01*
X164362380Y-103773452D01*
X165267142Y-102725833D02*
X165314761Y-102773452D01*
X165362380Y-102916309D01*
X165362380Y-103011547D01*
X165314761Y-103154404D01*
X165219523Y-103249642D01*
X165124285Y-103297261D01*
X164933809Y-103344880D01*
X164790952Y-103344880D01*
X164600476Y-103297261D01*
X164505238Y-103249642D01*
X164410000Y-103154404D01*
X164362380Y-103011547D01*
X164362380Y-102916309D01*
X164410000Y-102773452D01*
X164457619Y-102725833D01*
X164838571Y-102297261D02*
X164838571Y-101963928D01*
X165362380Y-101821071D02*
X165362380Y-102297261D01*
X164362380Y-102297261D01*
X164362380Y-101821071D01*
X166012380Y-110297261D02*
X166012380Y-109725833D01*
X167012380Y-110011547D02*
X166012380Y-110011547D01*
X167012380Y-108821071D02*
X166536190Y-109154404D01*
X167012380Y-109392500D02*
X166012380Y-109392500D01*
X166012380Y-109011547D01*
X166060000Y-108916309D01*
X166107619Y-108868690D01*
X166202857Y-108821071D01*
X166345714Y-108821071D01*
X166440952Y-108868690D01*
X166488571Y-108916309D01*
X166536190Y-109011547D01*
X166536190Y-109392500D01*
X167012380Y-108392500D02*
X166012380Y-108392500D01*
X167012380Y-107916309D02*
X166012380Y-107916309D01*
X166726666Y-107582976D01*
X166012380Y-107249642D01*
X167012380Y-107249642D01*
X190332900Y-73398095D02*
X190285280Y-73493333D01*
X190285280Y-73636190D01*
X190332900Y-73779047D01*
X190428138Y-73874285D01*
X190523376Y-73921904D01*
X190713852Y-73969523D01*
X190856709Y-73969523D01*
X191047185Y-73921904D01*
X191142423Y-73874285D01*
X191237661Y-73779047D01*
X191285280Y-73636190D01*
X191285280Y-73540952D01*
X191237661Y-73398095D01*
X191190042Y-73350476D01*
X190856709Y-73350476D01*
X190856709Y-73540952D01*
X183602380Y-67040000D02*
X183602380Y-66849523D01*
X183650000Y-66754285D01*
X183745238Y-66659047D01*
X183935714Y-66611428D01*
X184269047Y-66611428D01*
X184459523Y-66659047D01*
X184554761Y-66754285D01*
X184602380Y-66849523D01*
X184602380Y-67040000D01*
X184554761Y-67135238D01*
X184459523Y-67230476D01*
X184269047Y-67278095D01*
X183935714Y-67278095D01*
X183745238Y-67230476D01*
X183650000Y-67135238D01*
X183602380Y-67040000D01*
X183602380Y-66182857D02*
X184411904Y-66182857D01*
X184507142Y-66135238D01*
X184554761Y-66087619D01*
X184602380Y-65992380D01*
X184602380Y-65801904D01*
X184554761Y-65706666D01*
X184507142Y-65659047D01*
X184411904Y-65611428D01*
X183602380Y-65611428D01*
X183602380Y-65278095D02*
X183602380Y-64706666D01*
X184602380Y-64992380D02*
X183602380Y-64992380D01*
X118197380Y-92161904D02*
X119197380Y-91828571D01*
X118197380Y-91495238D01*
X118816428Y-91161904D02*
X118816428Y-90400000D01*
X118245000Y-88638095D02*
X118197380Y-88733333D01*
X118197380Y-88876190D01*
X118245000Y-89019047D01*
X118340238Y-89114285D01*
X118435476Y-89161904D01*
X118625952Y-89209523D01*
X118768809Y-89209523D01*
X118959285Y-89161904D01*
X119054523Y-89114285D01*
X119149761Y-89019047D01*
X119197380Y-88876190D01*
X119197380Y-88780952D01*
X119149761Y-88638095D01*
X119102142Y-88590476D01*
X118768809Y-88590476D01*
X118768809Y-88780952D01*
X118197380Y-87542857D02*
X119197380Y-87209523D01*
X118197380Y-86876190D01*
X118816428Y-86542857D02*
X118816428Y-85780952D01*
X119197380Y-86161904D02*
X118435476Y-86161904D01*
X190332900Y-75938095D02*
X190285280Y-76033333D01*
X190285280Y-76176190D01*
X190332900Y-76319047D01*
X190428138Y-76414285D01*
X190523376Y-76461904D01*
X190713852Y-76509523D01*
X190856709Y-76509523D01*
X191047185Y-76461904D01*
X191142423Y-76414285D01*
X191237661Y-76319047D01*
X191285280Y-76176190D01*
X191285280Y-76080952D01*
X191237661Y-75938095D01*
X191190042Y-75890476D01*
X190856709Y-75890476D01*
X190856709Y-76080952D01*
X184602380Y-83708809D02*
X183602380Y-83708809D01*
X184602380Y-83232619D02*
X183602380Y-83232619D01*
X184602380Y-82661190D01*
X183602380Y-82661190D01*
D13*
X189150000Y-68560000D02*
X183180000Y-68560000D01*
X183180000Y-68560000D02*
X183180000Y-81180000D01*
X183180000Y-81180000D02*
X189150000Y-81180000D01*
X189150000Y-81180000D02*
X189150000Y-68560000D01*
X189140000Y-71870000D02*
X188390000Y-71870000D01*
X188390000Y-71870000D02*
X188390000Y-77870000D01*
X188390000Y-77870000D02*
X189140000Y-77870000D01*
X189140000Y-77870000D02*
X189140000Y-71870000D01*
X189140000Y-68570000D02*
X188390000Y-68570000D01*
X188390000Y-68570000D02*
X188390000Y-70370000D01*
X188390000Y-70370000D02*
X189140000Y-70370000D01*
X189140000Y-70370000D02*
X189140000Y-68570000D01*
X189140000Y-79370000D02*
X188390000Y-79370000D01*
X188390000Y-79370000D02*
X188390000Y-81170000D01*
X188390000Y-81170000D02*
X189140000Y-81170000D01*
X189140000Y-81170000D02*
X189140000Y-79370000D01*
X186890000Y-68570000D02*
X186890000Y-69320000D01*
X186890000Y-69320000D02*
X183940000Y-69320000D01*
X183940000Y-69320000D02*
X183940000Y-74870000D01*
X186890000Y-81170000D02*
X186890000Y-80420000D01*
X186890000Y-80420000D02*
X183940000Y-80420000D01*
X183940000Y-80420000D02*
X183940000Y-74870000D01*
X189440000Y-69520000D02*
X189440000Y-68270000D01*
X189440000Y-68270000D02*
X188190000Y-68270000D01*
D14*
G36*
X122863998Y-121820959D02*
G01*
X122939565Y-121899099D01*
X122897354Y-122018815D01*
X122814446Y-122106535D01*
X122680112Y-122274872D01*
X122541512Y-122534107D01*
X122455853Y-122741614D01*
X122274654Y-123135586D01*
X122064777Y-123426865D01*
X121833840Y-123609192D01*
X121589461Y-123676308D01*
X121368526Y-123634766D01*
X121226220Y-123534042D01*
X121160695Y-123449037D01*
X121128435Y-123332622D01*
X121189436Y-123223536D01*
X121220044Y-123191455D01*
X121355567Y-123083665D01*
X121459552Y-123087516D01*
X121566058Y-123205901D01*
X121576589Y-123221750D01*
X121682416Y-123347648D01*
X121760107Y-123373291D01*
X121792828Y-123293862D01*
X121793000Y-123283664D01*
X121762734Y-123168322D01*
X121683431Y-122978370D01*
X121572328Y-122747532D01*
X121446665Y-122509534D01*
X121323681Y-122298099D01*
X121220615Y-122146952D01*
X121198810Y-122121257D01*
X121109516Y-122015406D01*
X121104634Y-121953351D01*
X121181548Y-121886397D01*
X121186011Y-121883132D01*
X121326544Y-121830226D01*
X121537866Y-121800625D01*
X121766546Y-121796437D01*
X121959150Y-121819767D01*
X122037920Y-121849544D01*
X122093790Y-121950394D01*
X122085247Y-122026528D01*
X122084810Y-122158419D01*
X122143084Y-122278251D01*
X122231388Y-122344234D01*
X122297069Y-122335179D01*
X122347359Y-122231769D01*
X122336957Y-122078845D01*
X122330882Y-121920427D01*
X122400362Y-121831739D01*
X122565053Y-121796137D01*
X122674493Y-121793000D01*
X122863998Y-121820959D01*
G37*
X122863998Y-121820959D02*
X122939565Y-121899099D01*
X122897354Y-122018815D01*
X122814446Y-122106535D01*
X122680112Y-122274872D01*
X122541512Y-122534107D01*
X122455853Y-122741614D01*
X122274654Y-123135586D01*
X122064777Y-123426865D01*
X121833840Y-123609192D01*
X121589461Y-123676308D01*
X121368526Y-123634766D01*
X121226220Y-123534042D01*
X121160695Y-123449037D01*
X121128435Y-123332622D01*
X121189436Y-123223536D01*
X121220044Y-123191455D01*
X121355567Y-123083665D01*
X121459552Y-123087516D01*
X121566058Y-123205901D01*
X121576589Y-123221750D01*
X121682416Y-123347648D01*
X121760107Y-123373291D01*
X121792828Y-123293862D01*
X121793000Y-123283664D01*
X121762734Y-123168322D01*
X121683431Y-122978370D01*
X121572328Y-122747532D01*
X121446665Y-122509534D01*
X121323681Y-122298099D01*
X121220615Y-122146952D01*
X121198810Y-122121257D01*
X121109516Y-122015406D01*
X121104634Y-121953351D01*
X121181548Y-121886397D01*
X121186011Y-121883132D01*
X121326544Y-121830226D01*
X121537866Y-121800625D01*
X121766546Y-121796437D01*
X121959150Y-121819767D01*
X122037920Y-121849544D01*
X122093790Y-121950394D01*
X122085247Y-122026528D01*
X122084810Y-122158419D01*
X122143084Y-122278251D01*
X122231388Y-122344234D01*
X122297069Y-122335179D01*
X122347359Y-122231769D01*
X122336957Y-122078845D01*
X122330882Y-121920427D01*
X122400362Y-121831739D01*
X122565053Y-121796137D01*
X122674493Y-121793000D01*
X122863998Y-121820959D01*
G36*
X105532810Y-121294707D02*
G01*
X105675552Y-121318568D01*
X105690556Y-121323543D01*
X105776571Y-121412459D01*
X105777772Y-121546966D01*
X105711625Y-121656522D01*
X105665656Y-121769623D01*
X105640205Y-121970995D01*
X105634004Y-122223791D01*
X105645783Y-122491164D01*
X105674275Y-122736268D01*
X105718212Y-122922255D01*
X105757793Y-122997890D01*
X105828013Y-123090630D01*
X105802005Y-123146658D01*
X105736942Y-123184946D01*
X105588585Y-123228993D01*
X105381729Y-123249976D01*
X105161104Y-123248450D01*
X104971439Y-123224972D01*
X104857465Y-123180096D01*
X104851525Y-123173944D01*
X104825192Y-123067888D01*
X104875500Y-122971308D01*
X104934174Y-122843038D01*
X104962824Y-122686454D01*
X104960623Y-122542717D01*
X104926741Y-122452989D01*
X104886124Y-122443508D01*
X104818656Y-122510914D01*
X104722541Y-122660219D01*
X104633219Y-122829800D01*
X104533412Y-123017103D01*
X104445716Y-123147357D01*
X104394501Y-123190000D01*
X104336573Y-123137085D01*
X104244580Y-122997613D01*
X104137341Y-122800490D01*
X104125778Y-122777250D01*
X104020144Y-122575963D01*
X103930881Y-122429026D01*
X103875652Y-122365210D01*
X103872370Y-122364500D01*
X103831525Y-122418664D01*
X103817436Y-122551052D01*
X103826756Y-122716508D01*
X103856137Y-122869877D01*
X103902230Y-122966001D01*
X103917750Y-122976536D01*
X104003699Y-123057496D01*
X103988285Y-123158892D01*
X103912556Y-123214956D01*
X103743333Y-123251139D01*
X103550678Y-123253424D01*
X103381242Y-123225839D01*
X103281677Y-123172410D01*
X103274589Y-123159881D01*
X103286168Y-123045234D01*
X103340082Y-122964846D01*
X103396765Y-122841511D01*
X103432999Y-122630419D01*
X103448856Y-122369142D01*
X103444407Y-122095253D01*
X103419722Y-121846325D01*
X103374874Y-121659932D01*
X103337486Y-121592816D01*
X103269260Y-121463640D01*
X103315668Y-121366171D01*
X103466617Y-121308181D01*
X103712017Y-121297441D01*
X103720409Y-121297911D01*
X103892022Y-121312257D01*
X104005987Y-121347244D01*
X104097217Y-121428018D01*
X104200623Y-121579730D01*
X104270131Y-121693902D01*
X104392906Y-121885636D01*
X104497539Y-122028566D01*
X104561754Y-122092315D01*
X104562498Y-122092582D01*
X104624320Y-122053330D01*
X104706893Y-121929247D01*
X104746342Y-121849642D01*
X104886352Y-121573059D01*
X105018358Y-121400082D01*
X105163584Y-121310726D01*
X105343251Y-121285003D01*
X105345915Y-121285000D01*
X105532810Y-121294707D01*
G37*
X105532810Y-121294707D02*
X105675552Y-121318568D01*
X105690556Y-121323543D01*
X105776571Y-121412459D01*
X105777772Y-121546966D01*
X105711625Y-121656522D01*
X105665656Y-121769623D01*
X105640205Y-121970995D01*
X105634004Y-122223791D01*
X105645783Y-122491164D01*
X105674275Y-122736268D01*
X105718212Y-122922255D01*
X105757793Y-122997890D01*
X105828013Y-123090630D01*
X105802005Y-123146658D01*
X105736942Y-123184946D01*
X105588585Y-123228993D01*
X105381729Y-123249976D01*
X105161104Y-123248450D01*
X104971439Y-123224972D01*
X104857465Y-123180096D01*
X104851525Y-123173944D01*
X104825192Y-123067888D01*
X104875500Y-122971308D01*
X104934174Y-122843038D01*
X104962824Y-122686454D01*
X104960623Y-122542717D01*
X104926741Y-122452989D01*
X104886124Y-122443508D01*
X104818656Y-122510914D01*
X104722541Y-122660219D01*
X104633219Y-122829800D01*
X104533412Y-123017103D01*
X104445716Y-123147357D01*
X104394501Y-123190000D01*
X104336573Y-123137085D01*
X104244580Y-122997613D01*
X104137341Y-122800490D01*
X104125778Y-122777250D01*
X104020144Y-122575963D01*
X103930881Y-122429026D01*
X103875652Y-122365210D01*
X103872370Y-122364500D01*
X103831525Y-122418664D01*
X103817436Y-122551052D01*
X103826756Y-122716508D01*
X103856137Y-122869877D01*
X103902230Y-122966001D01*
X103917750Y-122976536D01*
X104003699Y-123057496D01*
X103988285Y-123158892D01*
X103912556Y-123214956D01*
X103743333Y-123251139D01*
X103550678Y-123253424D01*
X103381242Y-123225839D01*
X103281677Y-123172410D01*
X103274589Y-123159881D01*
X103286168Y-123045234D01*
X103340082Y-122964846D01*
X103396765Y-122841511D01*
X103432999Y-122630419D01*
X103448856Y-122369142D01*
X103444407Y-122095253D01*
X103419722Y-121846325D01*
X103374874Y-121659932D01*
X103337486Y-121592816D01*
X103269260Y-121463640D01*
X103315668Y-121366171D01*
X103466617Y-121308181D01*
X103712017Y-121297441D01*
X103720409Y-121297911D01*
X103892022Y-121312257D01*
X104005987Y-121347244D01*
X104097217Y-121428018D01*
X104200623Y-121579730D01*
X104270131Y-121693902D01*
X104392906Y-121885636D01*
X104497539Y-122028566D01*
X104561754Y-122092315D01*
X104562498Y-122092582D01*
X104624320Y-122053330D01*
X104706893Y-121929247D01*
X104746342Y-121849642D01*
X104886352Y-121573059D01*
X105018358Y-121400082D01*
X105163584Y-121310726D01*
X105343251Y-121285003D01*
X105345915Y-121285000D01*
X105532810Y-121294707D01*
G36*
X107048297Y-121850889D02*
G01*
X107233840Y-121940174D01*
X107337958Y-122110015D01*
X107376994Y-122377421D01*
X107378500Y-122463629D01*
X107390994Y-122687053D01*
X107434140Y-122816433D01*
X107489625Y-122869164D01*
X107552861Y-122920937D01*
X107538171Y-122980853D01*
X107435380Y-123083120D01*
X107422584Y-123094569D01*
X107224269Y-123219394D01*
X107033839Y-123248529D01*
X106884922Y-123179022D01*
X106794511Y-123136327D01*
X106657216Y-123174419D01*
X106646984Y-123179022D01*
X106377444Y-123249057D01*
X106143708Y-123197283D01*
X106010363Y-123097636D01*
X105890611Y-122958755D01*
X105867764Y-122848034D01*
X105891554Y-122805809D01*
X106502794Y-122805809D01*
X106567562Y-122908212D01*
X106646257Y-122936000D01*
X106724927Y-122881012D01*
X106743500Y-122777250D01*
X106704643Y-122654894D01*
X106617157Y-122615458D01*
X106524665Y-122676888D01*
X106519370Y-122685040D01*
X106502794Y-122805809D01*
X105891554Y-122805809D01*
X105940688Y-122718604D01*
X105999470Y-122647544D01*
X106158265Y-122519493D01*
X106380243Y-122453712D01*
X106443970Y-122445244D01*
X106626872Y-122416928D01*
X106715506Y-122372754D01*
X106742526Y-122292417D01*
X106743500Y-122258998D01*
X106705921Y-122114096D01*
X106604920Y-122069451D01*
X106458096Y-122127523D01*
X106362500Y-122205750D01*
X106202270Y-122319641D01*
X106073606Y-122340445D01*
X105999174Y-122271026D01*
X105992921Y-122159003D01*
X106075040Y-122011292D01*
X106262815Y-121901853D01*
X106538657Y-121838289D01*
X106764985Y-121825152D01*
X107048297Y-121850889D01*
G37*
X107048297Y-121850889D02*
X107233840Y-121940174D01*
X107337958Y-122110015D01*
X107376994Y-122377421D01*
X107378500Y-122463629D01*
X107390994Y-122687053D01*
X107434140Y-122816433D01*
X107489625Y-122869164D01*
X107552861Y-122920937D01*
X107538171Y-122980853D01*
X107435380Y-123083120D01*
X107422584Y-123094569D01*
X107224269Y-123219394D01*
X107033839Y-123248529D01*
X106884922Y-123179022D01*
X106794511Y-123136327D01*
X106657216Y-123174419D01*
X106646984Y-123179022D01*
X106377444Y-123249057D01*
X106143708Y-123197283D01*
X106010363Y-123097636D01*
X105890611Y-122958755D01*
X105867764Y-122848034D01*
X105891554Y-122805809D01*
X106502794Y-122805809D01*
X106567562Y-122908212D01*
X106646257Y-122936000D01*
X106724927Y-122881012D01*
X106743500Y-122777250D01*
X106704643Y-122654894D01*
X106617157Y-122615458D01*
X106524665Y-122676888D01*
X106519370Y-122685040D01*
X106502794Y-122805809D01*
X105891554Y-122805809D01*
X105940688Y-122718604D01*
X105999470Y-122647544D01*
X106158265Y-122519493D01*
X106380243Y-122453712D01*
X106443970Y-122445244D01*
X106626872Y-122416928D01*
X106715506Y-122372754D01*
X106742526Y-122292417D01*
X106743500Y-122258998D01*
X106705921Y-122114096D01*
X106604920Y-122069451D01*
X106458096Y-122127523D01*
X106362500Y-122205750D01*
X106202270Y-122319641D01*
X106073606Y-122340445D01*
X105999174Y-122271026D01*
X105992921Y-122159003D01*
X106075040Y-122011292D01*
X106262815Y-121901853D01*
X106538657Y-121838289D01*
X106764985Y-121825152D01*
X107048297Y-121850889D01*
G36*
X109157044Y-121849074D02*
G01*
X109314061Y-122007138D01*
X109398842Y-122251952D01*
X109410500Y-122406853D01*
X109432766Y-122641917D01*
X109487774Y-122867491D01*
X109502339Y-122905880D01*
X109556700Y-123053702D01*
X109551755Y-123131827D01*
X109483150Y-123185057D01*
X109474763Y-123189591D01*
X109323668Y-123232385D01*
X109113887Y-123250238D01*
X108901940Y-123242585D01*
X108744346Y-123208865D01*
X108721318Y-123197103D01*
X108668336Y-123124661D01*
X108705443Y-123011750D01*
X108757268Y-122843512D01*
X108774459Y-122631718D01*
X108758443Y-122425506D01*
X108710648Y-122274011D01*
X108683031Y-122239808D01*
X108572006Y-122186156D01*
X108500352Y-122245249D01*
X108466430Y-122420362D01*
X108466500Y-122673193D01*
X108469328Y-122901044D01*
X108457840Y-123082781D01*
X108436375Y-123174125D01*
X108345485Y-123221656D01*
X108176962Y-123247129D01*
X107978429Y-123249460D01*
X107797511Y-123227566D01*
X107696000Y-123190965D01*
X107634953Y-123123813D01*
X107666155Y-123025564D01*
X107680125Y-123002299D01*
X107735959Y-122842694D01*
X107758562Y-122630673D01*
X107748897Y-122414168D01*
X107707928Y-122241109D01*
X107663466Y-122173350D01*
X107606904Y-122075483D01*
X107674057Y-121982392D01*
X107861651Y-121897281D01*
X107980039Y-121863554D01*
X108200039Y-121812333D01*
X108324714Y-121800340D01*
X108380646Y-121831197D01*
X108394417Y-121908522D01*
X108394500Y-121920000D01*
X108417006Y-122023245D01*
X108448158Y-122047000D01*
X108526540Y-122004540D01*
X108616750Y-121920000D01*
X108785965Y-121816969D01*
X108939482Y-121793000D01*
X109157044Y-121849074D01*
G37*
X109157044Y-121849074D02*
X109314061Y-122007138D01*
X109398842Y-122251952D01*
X109410500Y-122406853D01*
X109432766Y-122641917D01*
X109487774Y-122867491D01*
X109502339Y-122905880D01*
X109556700Y-123053702D01*
X109551755Y-123131827D01*
X109483150Y-123185057D01*
X109474763Y-123189591D01*
X109323668Y-123232385D01*
X109113887Y-123250238D01*
X108901940Y-123242585D01*
X108744346Y-123208865D01*
X108721318Y-123197103D01*
X108668336Y-123124661D01*
X108705443Y-123011750D01*
X108757268Y-122843512D01*
X108774459Y-122631718D01*
X108758443Y-122425506D01*
X108710648Y-122274011D01*
X108683031Y-122239808D01*
X108572006Y-122186156D01*
X108500352Y-122245249D01*
X108466430Y-122420362D01*
X108466500Y-122673193D01*
X108469328Y-122901044D01*
X108457840Y-123082781D01*
X108436375Y-123174125D01*
X108345485Y-123221656D01*
X108176962Y-123247129D01*
X107978429Y-123249460D01*
X107797511Y-123227566D01*
X107696000Y-123190965D01*
X107634953Y-123123813D01*
X107666155Y-123025564D01*
X107680125Y-123002299D01*
X107735959Y-122842694D01*
X107758562Y-122630673D01*
X107748897Y-122414168D01*
X107707928Y-122241109D01*
X107663466Y-122173350D01*
X107606904Y-122075483D01*
X107674057Y-121982392D01*
X107861651Y-121897281D01*
X107980039Y-121863554D01*
X108200039Y-121812333D01*
X108324714Y-121800340D01*
X108380646Y-121831197D01*
X108394417Y-121908522D01*
X108394500Y-121920000D01*
X108417006Y-122023245D01*
X108448158Y-122047000D01*
X108526540Y-122004540D01*
X108616750Y-121920000D01*
X108785965Y-121816969D01*
X108939482Y-121793000D01*
X109157044Y-121849074D01*
G36*
X112540173Y-121368413D02*
G01*
X112748007Y-121435426D01*
X112869845Y-121553725D01*
X112891015Y-121685888D01*
X112822701Y-121805694D01*
X112683139Y-121844671D01*
X112502635Y-121798256D01*
X112427244Y-121755734D01*
X112277048Y-121688036D01*
X112196347Y-121712252D01*
X112195286Y-121786174D01*
X112280629Y-121881966D01*
X112420445Y-121975392D01*
X112582804Y-122042214D01*
X112649831Y-122056487D01*
X112779068Y-122115128D01*
X112835117Y-122216384D01*
X112811192Y-122317432D01*
X112700504Y-122375449D01*
X112700397Y-122375464D01*
X112598217Y-122412974D01*
X112563025Y-122511819D01*
X112563163Y-122603089D01*
X112629953Y-122827250D01*
X112721913Y-122936421D01*
X112820894Y-123028567D01*
X112827288Y-123087155D01*
X112747988Y-123158207D01*
X112600769Y-123216796D01*
X112377888Y-123248119D01*
X112127817Y-123251741D01*
X111899027Y-123227222D01*
X111739990Y-123174125D01*
X111730018Y-123167395D01*
X111621956Y-123114338D01*
X111504789Y-123139260D01*
X111448006Y-123167003D01*
X111257712Y-123233186D01*
X111062225Y-123251203D01*
X110904237Y-123221817D01*
X110829588Y-123155971D01*
X110790236Y-123093827D01*
X110720321Y-123108659D01*
X110643315Y-123155971D01*
X110422011Y-123240996D01*
X110190667Y-123235572D01*
X109998438Y-123141890D01*
X109982000Y-123126500D01*
X109903848Y-123013714D01*
X109864843Y-122851191D01*
X109855000Y-122623035D01*
X109837387Y-122349238D01*
X109782262Y-122181617D01*
X109753582Y-122145153D01*
X109684024Y-122022032D01*
X109730289Y-121919019D01*
X109881914Y-121842764D01*
X110128439Y-121799920D01*
X110307437Y-121793000D01*
X110490000Y-121793000D01*
X110490000Y-122293224D01*
X110504799Y-122613992D01*
X110548334Y-122819647D01*
X110619314Y-122907181D01*
X110716443Y-122873583D01*
X110732810Y-122858289D01*
X110787182Y-122733769D01*
X110806119Y-122540777D01*
X110791190Y-122332328D01*
X110743963Y-122161442D01*
X110710648Y-122108729D01*
X110647114Y-122017370D01*
X110679701Y-121948631D01*
X110712754Y-121919581D01*
X110832253Y-121865261D01*
X111022862Y-121820865D01*
X111127106Y-121807147D01*
X111442500Y-121776841D01*
X111442500Y-122316895D01*
X111453615Y-122643063D01*
X111490531Y-122854505D01*
X111558606Y-122961839D01*
X111663195Y-122975684D01*
X111755940Y-122938172D01*
X111847847Y-122837436D01*
X111893444Y-122686867D01*
X111892428Y-122529348D01*
X111844495Y-122407764D01*
X111760000Y-122364500D01*
X111653871Y-122319598D01*
X111633000Y-122237500D01*
X111659902Y-122134319D01*
X111697250Y-122110500D01*
X111732260Y-122054187D01*
X111727944Y-121903363D01*
X111723285Y-121871513D01*
X111729689Y-121651185D01*
X111835080Y-121496029D01*
X112046363Y-121399579D01*
X112266323Y-121363010D01*
X112540173Y-121368413D01*
G37*
X112540173Y-121368413D02*
X112748007Y-121435426D01*
X112869845Y-121553725D01*
X112891015Y-121685888D01*
X112822701Y-121805694D01*
X112683139Y-121844671D01*
X112502635Y-121798256D01*
X112427244Y-121755734D01*
X112277048Y-121688036D01*
X112196347Y-121712252D01*
X112195286Y-121786174D01*
X112280629Y-121881966D01*
X112420445Y-121975392D01*
X112582804Y-122042214D01*
X112649831Y-122056487D01*
X112779068Y-122115128D01*
X112835117Y-122216384D01*
X112811192Y-122317432D01*
X112700504Y-122375449D01*
X112700397Y-122375464D01*
X112598217Y-122412974D01*
X112563025Y-122511819D01*
X112563163Y-122603089D01*
X112629953Y-122827250D01*
X112721913Y-122936421D01*
X112820894Y-123028567D01*
X112827288Y-123087155D01*
X112747988Y-123158207D01*
X112600769Y-123216796D01*
X112377888Y-123248119D01*
X112127817Y-123251741D01*
X111899027Y-123227222D01*
X111739990Y-123174125D01*
X111730018Y-123167395D01*
X111621956Y-123114338D01*
X111504789Y-123139260D01*
X111448006Y-123167003D01*
X111257712Y-123233186D01*
X111062225Y-123251203D01*
X110904237Y-123221817D01*
X110829588Y-123155971D01*
X110790236Y-123093827D01*
X110720321Y-123108659D01*
X110643315Y-123155971D01*
X110422011Y-123240996D01*
X110190667Y-123235572D01*
X109998438Y-123141890D01*
X109982000Y-123126500D01*
X109903848Y-123013714D01*
X109864843Y-122851191D01*
X109855000Y-122623035D01*
X109837387Y-122349238D01*
X109782262Y-122181617D01*
X109753582Y-122145153D01*
X109684024Y-122022032D01*
X109730289Y-121919019D01*
X109881914Y-121842764D01*
X110128439Y-121799920D01*
X110307437Y-121793000D01*
X110490000Y-121793000D01*
X110490000Y-122293224D01*
X110504799Y-122613992D01*
X110548334Y-122819647D01*
X110619314Y-122907181D01*
X110716443Y-122873583D01*
X110732810Y-122858289D01*
X110787182Y-122733769D01*
X110806119Y-122540777D01*
X110791190Y-122332328D01*
X110743963Y-122161442D01*
X110710648Y-122108729D01*
X110647114Y-122017370D01*
X110679701Y-121948631D01*
X110712754Y-121919581D01*
X110832253Y-121865261D01*
X111022862Y-121820865D01*
X111127106Y-121807147D01*
X111442500Y-121776841D01*
X111442500Y-122316895D01*
X111453615Y-122643063D01*
X111490531Y-122854505D01*
X111558606Y-122961839D01*
X111663195Y-122975684D01*
X111755940Y-122938172D01*
X111847847Y-122837436D01*
X111893444Y-122686867D01*
X111892428Y-122529348D01*
X111844495Y-122407764D01*
X111760000Y-122364500D01*
X111653871Y-122319598D01*
X111633000Y-122237500D01*
X111659902Y-122134319D01*
X111697250Y-122110500D01*
X111732260Y-122054187D01*
X111727944Y-121903363D01*
X111723285Y-121871513D01*
X111729689Y-121651185D01*
X111835080Y-121496029D01*
X112046363Y-121399579D01*
X112266323Y-121363010D01*
X112540173Y-121368413D01*
G36*
X114160297Y-121850889D02*
G01*
X114345840Y-121940174D01*
X114449958Y-122110015D01*
X114488994Y-122377421D01*
X114490500Y-122463629D01*
X114502994Y-122687053D01*
X114546140Y-122816433D01*
X114601625Y-122869164D01*
X114664861Y-122920937D01*
X114650171Y-122980853D01*
X114547380Y-123083120D01*
X114534584Y-123094569D01*
X114336269Y-123219394D01*
X114145839Y-123248529D01*
X113996922Y-123179022D01*
X113906511Y-123136327D01*
X113769216Y-123174419D01*
X113758984Y-123179022D01*
X113489444Y-123249057D01*
X113255708Y-123197283D01*
X113122363Y-123097636D01*
X113002611Y-122958755D01*
X112979764Y-122848034D01*
X113003554Y-122805809D01*
X113614794Y-122805809D01*
X113679562Y-122908212D01*
X113758257Y-122936000D01*
X113836927Y-122881012D01*
X113855500Y-122777250D01*
X113816643Y-122654894D01*
X113729157Y-122615458D01*
X113636665Y-122676888D01*
X113631370Y-122685040D01*
X113614794Y-122805809D01*
X113003554Y-122805809D01*
X113052688Y-122718604D01*
X113111470Y-122647544D01*
X113270265Y-122519493D01*
X113492243Y-122453712D01*
X113555970Y-122445244D01*
X113738872Y-122416928D01*
X113827506Y-122372754D01*
X113854526Y-122292417D01*
X113855500Y-122258998D01*
X113817921Y-122114096D01*
X113716920Y-122069451D01*
X113570096Y-122127523D01*
X113474500Y-122205750D01*
X113314270Y-122319641D01*
X113185606Y-122340445D01*
X113111174Y-122271026D01*
X113104921Y-122159003D01*
X113187040Y-122011292D01*
X113374815Y-121901853D01*
X113650657Y-121838289D01*
X113876985Y-121825152D01*
X114160297Y-121850889D01*
G37*
X114160297Y-121850889D02*
X114345840Y-121940174D01*
X114449958Y-122110015D01*
X114488994Y-122377421D01*
X114490500Y-122463629D01*
X114502994Y-122687053D01*
X114546140Y-122816433D01*
X114601625Y-122869164D01*
X114664861Y-122920937D01*
X114650171Y-122980853D01*
X114547380Y-123083120D01*
X114534584Y-123094569D01*
X114336269Y-123219394D01*
X114145839Y-123248529D01*
X113996922Y-123179022D01*
X113906511Y-123136327D01*
X113769216Y-123174419D01*
X113758984Y-123179022D01*
X113489444Y-123249057D01*
X113255708Y-123197283D01*
X113122363Y-123097636D01*
X113002611Y-122958755D01*
X112979764Y-122848034D01*
X113003554Y-122805809D01*
X113614794Y-122805809D01*
X113679562Y-122908212D01*
X113758257Y-122936000D01*
X113836927Y-122881012D01*
X113855500Y-122777250D01*
X113816643Y-122654894D01*
X113729157Y-122615458D01*
X113636665Y-122676888D01*
X113631370Y-122685040D01*
X113614794Y-122805809D01*
X113003554Y-122805809D01*
X113052688Y-122718604D01*
X113111470Y-122647544D01*
X113270265Y-122519493D01*
X113492243Y-122453712D01*
X113555970Y-122445244D01*
X113738872Y-122416928D01*
X113827506Y-122372754D01*
X113854526Y-122292417D01*
X113855500Y-122258998D01*
X113817921Y-122114096D01*
X113716920Y-122069451D01*
X113570096Y-122127523D01*
X113474500Y-122205750D01*
X113314270Y-122319641D01*
X113185606Y-122340445D01*
X113111174Y-122271026D01*
X113104921Y-122159003D01*
X113187040Y-122011292D01*
X113374815Y-121901853D01*
X113650657Y-121838289D01*
X113876985Y-121825152D01*
X114160297Y-121850889D01*
G36*
X115774617Y-121816712D02*
G01*
X116018103Y-121889149D01*
X116185427Y-122015293D01*
X116235767Y-122107405D01*
X116243184Y-122280265D01*
X116167679Y-122409933D01*
X116042907Y-122481073D01*
X115902522Y-122478350D01*
X115780179Y-122386428D01*
X115747621Y-122329842D01*
X115646689Y-122203974D01*
X115542607Y-122186967D01*
X115429519Y-122255810D01*
X115389870Y-122396580D01*
X115428731Y-122574180D01*
X115474449Y-122658702D01*
X115557487Y-122757589D01*
X115663948Y-122799204D01*
X115841354Y-122800084D01*
X115874454Y-122797906D01*
X116090492Y-122808205D01*
X116195514Y-122868758D01*
X116184731Y-122967392D01*
X116053353Y-123091931D01*
X116002953Y-123124563D01*
X115730489Y-123226746D01*
X115425333Y-123242954D01*
X115144612Y-123171298D01*
X115110423Y-123154097D01*
X114893268Y-122972725D01*
X114775128Y-122735570D01*
X114760107Y-122471237D01*
X114852310Y-122208330D01*
X114954813Y-122069643D01*
X115115943Y-121919259D01*
X115280174Y-121842312D01*
X115484047Y-121809506D01*
X115774617Y-121816712D01*
G37*
X115774617Y-121816712D02*
X116018103Y-121889149D01*
X116185427Y-122015293D01*
X116235767Y-122107405D01*
X116243184Y-122280265D01*
X116167679Y-122409933D01*
X116042907Y-122481073D01*
X115902522Y-122478350D01*
X115780179Y-122386428D01*
X115747621Y-122329842D01*
X115646689Y-122203974D01*
X115542607Y-122186967D01*
X115429519Y-122255810D01*
X115389870Y-122396580D01*
X115428731Y-122574180D01*
X115474449Y-122658702D01*
X115557487Y-122757589D01*
X115663948Y-122799204D01*
X115841354Y-122800084D01*
X115874454Y-122797906D01*
X116090492Y-122808205D01*
X116195514Y-122868758D01*
X116184731Y-122967392D01*
X116053353Y-123091931D01*
X116002953Y-123124563D01*
X115730489Y-123226746D01*
X115425333Y-123242954D01*
X115144612Y-123171298D01*
X115110423Y-123154097D01*
X114893268Y-122972725D01*
X114775128Y-122735570D01*
X114760107Y-122471237D01*
X114852310Y-122208330D01*
X114954813Y-122069643D01*
X115115943Y-121919259D01*
X115280174Y-121842312D01*
X115484047Y-121809506D01*
X115774617Y-121816712D01*
G36*
X117186692Y-121512474D02*
G01*
X117221000Y-121630226D01*
X117243665Y-121741221D01*
X117336189Y-121791787D01*
X117427375Y-121804851D01*
X117576848Y-121839705D01*
X117631396Y-121918611D01*
X117633750Y-121951750D01*
X117601125Y-122046300D01*
X117483039Y-122091534D01*
X117424332Y-122098875D01*
X117214915Y-122119000D01*
X117233832Y-122479875D01*
X117247998Y-122683722D01*
X117274551Y-122791357D01*
X117330807Y-122833468D01*
X117434080Y-122840748D01*
X117437431Y-122840750D01*
X117596036Y-122868232D01*
X117641217Y-122941293D01*
X117571667Y-123045853D01*
X117463783Y-123124363D01*
X117188956Y-123236436D01*
X116930398Y-123237014D01*
X116709983Y-123126842D01*
X116678363Y-123097636D01*
X116591079Y-122991736D01*
X116543701Y-122868283D01*
X116524851Y-122685554D01*
X116522500Y-122526136D01*
X116518595Y-122301819D01*
X116501182Y-122176427D01*
X116461712Y-122121985D01*
X116395500Y-122110500D01*
X116281832Y-122079907D01*
X116268709Y-121998405D01*
X116348370Y-121881411D01*
X116513054Y-121744340D01*
X116611798Y-121680835D01*
X116886732Y-121535095D01*
X117076821Y-121479103D01*
X117186692Y-121512474D01*
G37*
X117186692Y-121512474D02*
X117221000Y-121630226D01*
X117243665Y-121741221D01*
X117336189Y-121791787D01*
X117427375Y-121804851D01*
X117576848Y-121839705D01*
X117631396Y-121918611D01*
X117633750Y-121951750D01*
X117601125Y-122046300D01*
X117483039Y-122091534D01*
X117424332Y-122098875D01*
X117214915Y-122119000D01*
X117233832Y-122479875D01*
X117247998Y-122683722D01*
X117274551Y-122791357D01*
X117330807Y-122833468D01*
X117434080Y-122840748D01*
X117437431Y-122840750D01*
X117596036Y-122868232D01*
X117641217Y-122941293D01*
X117571667Y-123045853D01*
X117463783Y-123124363D01*
X117188956Y-123236436D01*
X116930398Y-123237014D01*
X116709983Y-123126842D01*
X116678363Y-123097636D01*
X116591079Y-122991736D01*
X116543701Y-122868283D01*
X116524851Y-122685554D01*
X116522500Y-122526136D01*
X116518595Y-122301819D01*
X116501182Y-122176427D01*
X116461712Y-122121985D01*
X116395500Y-122110500D01*
X116281832Y-122079907D01*
X116268709Y-121998405D01*
X116348370Y-121881411D01*
X116513054Y-121744340D01*
X116611798Y-121680835D01*
X116886732Y-121535095D01*
X117076821Y-121479103D01*
X117186692Y-121512474D01*
G36*
X118842663Y-121815455D02*
G01*
X119104716Y-121923355D01*
X119305012Y-122109027D01*
X119422099Y-122360841D01*
X119443500Y-122543283D01*
X119385770Y-122780381D01*
X119230555Y-122980658D01*
X119004815Y-123132633D01*
X118735511Y-123224827D01*
X118449603Y-123245759D01*
X118174052Y-123183948D01*
X118066427Y-123129660D01*
X117850875Y-122949335D01*
X117749990Y-122730207D01*
X117748235Y-122477417D01*
X117803690Y-122301979D01*
X118429074Y-122301979D01*
X118431071Y-122481024D01*
X118465932Y-122661999D01*
X118527094Y-122795933D01*
X118628879Y-122895850D01*
X118702704Y-122875376D01*
X118741168Y-122739446D01*
X118745000Y-122650636D01*
X118721228Y-122413746D01*
X118658404Y-122227367D01*
X118569258Y-122122665D01*
X118524321Y-122110500D01*
X118460103Y-122165070D01*
X118429074Y-122301979D01*
X117803690Y-122301979D01*
X117837632Y-122194602D01*
X118025405Y-121986617D01*
X118219085Y-121879485D01*
X118540302Y-121796956D01*
X118842663Y-121815455D01*
G37*
X118842663Y-121815455D02*
X119104716Y-121923355D01*
X119305012Y-122109027D01*
X119422099Y-122360841D01*
X119443500Y-122543283D01*
X119385770Y-122780381D01*
X119230555Y-122980658D01*
X119004815Y-123132633D01*
X118735511Y-123224827D01*
X118449603Y-123245759D01*
X118174052Y-123183948D01*
X118066427Y-123129660D01*
X117850875Y-122949335D01*
X117749990Y-122730207D01*
X117748235Y-122477417D01*
X117803690Y-122301979D01*
X118429074Y-122301979D01*
X118431071Y-122481024D01*
X118465932Y-122661999D01*
X118527094Y-122795933D01*
X118628879Y-122895850D01*
X118702704Y-122875376D01*
X118741168Y-122739446D01*
X118745000Y-122650636D01*
X118721228Y-122413746D01*
X118658404Y-122227367D01*
X118569258Y-122122665D01*
X118524321Y-122110500D01*
X118460103Y-122165070D01*
X118429074Y-122301979D01*
X117803690Y-122301979D01*
X117837632Y-122194602D01*
X118025405Y-121986617D01*
X118219085Y-121879485D01*
X118540302Y-121796956D01*
X118842663Y-121815455D01*
G36*
X120321355Y-121871700D02*
G01*
X120332500Y-121931068D01*
X120332500Y-122069137D01*
X120479467Y-121931068D01*
X120668559Y-121813033D01*
X120845598Y-121815226D01*
X120994863Y-121936953D01*
X121006793Y-121954351D01*
X121075419Y-122102779D01*
X121054482Y-122241423D01*
X121042167Y-122270099D01*
X120920824Y-122413081D01*
X120751947Y-122473756D01*
X120582111Y-122439951D01*
X120531163Y-122403637D01*
X120425250Y-122337117D01*
X120362001Y-122376828D01*
X120334783Y-122530221D01*
X120332500Y-122626849D01*
X120356858Y-122817540D01*
X120439556Y-122924204D01*
X120459500Y-122936000D01*
X120566949Y-123036352D01*
X120571939Y-123143678D01*
X120486056Y-123214956D01*
X120325144Y-123247975D01*
X120110260Y-123257165D01*
X119885153Y-123245109D01*
X119693570Y-123214395D01*
X119579259Y-123167607D01*
X119572763Y-123160977D01*
X119531484Y-123066028D01*
X119579956Y-122949306D01*
X119596738Y-122924598D01*
X119670948Y-122749633D01*
X119696176Y-122539786D01*
X119672709Y-122344473D01*
X119600836Y-122213109D01*
X119592548Y-122206508D01*
X119525553Y-122107755D01*
X119583734Y-122003418D01*
X119765524Y-121895967D01*
X119798462Y-121881770D01*
X120049010Y-121802419D01*
X120227576Y-121799456D01*
X120321355Y-121871700D01*
G37*
X120321355Y-121871700D02*
X120332500Y-121931068D01*
X120332500Y-122069137D01*
X120479467Y-121931068D01*
X120668559Y-121813033D01*
X120845598Y-121815226D01*
X120994863Y-121936953D01*
X121006793Y-121954351D01*
X121075419Y-122102779D01*
X121054482Y-122241423D01*
X121042167Y-122270099D01*
X120920824Y-122413081D01*
X120751947Y-122473756D01*
X120582111Y-122439951D01*
X120531163Y-122403637D01*
X120425250Y-122337117D01*
X120362001Y-122376828D01*
X120334783Y-122530221D01*
X120332500Y-122626849D01*
X120356858Y-122817540D01*
X120439556Y-122924204D01*
X120459500Y-122936000D01*
X120566949Y-123036352D01*
X120571939Y-123143678D01*
X120486056Y-123214956D01*
X120325144Y-123247975D01*
X120110260Y-123257165D01*
X119885153Y-123245109D01*
X119693570Y-123214395D01*
X119579259Y-123167607D01*
X119572763Y-123160977D01*
X119531484Y-123066028D01*
X119579956Y-122949306D01*
X119596738Y-122924598D01*
X119670948Y-122749633D01*
X119696176Y-122539786D01*
X119672709Y-122344473D01*
X119600836Y-122213109D01*
X119592548Y-122206508D01*
X119525553Y-122107755D01*
X119583734Y-122003418D01*
X119765524Y-121895967D01*
X119798462Y-121881770D01*
X120049010Y-121802419D01*
X120227576Y-121799456D01*
X120321355Y-121871700D01*
G36*
X105896070Y-115968871D02*
G01*
X106109583Y-115979770D01*
X106276411Y-115999754D01*
X106416598Y-116029578D01*
X106479501Y-116047366D01*
X106854838Y-116217704D01*
X107143336Y-116462769D01*
X107342934Y-116762744D01*
X107451573Y-117097811D01*
X107467191Y-117448151D01*
X107387731Y-117793947D01*
X107211130Y-118115382D01*
X106935331Y-118392636D01*
X106736655Y-118521285D01*
X106554137Y-118612633D01*
X106383862Y-118671457D01*
X106185083Y-118706778D01*
X105917054Y-118727618D01*
X105775125Y-118734178D01*
X105156000Y-118759771D01*
X105156000Y-119096442D01*
X105165264Y-119360068D01*
X105202467Y-119531395D01*
X105281718Y-119644367D01*
X105417132Y-119732929D01*
X105421562Y-119735229D01*
X105564064Y-119861495D01*
X105595221Y-120014984D01*
X105517424Y-120166401D01*
X105378250Y-120266404D01*
X105200267Y-120318626D01*
X104932326Y-120355960D01*
X104610683Y-120377636D01*
X104271592Y-120382879D01*
X103951310Y-120370918D01*
X103686091Y-120340979D01*
X103543097Y-120305519D01*
X103309728Y-120192518D01*
X103202090Y-120069599D01*
X103219011Y-119931725D01*
X103359314Y-119773859D01*
X103409750Y-119733555D01*
X103632000Y-119564036D01*
X103632000Y-117630891D01*
X105165550Y-117630891D01*
X105176999Y-117841209D01*
X105205345Y-117958632D01*
X105232947Y-117992654D01*
X105424518Y-118044350D01*
X105634805Y-117983523D01*
X105795884Y-117860884D01*
X105913554Y-117719873D01*
X105968216Y-117570421D01*
X105981500Y-117356425D01*
X105939042Y-117047945D01*
X105812904Y-116833086D01*
X105604940Y-116714125D01*
X105438571Y-116689618D01*
X105187750Y-116681250D01*
X105169447Y-117311002D01*
X105165550Y-117630891D01*
X103632000Y-117630891D01*
X103632000Y-116706519D01*
X103420570Y-116618178D01*
X103191467Y-116488477D01*
X103086528Y-116341607D01*
X103091236Y-116208194D01*
X103113170Y-116153349D01*
X103149950Y-116110400D01*
X103216565Y-116077342D01*
X103328003Y-116052173D01*
X103499252Y-116032889D01*
X103745301Y-116017487D01*
X104081137Y-116003963D01*
X104521750Y-115990313D01*
X104775000Y-115983125D01*
X105248821Y-115971303D01*
X105615830Y-115966300D01*
X105896070Y-115968871D01*
G37*
X105896070Y-115968871D02*
X106109583Y-115979770D01*
X106276411Y-115999754D01*
X106416598Y-116029578D01*
X106479501Y-116047366D01*
X106854838Y-116217704D01*
X107143336Y-116462769D01*
X107342934Y-116762744D01*
X107451573Y-117097811D01*
X107467191Y-117448151D01*
X107387731Y-117793947D01*
X107211130Y-118115382D01*
X106935331Y-118392636D01*
X106736655Y-118521285D01*
X106554137Y-118612633D01*
X106383862Y-118671457D01*
X106185083Y-118706778D01*
X105917054Y-118727618D01*
X105775125Y-118734178D01*
X105156000Y-118759771D01*
X105156000Y-119096442D01*
X105165264Y-119360068D01*
X105202467Y-119531395D01*
X105281718Y-119644367D01*
X105417132Y-119732929D01*
X105421562Y-119735229D01*
X105564064Y-119861495D01*
X105595221Y-120014984D01*
X105517424Y-120166401D01*
X105378250Y-120266404D01*
X105200267Y-120318626D01*
X104932326Y-120355960D01*
X104610683Y-120377636D01*
X104271592Y-120382879D01*
X103951310Y-120370918D01*
X103686091Y-120340979D01*
X103543097Y-120305519D01*
X103309728Y-120192518D01*
X103202090Y-120069599D01*
X103219011Y-119931725D01*
X103359314Y-119773859D01*
X103409750Y-119733555D01*
X103632000Y-119564036D01*
X103632000Y-117630891D01*
X105165550Y-117630891D01*
X105176999Y-117841209D01*
X105205345Y-117958632D01*
X105232947Y-117992654D01*
X105424518Y-118044350D01*
X105634805Y-117983523D01*
X105795884Y-117860884D01*
X105913554Y-117719873D01*
X105968216Y-117570421D01*
X105981500Y-117356425D01*
X105939042Y-117047945D01*
X105812904Y-116833086D01*
X105604940Y-116714125D01*
X105438571Y-116689618D01*
X105187750Y-116681250D01*
X105169447Y-117311002D01*
X105165550Y-117630891D01*
X103632000Y-117630891D01*
X103632000Y-116706519D01*
X103420570Y-116618178D01*
X103191467Y-116488477D01*
X103086528Y-116341607D01*
X103091236Y-116208194D01*
X103113170Y-116153349D01*
X103149950Y-116110400D01*
X103216565Y-116077342D01*
X103328003Y-116052173D01*
X103499252Y-116032889D01*
X103745301Y-116017487D01*
X104081137Y-116003963D01*
X104521750Y-115990313D01*
X104775000Y-115983125D01*
X105248821Y-115971303D01*
X105615830Y-115966300D01*
X105896070Y-115968871D01*
G36*
X108915961Y-115957568D02*
G01*
X109137984Y-115976361D01*
X109274367Y-116009648D01*
X109276687Y-116010853D01*
X109357819Y-116069074D01*
X109518719Y-116196456D01*
X109742800Y-116379431D01*
X110013472Y-116604430D01*
X110314148Y-116857884D01*
X110365892Y-116901837D01*
X110667652Y-117153638D01*
X110941311Y-117372938D01*
X111170771Y-117547562D01*
X111339933Y-117665336D01*
X111432698Y-117714085D01*
X111440504Y-117714513D01*
X111504903Y-117658516D01*
X111543385Y-117507944D01*
X111557376Y-117350799D01*
X111561884Y-117052009D01*
X111528610Y-116848708D01*
X111448059Y-116712574D01*
X111310823Y-116615331D01*
X111176984Y-116524395D01*
X111133631Y-116410704D01*
X111137118Y-116313999D01*
X111174094Y-116165258D01*
X111262773Y-116061909D01*
X111420523Y-115997773D01*
X111664716Y-115966672D01*
X112012723Y-115962427D01*
X112118628Y-115964856D01*
X112429762Y-115977640D01*
X112641236Y-115998689D01*
X112780342Y-116032874D01*
X112874376Y-116085068D01*
X112896503Y-116103716D01*
X112995775Y-116231872D01*
X113030000Y-116339338D01*
X113021069Y-116415199D01*
X112978565Y-116485371D01*
X112878922Y-116577163D01*
X112712500Y-116707258D01*
X112553750Y-116828472D01*
X112520682Y-118405861D01*
X112507421Y-118956314D01*
X112491438Y-119393066D01*
X112469959Y-119729418D01*
X112440212Y-119978669D01*
X112399423Y-120154118D01*
X112344820Y-120269066D01*
X112273628Y-120336811D01*
X112183074Y-120370653D01*
X112108808Y-120381106D01*
X112036490Y-120376977D01*
X111949322Y-120345963D01*
X111834316Y-120278540D01*
X111678481Y-120165184D01*
X111468830Y-119996370D01*
X111192373Y-119762573D01*
X110836122Y-119454271D01*
X110790019Y-119414106D01*
X110465274Y-119132608D01*
X110167375Y-118877338D01*
X109911255Y-118660853D01*
X109711843Y-118495712D01*
X109584071Y-118394472D01*
X109548348Y-118369805D01*
X109412209Y-118337463D01*
X109316150Y-118413103D01*
X109255803Y-118602641D01*
X109233146Y-118796724D01*
X109234068Y-119120560D01*
X109281926Y-119390203D01*
X109369946Y-119581575D01*
X109477990Y-119667016D01*
X109606679Y-119752835D01*
X109671045Y-119836730D01*
X109704442Y-119956129D01*
X109653329Y-120081937D01*
X109617628Y-120132543D01*
X109481986Y-120264464D01*
X109341275Y-120340533D01*
X109192485Y-120362390D01*
X108961511Y-120375743D01*
X108692910Y-120380187D01*
X108431241Y-120375313D01*
X108221061Y-120360714D01*
X108157640Y-120351351D01*
X108029275Y-120286490D01*
X107892198Y-120163699D01*
X107789025Y-120027040D01*
X107759500Y-119939699D01*
X107802745Y-119866385D01*
X107912929Y-119744443D01*
X107991899Y-119668619D01*
X108224298Y-119455713D01*
X108254067Y-118631304D01*
X108262033Y-118271474D01*
X108261365Y-117911561D01*
X108252629Y-117594752D01*
X108237599Y-117375142D01*
X108205886Y-117135409D01*
X108158809Y-116973506D01*
X108073700Y-116840476D01*
X107927888Y-116687360D01*
X107911931Y-116671814D01*
X107764989Y-116523241D01*
X107663774Y-116409889D01*
X107632500Y-116361944D01*
X107687899Y-116218647D01*
X107828525Y-116086240D01*
X107958135Y-116021179D01*
X108129386Y-115985075D01*
X108372329Y-115962233D01*
X108647632Y-115952962D01*
X108915961Y-115957568D01*
G37*
X108915961Y-115957568D02*
X109137984Y-115976361D01*
X109274367Y-116009648D01*
X109276687Y-116010853D01*
X109357819Y-116069074D01*
X109518719Y-116196456D01*
X109742800Y-116379431D01*
X110013472Y-116604430D01*
X110314148Y-116857884D01*
X110365892Y-116901837D01*
X110667652Y-117153638D01*
X110941311Y-117372938D01*
X111170771Y-117547562D01*
X111339933Y-117665336D01*
X111432698Y-117714085D01*
X111440504Y-117714513D01*
X111504903Y-117658516D01*
X111543385Y-117507944D01*
X111557376Y-117350799D01*
X111561884Y-117052009D01*
X111528610Y-116848708D01*
X111448059Y-116712574D01*
X111310823Y-116615331D01*
X111176984Y-116524395D01*
X111133631Y-116410704D01*
X111137118Y-116313999D01*
X111174094Y-116165258D01*
X111262773Y-116061909D01*
X111420523Y-115997773D01*
X111664716Y-115966672D01*
X112012723Y-115962427D01*
X112118628Y-115964856D01*
X112429762Y-115977640D01*
X112641236Y-115998689D01*
X112780342Y-116032874D01*
X112874376Y-116085068D01*
X112896503Y-116103716D01*
X112995775Y-116231872D01*
X113030000Y-116339338D01*
X113021069Y-116415199D01*
X112978565Y-116485371D01*
X112878922Y-116577163D01*
X112712500Y-116707258D01*
X112553750Y-116828472D01*
X112520682Y-118405861D01*
X112507421Y-118956314D01*
X112491438Y-119393066D01*
X112469959Y-119729418D01*
X112440212Y-119978669D01*
X112399423Y-120154118D01*
X112344820Y-120269066D01*
X112273628Y-120336811D01*
X112183074Y-120370653D01*
X112108808Y-120381106D01*
X112036490Y-120376977D01*
X111949322Y-120345963D01*
X111834316Y-120278540D01*
X111678481Y-120165184D01*
X111468830Y-119996370D01*
X111192373Y-119762573D01*
X110836122Y-119454271D01*
X110790019Y-119414106D01*
X110465274Y-119132608D01*
X110167375Y-118877338D01*
X109911255Y-118660853D01*
X109711843Y-118495712D01*
X109584071Y-118394472D01*
X109548348Y-118369805D01*
X109412209Y-118337463D01*
X109316150Y-118413103D01*
X109255803Y-118602641D01*
X109233146Y-118796724D01*
X109234068Y-119120560D01*
X109281926Y-119390203D01*
X109369946Y-119581575D01*
X109477990Y-119667016D01*
X109606679Y-119752835D01*
X109671045Y-119836730D01*
X109704442Y-119956129D01*
X109653329Y-120081937D01*
X109617628Y-120132543D01*
X109481986Y-120264464D01*
X109341275Y-120340533D01*
X109192485Y-120362390D01*
X108961511Y-120375743D01*
X108692910Y-120380187D01*
X108431241Y-120375313D01*
X108221061Y-120360714D01*
X108157640Y-120351351D01*
X108029275Y-120286490D01*
X107892198Y-120163699D01*
X107789025Y-120027040D01*
X107759500Y-119939699D01*
X107802745Y-119866385D01*
X107912929Y-119744443D01*
X107991899Y-119668619D01*
X108224298Y-119455713D01*
X108254067Y-118631304D01*
X108262033Y-118271474D01*
X108261365Y-117911561D01*
X108252629Y-117594752D01*
X108237599Y-117375142D01*
X108205886Y-117135409D01*
X108158809Y-116973506D01*
X108073700Y-116840476D01*
X107927888Y-116687360D01*
X107911931Y-116671814D01*
X107764989Y-116523241D01*
X107663774Y-116409889D01*
X107632500Y-116361944D01*
X107687899Y-116218647D01*
X107828525Y-116086240D01*
X107958135Y-116021179D01*
X108129386Y-115985075D01*
X108372329Y-115962233D01*
X108647632Y-115952962D01*
X108915961Y-115957568D01*
G36*
X115992570Y-115968871D02*
G01*
X116206083Y-115979770D01*
X116372911Y-115999754D01*
X116513098Y-116029578D01*
X116576001Y-116047366D01*
X116951338Y-116217704D01*
X117239836Y-116462769D01*
X117439434Y-116762744D01*
X117548073Y-117097811D01*
X117563691Y-117448151D01*
X117484231Y-117793947D01*
X117307630Y-118115382D01*
X117031831Y-118392636D01*
X116833155Y-118521285D01*
X116650637Y-118612633D01*
X116480362Y-118671457D01*
X116281583Y-118706778D01*
X116013554Y-118727618D01*
X115871625Y-118734178D01*
X115252500Y-118759771D01*
X115252500Y-119096442D01*
X115261764Y-119360068D01*
X115298967Y-119531395D01*
X115378218Y-119644367D01*
X115513632Y-119732929D01*
X115518062Y-119735229D01*
X115660564Y-119861495D01*
X115691721Y-120014984D01*
X115613924Y-120166401D01*
X115474750Y-120266404D01*
X115296767Y-120318626D01*
X115028826Y-120355960D01*
X114707183Y-120377636D01*
X114368092Y-120382879D01*
X114047810Y-120370918D01*
X113782591Y-120340979D01*
X113639597Y-120305519D01*
X113406228Y-120192518D01*
X113298590Y-120069599D01*
X113315511Y-119931725D01*
X113455814Y-119773859D01*
X113506250Y-119733555D01*
X113728500Y-119564036D01*
X113728500Y-117630891D01*
X115262050Y-117630891D01*
X115273499Y-117841209D01*
X115301845Y-117958632D01*
X115329447Y-117992654D01*
X115521018Y-118044350D01*
X115731305Y-117983523D01*
X115892384Y-117860884D01*
X116010054Y-117719873D01*
X116064716Y-117570421D01*
X116078000Y-117356425D01*
X116035542Y-117047945D01*
X115909404Y-116833086D01*
X115701440Y-116714125D01*
X115535071Y-116689618D01*
X115284250Y-116681250D01*
X115265947Y-117311002D01*
X115262050Y-117630891D01*
X113728500Y-117630891D01*
X113728500Y-116706519D01*
X113517070Y-116618178D01*
X113287967Y-116488477D01*
X113183028Y-116341607D01*
X113187736Y-116208194D01*
X113209670Y-116153349D01*
X113246450Y-116110400D01*
X113313065Y-116077342D01*
X113424503Y-116052173D01*
X113595752Y-116032889D01*
X113841801Y-116017487D01*
X114177637Y-116003963D01*
X114618250Y-115990313D01*
X114871500Y-115983125D01*
X115345321Y-115971303D01*
X115712330Y-115966300D01*
X115992570Y-115968871D01*
G37*
X115992570Y-115968871D02*
X116206083Y-115979770D01*
X116372911Y-115999754D01*
X116513098Y-116029578D01*
X116576001Y-116047366D01*
X116951338Y-116217704D01*
X117239836Y-116462769D01*
X117439434Y-116762744D01*
X117548073Y-117097811D01*
X117563691Y-117448151D01*
X117484231Y-117793947D01*
X117307630Y-118115382D01*
X117031831Y-118392636D01*
X116833155Y-118521285D01*
X116650637Y-118612633D01*
X116480362Y-118671457D01*
X116281583Y-118706778D01*
X116013554Y-118727618D01*
X115871625Y-118734178D01*
X115252500Y-118759771D01*
X115252500Y-119096442D01*
X115261764Y-119360068D01*
X115298967Y-119531395D01*
X115378218Y-119644367D01*
X115513632Y-119732929D01*
X115518062Y-119735229D01*
X115660564Y-119861495D01*
X115691721Y-120014984D01*
X115613924Y-120166401D01*
X115474750Y-120266404D01*
X115296767Y-120318626D01*
X115028826Y-120355960D01*
X114707183Y-120377636D01*
X114368092Y-120382879D01*
X114047810Y-120370918D01*
X113782591Y-120340979D01*
X113639597Y-120305519D01*
X113406228Y-120192518D01*
X113298590Y-120069599D01*
X113315511Y-119931725D01*
X113455814Y-119773859D01*
X113506250Y-119733555D01*
X113728500Y-119564036D01*
X113728500Y-117630891D01*
X115262050Y-117630891D01*
X115273499Y-117841209D01*
X115301845Y-117958632D01*
X115329447Y-117992654D01*
X115521018Y-118044350D01*
X115731305Y-117983523D01*
X115892384Y-117860884D01*
X116010054Y-117719873D01*
X116064716Y-117570421D01*
X116078000Y-117356425D01*
X116035542Y-117047945D01*
X115909404Y-116833086D01*
X115701440Y-116714125D01*
X115535071Y-116689618D01*
X115284250Y-116681250D01*
X115265947Y-117311002D01*
X115262050Y-117630891D01*
X113728500Y-117630891D01*
X113728500Y-116706519D01*
X113517070Y-116618178D01*
X113287967Y-116488477D01*
X113183028Y-116341607D01*
X113187736Y-116208194D01*
X113209670Y-116153349D01*
X113246450Y-116110400D01*
X113313065Y-116077342D01*
X113424503Y-116052173D01*
X113595752Y-116032889D01*
X113841801Y-116017487D01*
X114177637Y-116003963D01*
X114618250Y-115990313D01*
X114871500Y-115983125D01*
X115345321Y-115971303D01*
X115712330Y-115966300D01*
X115992570Y-115968871D01*
G36*
X118948961Y-115957568D02*
G01*
X119170984Y-115976361D01*
X119307367Y-116009648D01*
X119309687Y-116010853D01*
X119390819Y-116069074D01*
X119551719Y-116196456D01*
X119775800Y-116379431D01*
X120046472Y-116604430D01*
X120347148Y-116857884D01*
X120398892Y-116901837D01*
X120700652Y-117153638D01*
X120974311Y-117372938D01*
X121203771Y-117547562D01*
X121372933Y-117665336D01*
X121465698Y-117714085D01*
X121473504Y-117714513D01*
X121537903Y-117658516D01*
X121576385Y-117507944D01*
X121590376Y-117350799D01*
X121594884Y-117052009D01*
X121561610Y-116848708D01*
X121481059Y-116712574D01*
X121343823Y-116615331D01*
X121209984Y-116524395D01*
X121166631Y-116410704D01*
X121170118Y-116313999D01*
X121207094Y-116165258D01*
X121295773Y-116061909D01*
X121453523Y-115997773D01*
X121697716Y-115966672D01*
X122045723Y-115962427D01*
X122151628Y-115964856D01*
X122462762Y-115977640D01*
X122674236Y-115998689D01*
X122813342Y-116032874D01*
X122907376Y-116085068D01*
X122929503Y-116103716D01*
X123028775Y-116231872D01*
X123063000Y-116339338D01*
X123054069Y-116415199D01*
X123011565Y-116485371D01*
X122911922Y-116577163D01*
X122745500Y-116707258D01*
X122586750Y-116828472D01*
X122553682Y-118405861D01*
X122540421Y-118956314D01*
X122524438Y-119393066D01*
X122502959Y-119729418D01*
X122473212Y-119978669D01*
X122432423Y-120154118D01*
X122377820Y-120269066D01*
X122306628Y-120336811D01*
X122216074Y-120370653D01*
X122141808Y-120381106D01*
X122069490Y-120376977D01*
X121982322Y-120345963D01*
X121867316Y-120278540D01*
X121711481Y-120165184D01*
X121501830Y-119996370D01*
X121225373Y-119762573D01*
X120869122Y-119454271D01*
X120823019Y-119414106D01*
X120498274Y-119132608D01*
X120200375Y-118877338D01*
X119944255Y-118660853D01*
X119744843Y-118495712D01*
X119617071Y-118394472D01*
X119581348Y-118369805D01*
X119445209Y-118337463D01*
X119349150Y-118413103D01*
X119288803Y-118602641D01*
X119266146Y-118796724D01*
X119267068Y-119120560D01*
X119314926Y-119390203D01*
X119402946Y-119581575D01*
X119510990Y-119667016D01*
X119639679Y-119752835D01*
X119704045Y-119836730D01*
X119737442Y-119956129D01*
X119686329Y-120081937D01*
X119650628Y-120132543D01*
X119514986Y-120264464D01*
X119374275Y-120340533D01*
X119225485Y-120362390D01*
X118994511Y-120375743D01*
X118725910Y-120380187D01*
X118464241Y-120375313D01*
X118254061Y-120360714D01*
X118190640Y-120351351D01*
X118062275Y-120286490D01*
X117925198Y-120163699D01*
X117822025Y-120027040D01*
X117792500Y-119939699D01*
X117835745Y-119866385D01*
X117945929Y-119744443D01*
X118024899Y-119668619D01*
X118257298Y-119455713D01*
X118287067Y-118631304D01*
X118295033Y-118271474D01*
X118294365Y-117911561D01*
X118285629Y-117594752D01*
X118270599Y-117375142D01*
X118238886Y-117135409D01*
X118191809Y-116973506D01*
X118106700Y-116840476D01*
X117960888Y-116687360D01*
X117944931Y-116671814D01*
X117797989Y-116523241D01*
X117696774Y-116409889D01*
X117665500Y-116361944D01*
X117720899Y-116218647D01*
X117861525Y-116086240D01*
X117991135Y-116021179D01*
X118162386Y-115985075D01*
X118405329Y-115962233D01*
X118680632Y-115952962D01*
X118948961Y-115957568D01*
G37*
X118948961Y-115957568D02*
X119170984Y-115976361D01*
X119307367Y-116009648D01*
X119309687Y-116010853D01*
X119390819Y-116069074D01*
X119551719Y-116196456D01*
X119775800Y-116379431D01*
X120046472Y-116604430D01*
X120347148Y-116857884D01*
X120398892Y-116901837D01*
X120700652Y-117153638D01*
X120974311Y-117372938D01*
X121203771Y-117547562D01*
X121372933Y-117665336D01*
X121465698Y-117714085D01*
X121473504Y-117714513D01*
X121537903Y-117658516D01*
X121576385Y-117507944D01*
X121590376Y-117350799D01*
X121594884Y-117052009D01*
X121561610Y-116848708D01*
X121481059Y-116712574D01*
X121343823Y-116615331D01*
X121209984Y-116524395D01*
X121166631Y-116410704D01*
X121170118Y-116313999D01*
X121207094Y-116165258D01*
X121295773Y-116061909D01*
X121453523Y-115997773D01*
X121697716Y-115966672D01*
X122045723Y-115962427D01*
X122151628Y-115964856D01*
X122462762Y-115977640D01*
X122674236Y-115998689D01*
X122813342Y-116032874D01*
X122907376Y-116085068D01*
X122929503Y-116103716D01*
X123028775Y-116231872D01*
X123063000Y-116339338D01*
X123054069Y-116415199D01*
X123011565Y-116485371D01*
X122911922Y-116577163D01*
X122745500Y-116707258D01*
X122586750Y-116828472D01*
X122553682Y-118405861D01*
X122540421Y-118956314D01*
X122524438Y-119393066D01*
X122502959Y-119729418D01*
X122473212Y-119978669D01*
X122432423Y-120154118D01*
X122377820Y-120269066D01*
X122306628Y-120336811D01*
X122216074Y-120370653D01*
X122141808Y-120381106D01*
X122069490Y-120376977D01*
X121982322Y-120345963D01*
X121867316Y-120278540D01*
X121711481Y-120165184D01*
X121501830Y-119996370D01*
X121225373Y-119762573D01*
X120869122Y-119454271D01*
X120823019Y-119414106D01*
X120498274Y-119132608D01*
X120200375Y-118877338D01*
X119944255Y-118660853D01*
X119744843Y-118495712D01*
X119617071Y-118394472D01*
X119581348Y-118369805D01*
X119445209Y-118337463D01*
X119349150Y-118413103D01*
X119288803Y-118602641D01*
X119266146Y-118796724D01*
X119267068Y-119120560D01*
X119314926Y-119390203D01*
X119402946Y-119581575D01*
X119510990Y-119667016D01*
X119639679Y-119752835D01*
X119704045Y-119836730D01*
X119737442Y-119956129D01*
X119686329Y-120081937D01*
X119650628Y-120132543D01*
X119514986Y-120264464D01*
X119374275Y-120340533D01*
X119225485Y-120362390D01*
X118994511Y-120375743D01*
X118725910Y-120380187D01*
X118464241Y-120375313D01*
X118254061Y-120360714D01*
X118190640Y-120351351D01*
X118062275Y-120286490D01*
X117925198Y-120163699D01*
X117822025Y-120027040D01*
X117792500Y-119939699D01*
X117835745Y-119866385D01*
X117945929Y-119744443D01*
X118024899Y-119668619D01*
X118257298Y-119455713D01*
X118287067Y-118631304D01*
X118295033Y-118271474D01*
X118294365Y-117911561D01*
X118285629Y-117594752D01*
X118270599Y-117375142D01*
X118238886Y-117135409D01*
X118191809Y-116973506D01*
X118106700Y-116840476D01*
X117960888Y-116687360D01*
X117944931Y-116671814D01*
X117797989Y-116523241D01*
X117696774Y-116409889D01*
X117665500Y-116361944D01*
X117720899Y-116218647D01*
X117861525Y-116086240D01*
X117991135Y-116021179D01*
X118162386Y-115985075D01*
X118405329Y-115962233D01*
X118680632Y-115952962D01*
X118948961Y-115957568D01*
D13*
X147340000Y-126920000D02*
X147340000Y-120950000D01*
X147340000Y-120950000D02*
X139720000Y-120950000D01*
X139720000Y-120950000D02*
X139720000Y-126920000D01*
X139720000Y-126920000D02*
X147340000Y-126920000D01*
X144030000Y-126910000D02*
X144030000Y-126160000D01*
X144030000Y-126160000D02*
X143030000Y-126160000D01*
X143030000Y-126160000D02*
X143030000Y-126910000D01*
X143030000Y-126910000D02*
X144030000Y-126910000D01*
X147330000Y-126910000D02*
X147330000Y-126160000D01*
X147330000Y-126160000D02*
X145530000Y-126160000D01*
X145530000Y-126160000D02*
X145530000Y-126910000D01*
X145530000Y-126910000D02*
X147330000Y-126910000D01*
X141530000Y-126910000D02*
X141530000Y-126160000D01*
X141530000Y-126160000D02*
X139730000Y-126160000D01*
X139730000Y-126160000D02*
X139730000Y-126910000D01*
X139730000Y-126910000D02*
X141530000Y-126910000D01*
X147330000Y-124660000D02*
X146580000Y-124660000D01*
X146580000Y-124660000D02*
X146580000Y-121710000D01*
X146580000Y-121710000D02*
X143530000Y-121710000D01*
X139730000Y-124660000D02*
X140480000Y-124660000D01*
X140480000Y-124660000D02*
X140480000Y-121710000D01*
X140480000Y-121710000D02*
X143530000Y-121710000D01*
X146380000Y-127210000D02*
X147630000Y-127210000D01*
X147630000Y-127210000D02*
X147630000Y-125960000D01*
X144090000Y-105940000D02*
X144090000Y-102340000D01*
X143362795Y-101815816D02*
G75*
G02*
X144090000Y-102340000I-1122795J-2324184D01*
G01*
X141141629Y-101784543D02*
G75*
G03*
X139890000Y-103030000I1098371J-2355457D01*
G01*
X141136158Y-106507199D02*
G75*
G02*
X139890000Y-105280000I1103842J2367199D01*
G01*
X143362795Y-106464184D02*
G75*
G03*
X144090000Y-105940000I-1122795J2324184D01*
G01*
X167843200Y-110337600D02*
X167843200Y-103073200D01*
X175082200Y-110337600D02*
X175080000Y-103073200D01*
X175080000Y-103073200D02*
X167843200Y-103073200D01*
X175056800Y-110337600D02*
X167843200Y-110337600D01*
X145470000Y-102340000D02*
X145470000Y-105940000D01*
X146197205Y-106464184D02*
G75*
G02*
X145470000Y-105940000I1122795J2324184D01*
G01*
X148418371Y-106495457D02*
G75*
G03*
X149670000Y-105250000I-1098371J2355457D01*
G01*
X148423842Y-101772801D02*
G75*
G02*
X149670000Y-103000000I-1103842J-2367199D01*
G01*
X146197205Y-101815816D02*
G75*
G03*
X145470000Y-102340000I1122795J-2324184D01*
G01*
X156790000Y-95780000D02*
X156790000Y-92180000D01*
X156062795Y-91655816D02*
G75*
G02*
X156790000Y-92180000I-1122795J-2324184D01*
G01*
X153841629Y-91624543D02*
G75*
G03*
X152590000Y-92870000I1098371J-2355457D01*
G01*
X153836158Y-96347199D02*
G75*
G02*
X152590000Y-95120000I1103842J2367199D01*
G01*
X156062795Y-96304184D02*
G75*
G03*
X156790000Y-95780000I-1122795J2324184D01*
G01*
X156790000Y-86890000D02*
X156790000Y-83290000D01*
X156062795Y-82765816D02*
G75*
G02*
X156790000Y-83290000I-1122795J-2324184D01*
G01*
X153841629Y-82734543D02*
G75*
G03*
X152590000Y-83980000I1098371J-2355457D01*
G01*
X153836158Y-87457199D02*
G75*
G02*
X152590000Y-86230000I1103842J2367199D01*
G01*
X156062795Y-87414184D02*
G75*
G03*
X156790000Y-86890000I-1122795J2324184D01*
G01*
X156790000Y-78000000D02*
X156790000Y-74400000D01*
X156062795Y-73875816D02*
G75*
G02*
X156790000Y-74400000I-1122795J-2324184D01*
G01*
X153841629Y-73844543D02*
G75*
G03*
X152590000Y-75090000I1098371J-2355457D01*
G01*
X153836158Y-78567199D02*
G75*
G02*
X152590000Y-77340000I1103842J2367199D01*
G01*
X156062795Y-78524184D02*
G75*
G03*
X156790000Y-78000000I-1122795J2324184D01*
G01*
X156790000Y-69110000D02*
X156790000Y-65510000D01*
X156062795Y-64985816D02*
G75*
G02*
X156790000Y-65510000I-1122795J-2324184D01*
G01*
X153841629Y-64954543D02*
G75*
G03*
X152590000Y-66200000I1098371J-2355457D01*
G01*
X153836158Y-69677199D02*
G75*
G02*
X152590000Y-68450000I1103842J2367199D01*
G01*
X156062795Y-69634184D02*
G75*
G03*
X156790000Y-69110000I-1122795J2324184D01*
G01*
X137740000Y-95780000D02*
X137740000Y-92180000D01*
X137012795Y-91655816D02*
G75*
G02*
X137740000Y-92180000I-1122795J-2324184D01*
G01*
X134791629Y-91624543D02*
G75*
G03*
X133540000Y-92870000I1098371J-2355457D01*
G01*
X134786158Y-96347199D02*
G75*
G02*
X133540000Y-95120000I1103842J2367199D01*
G01*
X137012795Y-96304184D02*
G75*
G03*
X137740000Y-95780000I-1122795J2324184D01*
G01*
X137740000Y-86890000D02*
X137740000Y-83290000D01*
X137012795Y-82765816D02*
G75*
G02*
X137740000Y-83290000I-1122795J-2324184D01*
G01*
X134791629Y-82734543D02*
G75*
G03*
X133540000Y-83980000I1098371J-2355457D01*
G01*
X134786158Y-87457199D02*
G75*
G02*
X133540000Y-86230000I1103842J2367199D01*
G01*
X137012795Y-87414184D02*
G75*
G03*
X137740000Y-86890000I-1122795J2324184D01*
G01*
X137740000Y-78000000D02*
X137740000Y-74400000D01*
X137012795Y-73875816D02*
G75*
G02*
X137740000Y-74400000I-1122795J-2324184D01*
G01*
X134791629Y-73844543D02*
G75*
G03*
X133540000Y-75090000I1098371J-2355457D01*
G01*
X134786158Y-78567199D02*
G75*
G02*
X133540000Y-77340000I1103842J2367199D01*
G01*
X137012795Y-78524184D02*
G75*
G03*
X137740000Y-78000000I-1122795J2324184D01*
G01*
X137740000Y-69110000D02*
X137740000Y-65510000D01*
X137012795Y-64985816D02*
G75*
G02*
X137740000Y-65510000I-1122795J-2324184D01*
G01*
X134791629Y-64954543D02*
G75*
G03*
X133540000Y-66200000I1098371J-2355457D01*
G01*
X134786158Y-69677199D02*
G75*
G02*
X133540000Y-68450000I1103842J2367199D01*
G01*
X137012795Y-69634184D02*
G75*
G03*
X137740000Y-69110000I-1122795J2324184D01*
G01*
X117050000Y-83510000D02*
X115800000Y-83510000D01*
X117050000Y-84760000D02*
X117050000Y-83510000D01*
X111550000Y-93160000D02*
X111550000Y-88860000D01*
X114500000Y-93160000D02*
X111550000Y-93160000D01*
X114500000Y-93910000D02*
X114500000Y-93160000D01*
X111550000Y-84560000D02*
X111550000Y-88860000D01*
X114500000Y-84560000D02*
X111550000Y-84560000D01*
X114500000Y-83810000D02*
X114500000Y-84560000D01*
X116750000Y-93910000D02*
X116750000Y-92110000D01*
X116000000Y-93910000D02*
X116750000Y-93910000D01*
X116000000Y-92110000D02*
X116000000Y-93910000D01*
X116750000Y-92110000D02*
X116000000Y-92110000D01*
X116750000Y-85610000D02*
X116750000Y-83810000D01*
X116000000Y-85610000D02*
X116750000Y-85610000D01*
X116000000Y-83810000D02*
X116000000Y-85610000D01*
X116750000Y-83810000D02*
X116000000Y-83810000D01*
X116750000Y-90610000D02*
X116750000Y-87110000D01*
X116000000Y-90610000D02*
X116750000Y-90610000D01*
X116000000Y-87110000D02*
X116000000Y-90610000D01*
X116750000Y-87110000D02*
X116000000Y-87110000D01*
X116760000Y-93920000D02*
X116760000Y-83800000D01*
X110790000Y-93920000D02*
X116760000Y-93920000D01*
X110790000Y-83800000D02*
X110790000Y-93920000D01*
X116760000Y-83800000D02*
X110790000Y-83800000D01*
X206810000Y-109950000D02*
X206810000Y-116190000D01*
X196810000Y-109950000D02*
X196810000Y-116190000D01*
X196810000Y-116190000D02*
X206810000Y-116190000D01*
X196810000Y-109950000D02*
X206810000Y-109950000D01*
X196810000Y-109450000D02*
X196810000Y-116690000D01*
X191810000Y-109450000D02*
X191810000Y-116690000D01*
X191810000Y-116690000D02*
X196810000Y-116690000D01*
X191810000Y-109450000D02*
X196810000Y-109450000D01*
X191810000Y-108200000D02*
X191810000Y-117940000D01*
X184520000Y-108200000D02*
X184520000Y-117940000D01*
X184520000Y-117940000D02*
X191810000Y-117940000D01*
X184520000Y-108200000D02*
X191810000Y-108200000D01*
X129000000Y-65810000D02*
X129000000Y-66140000D01*
X129000000Y-66140000D02*
X122460000Y-66140000D01*
X122460000Y-66140000D02*
X122460000Y-65810000D01*
X129000000Y-63730000D02*
X129000000Y-63400000D01*
X129000000Y-63400000D02*
X122460000Y-63400000D01*
X122460000Y-63400000D02*
X122460000Y-63730000D01*
X176570000Y-92750000D02*
G75*
G03*
X176570000Y-92750000I-5120000J0D01*
G01*
X174260000Y-64710000D02*
X173010000Y-64710000D01*
X173010000Y-64710000D02*
X173010000Y-74990000D01*
X173010000Y-74990000D02*
X177510000Y-74990000D01*
X177510000Y-74990000D02*
X177510000Y-64710000D01*
X177510000Y-64710000D02*
X176260000Y-64710000D01*
X176260000Y-64710000D02*
G75*
G02*
X174260000Y-64710000I-1000000J0D01*
G01*
X206810000Y-88360000D02*
X206810000Y-94600000D01*
X196810000Y-88360000D02*
X196810000Y-94600000D01*
X196810000Y-94600000D02*
X206810000Y-94600000D01*
X196810000Y-88360000D02*
X206810000Y-88360000D01*
X196810000Y-87860000D02*
X196810000Y-95100000D01*
X191810000Y-87860000D02*
X191810000Y-95100000D01*
X191810000Y-95100000D02*
X196810000Y-95100000D01*
X191810000Y-87860000D02*
X196810000Y-87860000D01*
X191810000Y-86610000D02*
X191810000Y-96350000D01*
X184520000Y-86610000D02*
X184520000Y-96350000D01*
X184520000Y-96350000D02*
X191810000Y-96350000D01*
X184520000Y-86610000D02*
X191810000Y-86610000D01*
X167100000Y-67080000D02*
X167100000Y-67410000D01*
X167100000Y-67410000D02*
X160560000Y-67410000D01*
X160560000Y-67410000D02*
X160560000Y-67080000D01*
X167100000Y-65000000D02*
X167100000Y-64670000D01*
X167100000Y-64670000D02*
X160560000Y-64670000D01*
X160560000Y-64670000D02*
X160560000Y-65000000D01*
X152002900Y-113260000D02*
X152002900Y-112930000D01*
X152002900Y-112930000D02*
X158542900Y-112930000D01*
X158542900Y-112930000D02*
X158542900Y-113260000D01*
X152002900Y-115340000D02*
X152002900Y-115670000D01*
X152002900Y-115670000D02*
X158542900Y-115670000D01*
X158542900Y-115670000D02*
X158542900Y-115340000D01*
X160560000Y-68810000D02*
X160560000Y-68480000D01*
X160560000Y-68480000D02*
X167100000Y-68480000D01*
X167100000Y-68480000D02*
X167100000Y-68810000D01*
X160560000Y-70890000D02*
X160560000Y-71220000D01*
X160560000Y-71220000D02*
X167100000Y-71220000D01*
X167100000Y-71220000D02*
X167100000Y-70890000D01*
X160560000Y-72620000D02*
X160560000Y-72290000D01*
X160560000Y-72290000D02*
X167100000Y-72290000D01*
X167100000Y-72290000D02*
X167100000Y-72620000D01*
X160560000Y-74700000D02*
X160560000Y-75030000D01*
X160560000Y-75030000D02*
X167100000Y-75030000D01*
X167100000Y-75030000D02*
X167100000Y-74700000D01*
X167100000Y-78510000D02*
X167100000Y-78840000D01*
X167100000Y-78840000D02*
X160560000Y-78840000D01*
X160560000Y-78840000D02*
X160560000Y-78510000D01*
X167100000Y-76430000D02*
X167100000Y-76100000D01*
X167100000Y-76100000D02*
X160560000Y-76100000D01*
X160560000Y-76100000D02*
X160560000Y-76430000D01*
X145820000Y-111030000D02*
X146150000Y-111030000D01*
X146150000Y-111030000D02*
X146150000Y-117570000D01*
X146150000Y-117570000D02*
X145820000Y-117570000D01*
X143740000Y-111030000D02*
X143410000Y-111030000D01*
X143410000Y-111030000D02*
X143410000Y-117570000D01*
X143410000Y-117570000D02*
X143740000Y-117570000D01*
X130580000Y-114840000D02*
X130910000Y-114840000D01*
X130910000Y-114840000D02*
X130910000Y-121380000D01*
X130910000Y-121380000D02*
X130580000Y-121380000D01*
X128500000Y-114840000D02*
X128170000Y-114840000D01*
X128170000Y-114840000D02*
X128170000Y-121380000D01*
X128170000Y-121380000D02*
X128500000Y-121380000D01*
X122460000Y-90400000D02*
X122460000Y-90070000D01*
X122460000Y-90070000D02*
X129000000Y-90070000D01*
X129000000Y-90070000D02*
X129000000Y-90400000D01*
X122460000Y-92480000D02*
X122460000Y-92810000D01*
X122460000Y-92810000D02*
X129000000Y-92810000D01*
X129000000Y-92810000D02*
X129000000Y-92480000D01*
X122460000Y-81510000D02*
X122460000Y-81180000D01*
X122460000Y-81180000D02*
X129000000Y-81180000D01*
X129000000Y-81180000D02*
X129000000Y-81510000D01*
X122460000Y-83590000D02*
X122460000Y-83920000D01*
X122460000Y-83920000D02*
X129000000Y-83920000D01*
X129000000Y-83920000D02*
X129000000Y-83590000D01*
X122460000Y-72620000D02*
X122460000Y-72290000D01*
X122460000Y-72290000D02*
X129000000Y-72290000D01*
X129000000Y-72290000D02*
X129000000Y-72620000D01*
X122460000Y-74700000D02*
X122460000Y-75030000D01*
X122460000Y-75030000D02*
X129000000Y-75030000D01*
X129000000Y-75030000D02*
X129000000Y-74700000D01*
X122460000Y-67540000D02*
X122460000Y-67210000D01*
X122460000Y-67210000D02*
X129000000Y-67210000D01*
X129000000Y-67210000D02*
X129000000Y-67540000D01*
X122460000Y-69620000D02*
X122460000Y-69950000D01*
X122460000Y-69950000D02*
X129000000Y-69950000D01*
X129000000Y-69950000D02*
X129000000Y-69620000D01*
X130580000Y-103410000D02*
X130910000Y-103410000D01*
X130910000Y-103410000D02*
X130910000Y-109950000D01*
X130910000Y-109950000D02*
X130580000Y-109950000D01*
X128500000Y-103410000D02*
X128170000Y-103410000D01*
X128170000Y-103410000D02*
X128170000Y-109950000D01*
X128170000Y-109950000D02*
X128500000Y-109950000D01*
X122460000Y-98020000D02*
X122460000Y-97690000D01*
X122460000Y-97690000D02*
X129000000Y-97690000D01*
X129000000Y-97690000D02*
X129000000Y-98020000D01*
X122460000Y-100100000D02*
X122460000Y-100430000D01*
X122460000Y-100430000D02*
X129000000Y-100430000D01*
X129000000Y-100430000D02*
X129000000Y-100100000D01*
X102640000Y-102140000D02*
X102970000Y-102140000D01*
X102970000Y-102140000D02*
X102970000Y-108680000D01*
X102970000Y-108680000D02*
X102640000Y-108680000D01*
X100560000Y-102140000D02*
X100230000Y-102140000D01*
X100230000Y-102140000D02*
X100230000Y-108680000D01*
X100230000Y-108680000D02*
X100560000Y-108680000D01*
X102640000Y-69120000D02*
X102970000Y-69120000D01*
X102970000Y-69120000D02*
X102970000Y-75660000D01*
X102970000Y-75660000D02*
X102640000Y-75660000D01*
X100560000Y-69120000D02*
X100230000Y-69120000D01*
X100230000Y-69120000D02*
X100230000Y-75660000D01*
X100230000Y-75660000D02*
X100560000Y-75660000D01*
X167580000Y-127060000D02*
X170240000Y-127060000D01*
X167580000Y-124460000D02*
X167580000Y-127060000D01*
X170240000Y-124460000D02*
X170240000Y-127060000D01*
X167580000Y-124460000D02*
X170240000Y-124460000D01*
X167580000Y-123190000D02*
X167580000Y-121860000D01*
X167580000Y-121860000D02*
X168910000Y-121860000D01*
X98195000Y-99330000D02*
X98195000Y-78470000D01*
X98195000Y-78470000D02*
X107545000Y-78470000D01*
X107545000Y-78470000D02*
X107545000Y-99330000D01*
X107545000Y-99330000D02*
X98195000Y-99330000D01*
X107795000Y-99580000D02*
X107795000Y-97040000D01*
X107795000Y-99580000D02*
X105255000Y-99580000D01*
X105444000Y-106970000D02*
X105600000Y-106970000D01*
X107760000Y-106970000D02*
X107916000Y-106970000D01*
X105601392Y-103737665D02*
G75*
G03*
X105444484Y-106970000I1078608J-1672335D01*
G01*
X107758608Y-103737665D02*
G75*
G02*
X107915516Y-106970000I-1078608J-1672335D01*
G01*
X105600163Y-104368870D02*
G75*
G03*
X105600000Y-106450961I1079837J-1041130D01*
G01*
X107759837Y-104368870D02*
G75*
G02*
X107760000Y-106450961I-1079837J-1041130D01*
G01*
X105444000Y-73950000D02*
X105600000Y-73950000D01*
X107760000Y-73950000D02*
X107916000Y-73950000D01*
X105601392Y-70717665D02*
G75*
G03*
X105444484Y-73950000I1078608J-1672335D01*
G01*
X107758608Y-70717665D02*
G75*
G02*
X107915516Y-73950000I-1078608J-1672335D01*
G01*
X105600163Y-71348870D02*
G75*
G03*
X105600000Y-73430961I1079837J-1041130D01*
G01*
X107759837Y-71348870D02*
G75*
G02*
X107760000Y-73430961I-1079837J-1041130D01*
G01*
X173329000Y-78390000D02*
X172071000Y-78390000D01*
X173329000Y-76550000D02*
X172071000Y-76550000D01*
X177191000Y-61310000D02*
X178449000Y-61310000D01*
X177191000Y-63150000D02*
X178449000Y-63150000D01*
X149960000Y-98640000D02*
X139720000Y-98640000D01*
X149960000Y-94400000D02*
X139720000Y-94400000D01*
X149960000Y-98640000D02*
X149960000Y-94400000D01*
X139720000Y-98640000D02*
X139720000Y-94400000D01*
X149960000Y-89750000D02*
X139720000Y-89750000D01*
X149960000Y-85510000D02*
X139720000Y-85510000D01*
X149960000Y-89750000D02*
X149960000Y-85510000D01*
X139720000Y-89750000D02*
X139720000Y-85510000D01*
X149960000Y-80860000D02*
X139720000Y-80860000D01*
X149960000Y-76620000D02*
X139720000Y-76620000D01*
X149960000Y-80860000D02*
X149960000Y-76620000D01*
X139720000Y-80860000D02*
X139720000Y-76620000D01*
X149960000Y-71970000D02*
X139720000Y-71970000D01*
X149960000Y-67730000D02*
X139720000Y-67730000D01*
X149960000Y-71970000D02*
X149960000Y-67730000D01*
X139720000Y-71970000D02*
X139720000Y-67730000D01*
X141280000Y-115550000D02*
G75*
G03*
X141280000Y-115550000I-4120000J0D01*
G01*
X141240000Y-115550000D02*
X133080000Y-115550000D01*
X141240000Y-115590000D02*
X133080000Y-115590000D01*
X141240000Y-115630000D02*
X133080000Y-115630000D01*
X141239000Y-115670000D02*
X133081000Y-115670000D01*
X141237000Y-115710000D02*
X133083000Y-115710000D01*
X141236000Y-115750000D02*
X133084000Y-115750000D01*
X141234000Y-115790000D02*
X138200000Y-115790000D01*
X136120000Y-115790000D02*
X133086000Y-115790000D01*
X141231000Y-115830000D02*
X138200000Y-115830000D01*
X136120000Y-115830000D02*
X133089000Y-115830000D01*
X141228000Y-115870000D02*
X138200000Y-115870000D01*
X136120000Y-115870000D02*
X133092000Y-115870000D01*
X141225000Y-115910000D02*
X138200000Y-115910000D01*
X136120000Y-115910000D02*
X133095000Y-115910000D01*
X141221000Y-115950000D02*
X138200000Y-115950000D01*
X136120000Y-115950000D02*
X133099000Y-115950000D01*
X141217000Y-115990000D02*
X138200000Y-115990000D01*
X136120000Y-115990000D02*
X133103000Y-115990000D01*
X141212000Y-116030000D02*
X138200000Y-116030000D01*
X136120000Y-116030000D02*
X133108000Y-116030000D01*
X141208000Y-116070000D02*
X138200000Y-116070000D01*
X136120000Y-116070000D02*
X133112000Y-116070000D01*
X141202000Y-116110000D02*
X138200000Y-116110000D01*
X136120000Y-116110000D02*
X133118000Y-116110000D01*
X141197000Y-116150000D02*
X138200000Y-116150000D01*
X136120000Y-116150000D02*
X133123000Y-116150000D01*
X141190000Y-116190000D02*
X138200000Y-116190000D01*
X136120000Y-116190000D02*
X133130000Y-116190000D01*
X141184000Y-116230000D02*
X138200000Y-116230000D01*
X136120000Y-116230000D02*
X133136000Y-116230000D01*
X141177000Y-116271000D02*
X138200000Y-116271000D01*
X136120000Y-116271000D02*
X133143000Y-116271000D01*
X141170000Y-116311000D02*
X138200000Y-116311000D01*
X136120000Y-116311000D02*
X133150000Y-116311000D01*
X141162000Y-116351000D02*
X138200000Y-116351000D01*
X136120000Y-116351000D02*
X133158000Y-116351000D01*
X141154000Y-116391000D02*
X138200000Y-116391000D01*
X136120000Y-116391000D02*
X133166000Y-116391000D01*
X141145000Y-116431000D02*
X138200000Y-116431000D01*
X136120000Y-116431000D02*
X133175000Y-116431000D01*
X141136000Y-116471000D02*
X138200000Y-116471000D01*
X136120000Y-116471000D02*
X133184000Y-116471000D01*
X141127000Y-116511000D02*
X138200000Y-116511000D01*
X136120000Y-116511000D02*
X133193000Y-116511000D01*
X141117000Y-116551000D02*
X138200000Y-116551000D01*
X136120000Y-116551000D02*
X133203000Y-116551000D01*
X141107000Y-116591000D02*
X138200000Y-116591000D01*
X136120000Y-116591000D02*
X133213000Y-116591000D01*
X141096000Y-116631000D02*
X138200000Y-116631000D01*
X136120000Y-116631000D02*
X133224000Y-116631000D01*
X141085000Y-116671000D02*
X138200000Y-116671000D01*
X136120000Y-116671000D02*
X133235000Y-116671000D01*
X141074000Y-116711000D02*
X138200000Y-116711000D01*
X136120000Y-116711000D02*
X133246000Y-116711000D01*
X141062000Y-116751000D02*
X138200000Y-116751000D01*
X136120000Y-116751000D02*
X133258000Y-116751000D01*
X141049000Y-116791000D02*
X138200000Y-116791000D01*
X136120000Y-116791000D02*
X133271000Y-116791000D01*
X141037000Y-116831000D02*
X138200000Y-116831000D01*
X136120000Y-116831000D02*
X133283000Y-116831000D01*
X141023000Y-116871000D02*
X138200000Y-116871000D01*
X136120000Y-116871000D02*
X133297000Y-116871000D01*
X141010000Y-116911000D02*
X138200000Y-116911000D01*
X136120000Y-116911000D02*
X133310000Y-116911000D01*
X140995000Y-116951000D02*
X138200000Y-116951000D01*
X136120000Y-116951000D02*
X133325000Y-116951000D01*
X140981000Y-116991000D02*
X138200000Y-116991000D01*
X136120000Y-116991000D02*
X133339000Y-116991000D01*
X140965000Y-117031000D02*
X138200000Y-117031000D01*
X136120000Y-117031000D02*
X133355000Y-117031000D01*
X140950000Y-117071000D02*
X138200000Y-117071000D01*
X136120000Y-117071000D02*
X133370000Y-117071000D01*
X140934000Y-117111000D02*
X138200000Y-117111000D01*
X136120000Y-117111000D02*
X133386000Y-117111000D01*
X140917000Y-117151000D02*
X138200000Y-117151000D01*
X136120000Y-117151000D02*
X133403000Y-117151000D01*
X140900000Y-117191000D02*
X138200000Y-117191000D01*
X136120000Y-117191000D02*
X133420000Y-117191000D01*
X140882000Y-117231000D02*
X138200000Y-117231000D01*
X136120000Y-117231000D02*
X133438000Y-117231000D01*
X140864000Y-117271000D02*
X138200000Y-117271000D01*
X136120000Y-117271000D02*
X133456000Y-117271000D01*
X140846000Y-117311000D02*
X138200000Y-117311000D01*
X136120000Y-117311000D02*
X133474000Y-117311000D01*
X140826000Y-117351000D02*
X138200000Y-117351000D01*
X136120000Y-117351000D02*
X133494000Y-117351000D01*
X140807000Y-117391000D02*
X138200000Y-117391000D01*
X136120000Y-117391000D02*
X133513000Y-117391000D01*
X140787000Y-117431000D02*
X138200000Y-117431000D01*
X136120000Y-117431000D02*
X133533000Y-117431000D01*
X140766000Y-117471000D02*
X138200000Y-117471000D01*
X136120000Y-117471000D02*
X133554000Y-117471000D01*
X140744000Y-117511000D02*
X138200000Y-117511000D01*
X136120000Y-117511000D02*
X133576000Y-117511000D01*
X140722000Y-117551000D02*
X138200000Y-117551000D01*
X136120000Y-117551000D02*
X133598000Y-117551000D01*
X140700000Y-117591000D02*
X138200000Y-117591000D01*
X136120000Y-117591000D02*
X133620000Y-117591000D01*
X140677000Y-117631000D02*
X138200000Y-117631000D01*
X136120000Y-117631000D02*
X133643000Y-117631000D01*
X140653000Y-117671000D02*
X138200000Y-117671000D01*
X136120000Y-117671000D02*
X133667000Y-117671000D01*
X140629000Y-117711000D02*
X138200000Y-117711000D01*
X136120000Y-117711000D02*
X133691000Y-117711000D01*
X140604000Y-117751000D02*
X138200000Y-117751000D01*
X136120000Y-117751000D02*
X133716000Y-117751000D01*
X140578000Y-117791000D02*
X138200000Y-117791000D01*
X136120000Y-117791000D02*
X133742000Y-117791000D01*
X140552000Y-117831000D02*
X138200000Y-117831000D01*
X136120000Y-117831000D02*
X133768000Y-117831000D01*
X140525000Y-117871000D02*
X133795000Y-117871000D01*
X140498000Y-117911000D02*
X133822000Y-117911000D01*
X140469000Y-117951000D02*
X133851000Y-117951000D01*
X140440000Y-117991000D02*
X133880000Y-117991000D01*
X140410000Y-118031000D02*
X133910000Y-118031000D01*
X140380000Y-118071000D02*
X133940000Y-118071000D01*
X140349000Y-118111000D02*
X133971000Y-118111000D01*
X140316000Y-118151000D02*
X134004000Y-118151000D01*
X140284000Y-118191000D02*
X134036000Y-118191000D01*
X140250000Y-118231000D02*
X134070000Y-118231000D01*
X140215000Y-118271000D02*
X134105000Y-118271000D01*
X140179000Y-118311000D02*
X134141000Y-118311000D01*
X140143000Y-118351000D02*
X134177000Y-118351000D01*
X140105000Y-118391000D02*
X134215000Y-118391000D01*
X140067000Y-118431000D02*
X134253000Y-118431000D01*
X140027000Y-118471000D02*
X134293000Y-118471000D01*
X139986000Y-118511000D02*
X134334000Y-118511000D01*
X139944000Y-118551000D02*
X134376000Y-118551000D01*
X139901000Y-118591000D02*
X134419000Y-118591000D01*
X139857000Y-118631000D02*
X134463000Y-118631000D01*
X139811000Y-118671000D02*
X134509000Y-118671000D01*
X139764000Y-118711000D02*
X134556000Y-118711000D01*
X139716000Y-118751000D02*
X134604000Y-118751000D01*
X139665000Y-118791000D02*
X134655000Y-118791000D01*
X139614000Y-118831000D02*
X134706000Y-118831000D01*
X139560000Y-118871000D02*
X134760000Y-118871000D01*
X139505000Y-118911000D02*
X134815000Y-118911000D01*
X139447000Y-118951000D02*
X134873000Y-118951000D01*
X139388000Y-118991000D02*
X134932000Y-118991000D01*
X139326000Y-119031000D02*
X134994000Y-119031000D01*
X139262000Y-119071000D02*
X135058000Y-119071000D01*
X139194000Y-119111000D02*
X135126000Y-119111000D01*
X139124000Y-119151000D02*
X135196000Y-119151000D01*
X139050000Y-119191000D02*
X135270000Y-119191000D01*
X138973000Y-119231000D02*
X135347000Y-119231000D01*
X138891000Y-119271000D02*
X135429000Y-119271000D01*
X138805000Y-119311000D02*
X135515000Y-119311000D01*
X138712000Y-119351000D02*
X135608000Y-119351000D01*
X138613000Y-119391000D02*
X135707000Y-119391000D01*
X138506000Y-119431000D02*
X135814000Y-119431000D01*
X138389000Y-119471000D02*
X135931000Y-119471000D01*
X138258000Y-119511000D02*
X136062000Y-119511000D01*
X138108000Y-119551000D02*
X136212000Y-119551000D01*
X137928000Y-119591000D02*
X136392000Y-119591000D01*
X137693000Y-119631000D02*
X136627000Y-119631000D01*
X139475000Y-111140302D02*
X139475000Y-111940302D01*
X139875000Y-111540302D02*
X139075000Y-111540302D01*
X125190000Y-106660000D02*
G75*
G03*
X125190000Y-106660000I-3270000J0D01*
G01*
X125150000Y-106660000D02*
X118690000Y-106660000D01*
X125150000Y-106700000D02*
X118690000Y-106700000D01*
X125150000Y-106740000D02*
X118690000Y-106740000D01*
X125148000Y-106780000D02*
X118692000Y-106780000D01*
X125147000Y-106820000D02*
X118693000Y-106820000D01*
X125144000Y-106860000D02*
X118696000Y-106860000D01*
X125142000Y-106900000D02*
X122960000Y-106900000D01*
X120880000Y-106900000D02*
X118698000Y-106900000D01*
X125138000Y-106940000D02*
X122960000Y-106940000D01*
X120880000Y-106940000D02*
X118702000Y-106940000D01*
X125135000Y-106980000D02*
X122960000Y-106980000D01*
X120880000Y-106980000D02*
X118705000Y-106980000D01*
X125131000Y-107020000D02*
X122960000Y-107020000D01*
X120880000Y-107020000D02*
X118709000Y-107020000D01*
X125126000Y-107060000D02*
X122960000Y-107060000D01*
X120880000Y-107060000D02*
X118714000Y-107060000D01*
X125121000Y-107100000D02*
X122960000Y-107100000D01*
X120880000Y-107100000D02*
X118719000Y-107100000D01*
X125115000Y-107140000D02*
X122960000Y-107140000D01*
X120880000Y-107140000D02*
X118725000Y-107140000D01*
X125109000Y-107180000D02*
X122960000Y-107180000D01*
X120880000Y-107180000D02*
X118731000Y-107180000D01*
X125102000Y-107220000D02*
X122960000Y-107220000D01*
X120880000Y-107220000D02*
X118738000Y-107220000D01*
X125095000Y-107260000D02*
X122960000Y-107260000D01*
X120880000Y-107260000D02*
X118745000Y-107260000D01*
X125087000Y-107300000D02*
X122960000Y-107300000D01*
X120880000Y-107300000D02*
X118753000Y-107300000D01*
X125079000Y-107340000D02*
X122960000Y-107340000D01*
X120880000Y-107340000D02*
X118761000Y-107340000D01*
X125070000Y-107381000D02*
X122960000Y-107381000D01*
X120880000Y-107381000D02*
X118770000Y-107381000D01*
X125061000Y-107421000D02*
X122960000Y-107421000D01*
X120880000Y-107421000D02*
X118779000Y-107421000D01*
X125051000Y-107461000D02*
X122960000Y-107461000D01*
X120880000Y-107461000D02*
X118789000Y-107461000D01*
X125041000Y-107501000D02*
X122960000Y-107501000D01*
X120880000Y-107501000D02*
X118799000Y-107501000D01*
X125030000Y-107541000D02*
X122960000Y-107541000D01*
X120880000Y-107541000D02*
X118810000Y-107541000D01*
X125018000Y-107581000D02*
X122960000Y-107581000D01*
X120880000Y-107581000D02*
X118822000Y-107581000D01*
X125006000Y-107621000D02*
X122960000Y-107621000D01*
X120880000Y-107621000D02*
X118834000Y-107621000D01*
X124994000Y-107661000D02*
X122960000Y-107661000D01*
X120880000Y-107661000D02*
X118846000Y-107661000D01*
X124981000Y-107701000D02*
X122960000Y-107701000D01*
X120880000Y-107701000D02*
X118859000Y-107701000D01*
X124967000Y-107741000D02*
X122960000Y-107741000D01*
X120880000Y-107741000D02*
X118873000Y-107741000D01*
X124953000Y-107781000D02*
X122960000Y-107781000D01*
X120880000Y-107781000D02*
X118887000Y-107781000D01*
X124938000Y-107821000D02*
X122960000Y-107821000D01*
X120880000Y-107821000D02*
X118902000Y-107821000D01*
X124922000Y-107861000D02*
X122960000Y-107861000D01*
X120880000Y-107861000D02*
X118918000Y-107861000D01*
X124906000Y-107901000D02*
X122960000Y-107901000D01*
X120880000Y-107901000D02*
X118934000Y-107901000D01*
X124890000Y-107941000D02*
X122960000Y-107941000D01*
X120880000Y-107941000D02*
X118950000Y-107941000D01*
X124872000Y-107981000D02*
X122960000Y-107981000D01*
X120880000Y-107981000D02*
X118968000Y-107981000D01*
X124854000Y-108021000D02*
X122960000Y-108021000D01*
X120880000Y-108021000D02*
X118986000Y-108021000D01*
X124836000Y-108061000D02*
X122960000Y-108061000D01*
X120880000Y-108061000D02*
X119004000Y-108061000D01*
X124816000Y-108101000D02*
X122960000Y-108101000D01*
X120880000Y-108101000D02*
X119024000Y-108101000D01*
X124796000Y-108141000D02*
X122960000Y-108141000D01*
X120880000Y-108141000D02*
X119044000Y-108141000D01*
X124776000Y-108181000D02*
X122960000Y-108181000D01*
X120880000Y-108181000D02*
X119064000Y-108181000D01*
X124754000Y-108221000D02*
X122960000Y-108221000D01*
X120880000Y-108221000D02*
X119086000Y-108221000D01*
X124732000Y-108261000D02*
X122960000Y-108261000D01*
X120880000Y-108261000D02*
X119108000Y-108261000D01*
X124710000Y-108301000D02*
X122960000Y-108301000D01*
X120880000Y-108301000D02*
X119130000Y-108301000D01*
X124686000Y-108341000D02*
X122960000Y-108341000D01*
X120880000Y-108341000D02*
X119154000Y-108341000D01*
X124662000Y-108381000D02*
X122960000Y-108381000D01*
X120880000Y-108381000D02*
X119178000Y-108381000D01*
X124636000Y-108421000D02*
X122960000Y-108421000D01*
X120880000Y-108421000D02*
X119204000Y-108421000D01*
X124610000Y-108461000D02*
X122960000Y-108461000D01*
X120880000Y-108461000D02*
X119230000Y-108461000D01*
X124584000Y-108501000D02*
X122960000Y-108501000D01*
X120880000Y-108501000D02*
X119256000Y-108501000D01*
X124556000Y-108541000D02*
X122960000Y-108541000D01*
X120880000Y-108541000D02*
X119284000Y-108541000D01*
X124527000Y-108581000D02*
X122960000Y-108581000D01*
X120880000Y-108581000D02*
X119313000Y-108581000D01*
X124498000Y-108621000D02*
X122960000Y-108621000D01*
X120880000Y-108621000D02*
X119342000Y-108621000D01*
X124468000Y-108661000D02*
X122960000Y-108661000D01*
X120880000Y-108661000D02*
X119372000Y-108661000D01*
X124436000Y-108701000D02*
X122960000Y-108701000D01*
X120880000Y-108701000D02*
X119404000Y-108701000D01*
X124404000Y-108741000D02*
X122960000Y-108741000D01*
X120880000Y-108741000D02*
X119436000Y-108741000D01*
X124370000Y-108781000D02*
X122960000Y-108781000D01*
X120880000Y-108781000D02*
X119470000Y-108781000D01*
X124336000Y-108821000D02*
X122960000Y-108821000D01*
X120880000Y-108821000D02*
X119504000Y-108821000D01*
X124300000Y-108861000D02*
X122960000Y-108861000D01*
X120880000Y-108861000D02*
X119540000Y-108861000D01*
X124263000Y-108901000D02*
X122960000Y-108901000D01*
X120880000Y-108901000D02*
X119577000Y-108901000D01*
X124225000Y-108941000D02*
X122960000Y-108941000D01*
X120880000Y-108941000D02*
X119615000Y-108941000D01*
X124185000Y-108981000D02*
X119655000Y-108981000D01*
X124144000Y-109021000D02*
X119696000Y-109021000D01*
X124102000Y-109061000D02*
X119738000Y-109061000D01*
X124057000Y-109101000D02*
X119783000Y-109101000D01*
X124012000Y-109141000D02*
X119828000Y-109141000D01*
X123964000Y-109181000D02*
X119876000Y-109181000D01*
X123915000Y-109221000D02*
X119925000Y-109221000D01*
X123864000Y-109261000D02*
X119976000Y-109261000D01*
X123810000Y-109301000D02*
X120030000Y-109301000D01*
X123754000Y-109341000D02*
X120086000Y-109341000D01*
X123696000Y-109381000D02*
X120144000Y-109381000D01*
X123634000Y-109421000D02*
X120206000Y-109421000D01*
X123570000Y-109461000D02*
X120270000Y-109461000D01*
X123501000Y-109501000D02*
X120339000Y-109501000D01*
X123429000Y-109541000D02*
X120411000Y-109541000D01*
X123352000Y-109581000D02*
X120488000Y-109581000D01*
X123270000Y-109621000D02*
X120570000Y-109621000D01*
X123182000Y-109661000D02*
X120658000Y-109661000D01*
X123085000Y-109701000D02*
X120755000Y-109701000D01*
X122979000Y-109741000D02*
X120861000Y-109741000D01*
X122860000Y-109781000D02*
X120980000Y-109781000D01*
X122722000Y-109821000D02*
X121118000Y-109821000D01*
X122553000Y-109861000D02*
X121287000Y-109861000D01*
X122322000Y-109901000D02*
X121518000Y-109901000D01*
X123759000Y-103159759D02*
X123759000Y-103789759D01*
X124074000Y-103474759D02*
X123444000Y-103474759D01*
X118420000Y-101620000D02*
G75*
G03*
X118420000Y-101620000I-4120000J0D01*
G01*
X110220000Y-101620000D02*
X118380000Y-101620000D01*
X110220000Y-101580000D02*
X118380000Y-101580000D01*
X110220000Y-101540000D02*
X118380000Y-101540000D01*
X110221000Y-101500000D02*
X118379000Y-101500000D01*
X110223000Y-101460000D02*
X118377000Y-101460000D01*
X110224000Y-101420000D02*
X118376000Y-101420000D01*
X110226000Y-101380000D02*
X113260000Y-101380000D01*
X115340000Y-101380000D02*
X118374000Y-101380000D01*
X110229000Y-101340000D02*
X113260000Y-101340000D01*
X115340000Y-101340000D02*
X118371000Y-101340000D01*
X110232000Y-101300000D02*
X113260000Y-101300000D01*
X115340000Y-101300000D02*
X118368000Y-101300000D01*
X110235000Y-101260000D02*
X113260000Y-101260000D01*
X115340000Y-101260000D02*
X118365000Y-101260000D01*
X110239000Y-101220000D02*
X113260000Y-101220000D01*
X115340000Y-101220000D02*
X118361000Y-101220000D01*
X110243000Y-101180000D02*
X113260000Y-101180000D01*
X115340000Y-101180000D02*
X118357000Y-101180000D01*
X110248000Y-101140000D02*
X113260000Y-101140000D01*
X115340000Y-101140000D02*
X118352000Y-101140000D01*
X110252000Y-101100000D02*
X113260000Y-101100000D01*
X115340000Y-101100000D02*
X118348000Y-101100000D01*
X110258000Y-101060000D02*
X113260000Y-101060000D01*
X115340000Y-101060000D02*
X118342000Y-101060000D01*
X110263000Y-101020000D02*
X113260000Y-101020000D01*
X115340000Y-101020000D02*
X118337000Y-101020000D01*
X110270000Y-100980000D02*
X113260000Y-100980000D01*
X115340000Y-100980000D02*
X118330000Y-100980000D01*
X110276000Y-100940000D02*
X113260000Y-100940000D01*
X115340000Y-100940000D02*
X118324000Y-100940000D01*
X110283000Y-100899000D02*
X113260000Y-100899000D01*
X115340000Y-100899000D02*
X118317000Y-100899000D01*
X110290000Y-100859000D02*
X113260000Y-100859000D01*
X115340000Y-100859000D02*
X118310000Y-100859000D01*
X110298000Y-100819000D02*
X113260000Y-100819000D01*
X115340000Y-100819000D02*
X118302000Y-100819000D01*
X110306000Y-100779000D02*
X113260000Y-100779000D01*
X115340000Y-100779000D02*
X118294000Y-100779000D01*
X110315000Y-100739000D02*
X113260000Y-100739000D01*
X115340000Y-100739000D02*
X118285000Y-100739000D01*
X110324000Y-100699000D02*
X113260000Y-100699000D01*
X115340000Y-100699000D02*
X118276000Y-100699000D01*
X110333000Y-100659000D02*
X113260000Y-100659000D01*
X115340000Y-100659000D02*
X118267000Y-100659000D01*
X110343000Y-100619000D02*
X113260000Y-100619000D01*
X115340000Y-100619000D02*
X118257000Y-100619000D01*
X110353000Y-100579000D02*
X113260000Y-100579000D01*
X115340000Y-100579000D02*
X118247000Y-100579000D01*
X110364000Y-100539000D02*
X113260000Y-100539000D01*
X115340000Y-100539000D02*
X118236000Y-100539000D01*
X110375000Y-100499000D02*
X113260000Y-100499000D01*
X115340000Y-100499000D02*
X118225000Y-100499000D01*
X110386000Y-100459000D02*
X113260000Y-100459000D01*
X115340000Y-100459000D02*
X118214000Y-100459000D01*
X110398000Y-100419000D02*
X113260000Y-100419000D01*
X115340000Y-100419000D02*
X118202000Y-100419000D01*
X110411000Y-100379000D02*
X113260000Y-100379000D01*
X115340000Y-100379000D02*
X118189000Y-100379000D01*
X110423000Y-100339000D02*
X113260000Y-100339000D01*
X115340000Y-100339000D02*
X118177000Y-100339000D01*
X110437000Y-100299000D02*
X113260000Y-100299000D01*
X115340000Y-100299000D02*
X118163000Y-100299000D01*
X110450000Y-100259000D02*
X113260000Y-100259000D01*
X115340000Y-100259000D02*
X118150000Y-100259000D01*
X110465000Y-100219000D02*
X113260000Y-100219000D01*
X115340000Y-100219000D02*
X118135000Y-100219000D01*
X110479000Y-100179000D02*
X113260000Y-100179000D01*
X115340000Y-100179000D02*
X118121000Y-100179000D01*
X110495000Y-100139000D02*
X113260000Y-100139000D01*
X115340000Y-100139000D02*
X118105000Y-100139000D01*
X110510000Y-100099000D02*
X113260000Y-100099000D01*
X115340000Y-100099000D02*
X118090000Y-100099000D01*
X110526000Y-100059000D02*
X113260000Y-100059000D01*
X115340000Y-100059000D02*
X118074000Y-100059000D01*
X110543000Y-100019000D02*
X113260000Y-100019000D01*
X115340000Y-100019000D02*
X118057000Y-100019000D01*
X110560000Y-99979000D02*
X113260000Y-99979000D01*
X115340000Y-99979000D02*
X118040000Y-99979000D01*
X110578000Y-99939000D02*
X113260000Y-99939000D01*
X115340000Y-99939000D02*
X118022000Y-99939000D01*
X110596000Y-99899000D02*
X113260000Y-99899000D01*
X115340000Y-99899000D02*
X118004000Y-99899000D01*
X110614000Y-99859000D02*
X113260000Y-99859000D01*
X115340000Y-99859000D02*
X117986000Y-99859000D01*
X110634000Y-99819000D02*
X113260000Y-99819000D01*
X115340000Y-99819000D02*
X117966000Y-99819000D01*
X110653000Y-99779000D02*
X113260000Y-99779000D01*
X115340000Y-99779000D02*
X117947000Y-99779000D01*
X110673000Y-99739000D02*
X113260000Y-99739000D01*
X115340000Y-99739000D02*
X117927000Y-99739000D01*
X110694000Y-99699000D02*
X113260000Y-99699000D01*
X115340000Y-99699000D02*
X117906000Y-99699000D01*
X110716000Y-99659000D02*
X113260000Y-99659000D01*
X115340000Y-99659000D02*
X117884000Y-99659000D01*
X110738000Y-99619000D02*
X113260000Y-99619000D01*
X115340000Y-99619000D02*
X117862000Y-99619000D01*
X110760000Y-99579000D02*
X113260000Y-99579000D01*
X115340000Y-99579000D02*
X117840000Y-99579000D01*
X110783000Y-99539000D02*
X113260000Y-99539000D01*
X115340000Y-99539000D02*
X117817000Y-99539000D01*
X110807000Y-99499000D02*
X113260000Y-99499000D01*
X115340000Y-99499000D02*
X117793000Y-99499000D01*
X110831000Y-99459000D02*
X113260000Y-99459000D01*
X115340000Y-99459000D02*
X117769000Y-99459000D01*
X110856000Y-99419000D02*
X113260000Y-99419000D01*
X115340000Y-99419000D02*
X117744000Y-99419000D01*
X110882000Y-99379000D02*
X113260000Y-99379000D01*
X115340000Y-99379000D02*
X117718000Y-99379000D01*
X110908000Y-99339000D02*
X113260000Y-99339000D01*
X115340000Y-99339000D02*
X117692000Y-99339000D01*
X110935000Y-99299000D02*
X117665000Y-99299000D01*
X110962000Y-99259000D02*
X117638000Y-99259000D01*
X110991000Y-99219000D02*
X117609000Y-99219000D01*
X111020000Y-99179000D02*
X117580000Y-99179000D01*
X111050000Y-99139000D02*
X117550000Y-99139000D01*
X111080000Y-99099000D02*
X117520000Y-99099000D01*
X111111000Y-99059000D02*
X117489000Y-99059000D01*
X111144000Y-99019000D02*
X117456000Y-99019000D01*
X111176000Y-98979000D02*
X117424000Y-98979000D01*
X111210000Y-98939000D02*
X117390000Y-98939000D01*
X111245000Y-98899000D02*
X117355000Y-98899000D01*
X111281000Y-98859000D02*
X117319000Y-98859000D01*
X111317000Y-98819000D02*
X117283000Y-98819000D01*
X111355000Y-98779000D02*
X117245000Y-98779000D01*
X111393000Y-98739000D02*
X117207000Y-98739000D01*
X111433000Y-98699000D02*
X117167000Y-98699000D01*
X111474000Y-98659000D02*
X117126000Y-98659000D01*
X111516000Y-98619000D02*
X117084000Y-98619000D01*
X111559000Y-98579000D02*
X117041000Y-98579000D01*
X111603000Y-98539000D02*
X116997000Y-98539000D01*
X111649000Y-98499000D02*
X116951000Y-98499000D01*
X111696000Y-98459000D02*
X116904000Y-98459000D01*
X111744000Y-98419000D02*
X116856000Y-98419000D01*
X111795000Y-98379000D02*
X116805000Y-98379000D01*
X111846000Y-98339000D02*
X116754000Y-98339000D01*
X111900000Y-98299000D02*
X116700000Y-98299000D01*
X111955000Y-98259000D02*
X116645000Y-98259000D01*
X112013000Y-98219000D02*
X116587000Y-98219000D01*
X112072000Y-98179000D02*
X116528000Y-98179000D01*
X112134000Y-98139000D02*
X116466000Y-98139000D01*
X112198000Y-98099000D02*
X116402000Y-98099000D01*
X112266000Y-98059000D02*
X116334000Y-98059000D01*
X112336000Y-98019000D02*
X116264000Y-98019000D01*
X112410000Y-97979000D02*
X116190000Y-97979000D01*
X112487000Y-97939000D02*
X116113000Y-97939000D01*
X112569000Y-97899000D02*
X116031000Y-97899000D01*
X112655000Y-97859000D02*
X115945000Y-97859000D01*
X112748000Y-97819000D02*
X115852000Y-97819000D01*
X112847000Y-97779000D02*
X115753000Y-97779000D01*
X112954000Y-97739000D02*
X115646000Y-97739000D01*
X113071000Y-97699000D02*
X115529000Y-97699000D01*
X113202000Y-97659000D02*
X115398000Y-97659000D01*
X113352000Y-97619000D02*
X115248000Y-97619000D01*
X113532000Y-97579000D02*
X115068000Y-97579000D01*
X113767000Y-97539000D02*
X114833000Y-97539000D01*
X111985000Y-106029698D02*
X111985000Y-105229698D01*
X111585000Y-105629698D02*
X112385000Y-105629698D01*
X118420000Y-76220000D02*
G75*
G03*
X118420000Y-76220000I-4120000J0D01*
G01*
X110220000Y-76220000D02*
X118380000Y-76220000D01*
X110220000Y-76180000D02*
X118380000Y-76180000D01*
X110220000Y-76140000D02*
X118380000Y-76140000D01*
X110221000Y-76100000D02*
X118379000Y-76100000D01*
X110223000Y-76060000D02*
X118377000Y-76060000D01*
X110224000Y-76020000D02*
X118376000Y-76020000D01*
X110226000Y-75980000D02*
X113260000Y-75980000D01*
X115340000Y-75980000D02*
X118374000Y-75980000D01*
X110229000Y-75940000D02*
X113260000Y-75940000D01*
X115340000Y-75940000D02*
X118371000Y-75940000D01*
X110232000Y-75900000D02*
X113260000Y-75900000D01*
X115340000Y-75900000D02*
X118368000Y-75900000D01*
X110235000Y-75860000D02*
X113260000Y-75860000D01*
X115340000Y-75860000D02*
X118365000Y-75860000D01*
X110239000Y-75820000D02*
X113260000Y-75820000D01*
X115340000Y-75820000D02*
X118361000Y-75820000D01*
X110243000Y-75780000D02*
X113260000Y-75780000D01*
X115340000Y-75780000D02*
X118357000Y-75780000D01*
X110248000Y-75740000D02*
X113260000Y-75740000D01*
X115340000Y-75740000D02*
X118352000Y-75740000D01*
X110252000Y-75700000D02*
X113260000Y-75700000D01*
X115340000Y-75700000D02*
X118348000Y-75700000D01*
X110258000Y-75660000D02*
X113260000Y-75660000D01*
X115340000Y-75660000D02*
X118342000Y-75660000D01*
X110263000Y-75620000D02*
X113260000Y-75620000D01*
X115340000Y-75620000D02*
X118337000Y-75620000D01*
X110270000Y-75580000D02*
X113260000Y-75580000D01*
X115340000Y-75580000D02*
X118330000Y-75580000D01*
X110276000Y-75540000D02*
X113260000Y-75540000D01*
X115340000Y-75540000D02*
X118324000Y-75540000D01*
X110283000Y-75499000D02*
X113260000Y-75499000D01*
X115340000Y-75499000D02*
X118317000Y-75499000D01*
X110290000Y-75459000D02*
X113260000Y-75459000D01*
X115340000Y-75459000D02*
X118310000Y-75459000D01*
X110298000Y-75419000D02*
X113260000Y-75419000D01*
X115340000Y-75419000D02*
X118302000Y-75419000D01*
X110306000Y-75379000D02*
X113260000Y-75379000D01*
X115340000Y-75379000D02*
X118294000Y-75379000D01*
X110315000Y-75339000D02*
X113260000Y-75339000D01*
X115340000Y-75339000D02*
X118285000Y-75339000D01*
X110324000Y-75299000D02*
X113260000Y-75299000D01*
X115340000Y-75299000D02*
X118276000Y-75299000D01*
X110333000Y-75259000D02*
X113260000Y-75259000D01*
X115340000Y-75259000D02*
X118267000Y-75259000D01*
X110343000Y-75219000D02*
X113260000Y-75219000D01*
X115340000Y-75219000D02*
X118257000Y-75219000D01*
X110353000Y-75179000D02*
X113260000Y-75179000D01*
X115340000Y-75179000D02*
X118247000Y-75179000D01*
X110364000Y-75139000D02*
X113260000Y-75139000D01*
X115340000Y-75139000D02*
X118236000Y-75139000D01*
X110375000Y-75099000D02*
X113260000Y-75099000D01*
X115340000Y-75099000D02*
X118225000Y-75099000D01*
X110386000Y-75059000D02*
X113260000Y-75059000D01*
X115340000Y-75059000D02*
X118214000Y-75059000D01*
X110398000Y-75019000D02*
X113260000Y-75019000D01*
X115340000Y-75019000D02*
X118202000Y-75019000D01*
X110411000Y-74979000D02*
X113260000Y-74979000D01*
X115340000Y-74979000D02*
X118189000Y-74979000D01*
X110423000Y-74939000D02*
X113260000Y-74939000D01*
X115340000Y-74939000D02*
X118177000Y-74939000D01*
X110437000Y-74899000D02*
X113260000Y-74899000D01*
X115340000Y-74899000D02*
X118163000Y-74899000D01*
X110450000Y-74859000D02*
X113260000Y-74859000D01*
X115340000Y-74859000D02*
X118150000Y-74859000D01*
X110465000Y-74819000D02*
X113260000Y-74819000D01*
X115340000Y-74819000D02*
X118135000Y-74819000D01*
X110479000Y-74779000D02*
X113260000Y-74779000D01*
X115340000Y-74779000D02*
X118121000Y-74779000D01*
X110495000Y-74739000D02*
X113260000Y-74739000D01*
X115340000Y-74739000D02*
X118105000Y-74739000D01*
X110510000Y-74699000D02*
X113260000Y-74699000D01*
X115340000Y-74699000D02*
X118090000Y-74699000D01*
X110526000Y-74659000D02*
X113260000Y-74659000D01*
X115340000Y-74659000D02*
X118074000Y-74659000D01*
X110543000Y-74619000D02*
X113260000Y-74619000D01*
X115340000Y-74619000D02*
X118057000Y-74619000D01*
X110560000Y-74579000D02*
X113260000Y-74579000D01*
X115340000Y-74579000D02*
X118040000Y-74579000D01*
X110578000Y-74539000D02*
X113260000Y-74539000D01*
X115340000Y-74539000D02*
X118022000Y-74539000D01*
X110596000Y-74499000D02*
X113260000Y-74499000D01*
X115340000Y-74499000D02*
X118004000Y-74499000D01*
X110614000Y-74459000D02*
X113260000Y-74459000D01*
X115340000Y-74459000D02*
X117986000Y-74459000D01*
X110634000Y-74419000D02*
X113260000Y-74419000D01*
X115340000Y-74419000D02*
X117966000Y-74419000D01*
X110653000Y-74379000D02*
X113260000Y-74379000D01*
X115340000Y-74379000D02*
X117947000Y-74379000D01*
X110673000Y-74339000D02*
X113260000Y-74339000D01*
X115340000Y-74339000D02*
X117927000Y-74339000D01*
X110694000Y-74299000D02*
X113260000Y-74299000D01*
X115340000Y-74299000D02*
X117906000Y-74299000D01*
X110716000Y-74259000D02*
X113260000Y-74259000D01*
X115340000Y-74259000D02*
X117884000Y-74259000D01*
X110738000Y-74219000D02*
X113260000Y-74219000D01*
X115340000Y-74219000D02*
X117862000Y-74219000D01*
X110760000Y-74179000D02*
X113260000Y-74179000D01*
X115340000Y-74179000D02*
X117840000Y-74179000D01*
X110783000Y-74139000D02*
X113260000Y-74139000D01*
X115340000Y-74139000D02*
X117817000Y-74139000D01*
X110807000Y-74099000D02*
X113260000Y-74099000D01*
X115340000Y-74099000D02*
X117793000Y-74099000D01*
X110831000Y-74059000D02*
X113260000Y-74059000D01*
X115340000Y-74059000D02*
X117769000Y-74059000D01*
X110856000Y-74019000D02*
X113260000Y-74019000D01*
X115340000Y-74019000D02*
X117744000Y-74019000D01*
X110882000Y-73979000D02*
X113260000Y-73979000D01*
X115340000Y-73979000D02*
X117718000Y-73979000D01*
X110908000Y-73939000D02*
X113260000Y-73939000D01*
X115340000Y-73939000D02*
X117692000Y-73939000D01*
X110935000Y-73899000D02*
X117665000Y-73899000D01*
X110962000Y-73859000D02*
X117638000Y-73859000D01*
X110991000Y-73819000D02*
X117609000Y-73819000D01*
X111020000Y-73779000D02*
X117580000Y-73779000D01*
X111050000Y-73739000D02*
X117550000Y-73739000D01*
X111080000Y-73699000D02*
X117520000Y-73699000D01*
X111111000Y-73659000D02*
X117489000Y-73659000D01*
X111144000Y-73619000D02*
X117456000Y-73619000D01*
X111176000Y-73579000D02*
X117424000Y-73579000D01*
X111210000Y-73539000D02*
X117390000Y-73539000D01*
X111245000Y-73499000D02*
X117355000Y-73499000D01*
X111281000Y-73459000D02*
X117319000Y-73459000D01*
X111317000Y-73419000D02*
X117283000Y-73419000D01*
X111355000Y-73379000D02*
X117245000Y-73379000D01*
X111393000Y-73339000D02*
X117207000Y-73339000D01*
X111433000Y-73299000D02*
X117167000Y-73299000D01*
X111474000Y-73259000D02*
X117126000Y-73259000D01*
X111516000Y-73219000D02*
X117084000Y-73219000D01*
X111559000Y-73179000D02*
X117041000Y-73179000D01*
X111603000Y-73139000D02*
X116997000Y-73139000D01*
X111649000Y-73099000D02*
X116951000Y-73099000D01*
X111696000Y-73059000D02*
X116904000Y-73059000D01*
X111744000Y-73019000D02*
X116856000Y-73019000D01*
X111795000Y-72979000D02*
X116805000Y-72979000D01*
X111846000Y-72939000D02*
X116754000Y-72939000D01*
X111900000Y-72899000D02*
X116700000Y-72899000D01*
X111955000Y-72859000D02*
X116645000Y-72859000D01*
X112013000Y-72819000D02*
X116587000Y-72819000D01*
X112072000Y-72779000D02*
X116528000Y-72779000D01*
X112134000Y-72739000D02*
X116466000Y-72739000D01*
X112198000Y-72699000D02*
X116402000Y-72699000D01*
X112266000Y-72659000D02*
X116334000Y-72659000D01*
X112336000Y-72619000D02*
X116264000Y-72619000D01*
X112410000Y-72579000D02*
X116190000Y-72579000D01*
X112487000Y-72539000D02*
X116113000Y-72539000D01*
X112569000Y-72499000D02*
X116031000Y-72499000D01*
X112655000Y-72459000D02*
X115945000Y-72459000D01*
X112748000Y-72419000D02*
X115852000Y-72419000D01*
X112847000Y-72379000D02*
X115753000Y-72379000D01*
X112954000Y-72339000D02*
X115646000Y-72339000D01*
X113071000Y-72299000D02*
X115529000Y-72299000D01*
X113202000Y-72259000D02*
X115398000Y-72259000D01*
X113352000Y-72219000D02*
X115248000Y-72219000D01*
X113532000Y-72179000D02*
X115068000Y-72179000D01*
X113767000Y-72139000D02*
X114833000Y-72139000D01*
X111985000Y-80629698D02*
X111985000Y-79829698D01*
X111585000Y-80229698D02*
X112385000Y-80229698D01*
D12*
X188047380Y-83518333D02*
X188761666Y-83518333D01*
X188904523Y-83565952D01*
X188999761Y-83661190D01*
X189047380Y-83804047D01*
X189047380Y-83899285D01*
X188142619Y-83089761D02*
X188095000Y-83042142D01*
X188047380Y-82946904D01*
X188047380Y-82708809D01*
X188095000Y-82613571D01*
X188142619Y-82565952D01*
X188237857Y-82518333D01*
X188333095Y-82518333D01*
X188475952Y-82565952D01*
X189047380Y-83137380D01*
X189047380Y-82518333D01*
X144446666Y-127722380D02*
X144446666Y-128436666D01*
X144399047Y-128579523D01*
X144303809Y-128674761D01*
X144160952Y-128722380D01*
X144065714Y-128722380D01*
X145399047Y-127722380D02*
X144922857Y-127722380D01*
X144875238Y-128198571D01*
X144922857Y-128150952D01*
X145018095Y-128103333D01*
X145256190Y-128103333D01*
X145351428Y-128150952D01*
X145399047Y-128198571D01*
X145446666Y-128293809D01*
X145446666Y-128531904D01*
X145399047Y-128627142D01*
X145351428Y-128674761D01*
X145256190Y-128722380D01*
X145018095Y-128722380D01*
X144922857Y-128674761D01*
X144875238Y-128627142D01*
X138597619Y-104225238D02*
X138550000Y-104320476D01*
X138454761Y-104415714D01*
X138311904Y-104558571D01*
X138264285Y-104653809D01*
X138264285Y-104749047D01*
X138502380Y-104701428D02*
X138454761Y-104796666D01*
X138359523Y-104891904D01*
X138169047Y-104939523D01*
X137835714Y-104939523D01*
X137645238Y-104891904D01*
X137550000Y-104796666D01*
X137502380Y-104701428D01*
X137502380Y-104510952D01*
X137550000Y-104415714D01*
X137645238Y-104320476D01*
X137835714Y-104272857D01*
X138169047Y-104272857D01*
X138359523Y-104320476D01*
X138454761Y-104415714D01*
X138502380Y-104510952D01*
X138502380Y-104701428D01*
X137502380Y-103368095D02*
X137502380Y-103844285D01*
X137978571Y-103891904D01*
X137930952Y-103844285D01*
X137883333Y-103749047D01*
X137883333Y-103510952D01*
X137930952Y-103415714D01*
X137978571Y-103368095D01*
X138073809Y-103320476D01*
X138311904Y-103320476D01*
X138407142Y-103368095D01*
X138454761Y-103415714D01*
X138502380Y-103510952D01*
X138502380Y-103749047D01*
X138454761Y-103844285D01*
X138407142Y-103891904D01*
X170869761Y-112212380D02*
X170536428Y-111736190D01*
X170298333Y-112212380D02*
X170298333Y-111212380D01*
X170679285Y-111212380D01*
X170774523Y-111260000D01*
X170822142Y-111307619D01*
X170869761Y-111402857D01*
X170869761Y-111545714D01*
X170822142Y-111640952D01*
X170774523Y-111688571D01*
X170679285Y-111736190D01*
X170298333Y-111736190D01*
X171155476Y-111212380D02*
X171488809Y-112212380D01*
X171822142Y-111212380D01*
X172060238Y-111212380D02*
X172679285Y-111212380D01*
X172345952Y-111593333D01*
X172488809Y-111593333D01*
X172584047Y-111640952D01*
X172631666Y-111688571D01*
X172679285Y-111783809D01*
X172679285Y-112021904D01*
X172631666Y-112117142D01*
X172584047Y-112164761D01*
X172488809Y-112212380D01*
X172203095Y-112212380D01*
X172107857Y-112164761D01*
X172060238Y-112117142D01*
X152057619Y-104721428D02*
X152010000Y-104816666D01*
X151914761Y-104911904D01*
X151771904Y-105054761D01*
X151724285Y-105150000D01*
X151724285Y-105245238D01*
X151962380Y-105197619D02*
X151914761Y-105292857D01*
X151819523Y-105388095D01*
X151629047Y-105435714D01*
X151295714Y-105435714D01*
X151105238Y-105388095D01*
X151010000Y-105292857D01*
X150962380Y-105197619D01*
X150962380Y-105007142D01*
X151010000Y-104911904D01*
X151105238Y-104816666D01*
X151295714Y-104769047D01*
X151629047Y-104769047D01*
X151819523Y-104816666D01*
X151914761Y-104911904D01*
X151962380Y-105007142D01*
X151962380Y-105197619D01*
X151962380Y-103816666D02*
X151962380Y-104388095D01*
X151962380Y-104102380D02*
X150962380Y-104102380D01*
X151105238Y-104197619D01*
X151200476Y-104292857D01*
X151248095Y-104388095D01*
X150962380Y-103197619D02*
X150962380Y-103102380D01*
X151010000Y-103007142D01*
X151057619Y-102959523D01*
X151152857Y-102911904D01*
X151343333Y-102864285D01*
X151581428Y-102864285D01*
X151771904Y-102911904D01*
X151867142Y-102959523D01*
X151914761Y-103007142D01*
X151962380Y-103102380D01*
X151962380Y-103197619D01*
X151914761Y-103292857D01*
X151867142Y-103340476D01*
X151771904Y-103388095D01*
X151581428Y-103435714D01*
X151343333Y-103435714D01*
X151152857Y-103388095D01*
X151057619Y-103340476D01*
X151010000Y-103292857D01*
X150962380Y-103197619D01*
X151297619Y-94065238D02*
X151250000Y-94160476D01*
X151154761Y-94255714D01*
X151011904Y-94398571D01*
X150964285Y-94493809D01*
X150964285Y-94589047D01*
X151202380Y-94541428D02*
X151154761Y-94636666D01*
X151059523Y-94731904D01*
X150869047Y-94779523D01*
X150535714Y-94779523D01*
X150345238Y-94731904D01*
X150250000Y-94636666D01*
X150202380Y-94541428D01*
X150202380Y-94350952D01*
X150250000Y-94255714D01*
X150345238Y-94160476D01*
X150535714Y-94112857D01*
X150869047Y-94112857D01*
X151059523Y-94160476D01*
X151154761Y-94255714D01*
X151202380Y-94350952D01*
X151202380Y-94541428D01*
X151202380Y-93636666D02*
X151202380Y-93446190D01*
X151154761Y-93350952D01*
X151107142Y-93303333D01*
X150964285Y-93208095D01*
X150773809Y-93160476D01*
X150392857Y-93160476D01*
X150297619Y-93208095D01*
X150250000Y-93255714D01*
X150202380Y-93350952D01*
X150202380Y-93541428D01*
X150250000Y-93636666D01*
X150297619Y-93684285D01*
X150392857Y-93731904D01*
X150630952Y-93731904D01*
X150726190Y-93684285D01*
X150773809Y-93636666D01*
X150821428Y-93541428D01*
X150821428Y-93350952D01*
X150773809Y-93255714D01*
X150726190Y-93208095D01*
X150630952Y-93160476D01*
X151297619Y-85175238D02*
X151250000Y-85270476D01*
X151154761Y-85365714D01*
X151011904Y-85508571D01*
X150964285Y-85603809D01*
X150964285Y-85699047D01*
X151202380Y-85651428D02*
X151154761Y-85746666D01*
X151059523Y-85841904D01*
X150869047Y-85889523D01*
X150535714Y-85889523D01*
X150345238Y-85841904D01*
X150250000Y-85746666D01*
X150202380Y-85651428D01*
X150202380Y-85460952D01*
X150250000Y-85365714D01*
X150345238Y-85270476D01*
X150535714Y-85222857D01*
X150869047Y-85222857D01*
X151059523Y-85270476D01*
X151154761Y-85365714D01*
X151202380Y-85460952D01*
X151202380Y-85651428D01*
X150630952Y-84651428D02*
X150583333Y-84746666D01*
X150535714Y-84794285D01*
X150440476Y-84841904D01*
X150392857Y-84841904D01*
X150297619Y-84794285D01*
X150250000Y-84746666D01*
X150202380Y-84651428D01*
X150202380Y-84460952D01*
X150250000Y-84365714D01*
X150297619Y-84318095D01*
X150392857Y-84270476D01*
X150440476Y-84270476D01*
X150535714Y-84318095D01*
X150583333Y-84365714D01*
X150630952Y-84460952D01*
X150630952Y-84651428D01*
X150678571Y-84746666D01*
X150726190Y-84794285D01*
X150821428Y-84841904D01*
X151011904Y-84841904D01*
X151107142Y-84794285D01*
X151154761Y-84746666D01*
X151202380Y-84651428D01*
X151202380Y-84460952D01*
X151154761Y-84365714D01*
X151107142Y-84318095D01*
X151011904Y-84270476D01*
X150821428Y-84270476D01*
X150726190Y-84318095D01*
X150678571Y-84365714D01*
X150630952Y-84460952D01*
X151297619Y-76285238D02*
X151250000Y-76380476D01*
X151154761Y-76475714D01*
X151011904Y-76618571D01*
X150964285Y-76713809D01*
X150964285Y-76809047D01*
X151202380Y-76761428D02*
X151154761Y-76856666D01*
X151059523Y-76951904D01*
X150869047Y-76999523D01*
X150535714Y-76999523D01*
X150345238Y-76951904D01*
X150250000Y-76856666D01*
X150202380Y-76761428D01*
X150202380Y-76570952D01*
X150250000Y-76475714D01*
X150345238Y-76380476D01*
X150535714Y-76332857D01*
X150869047Y-76332857D01*
X151059523Y-76380476D01*
X151154761Y-76475714D01*
X151202380Y-76570952D01*
X151202380Y-76761428D01*
X150202380Y-75999523D02*
X150202380Y-75332857D01*
X151202380Y-75761428D01*
X151297619Y-67395238D02*
X151250000Y-67490476D01*
X151154761Y-67585714D01*
X151011904Y-67728571D01*
X150964285Y-67823809D01*
X150964285Y-67919047D01*
X151202380Y-67871428D02*
X151154761Y-67966666D01*
X151059523Y-68061904D01*
X150869047Y-68109523D01*
X150535714Y-68109523D01*
X150345238Y-68061904D01*
X150250000Y-67966666D01*
X150202380Y-67871428D01*
X150202380Y-67680952D01*
X150250000Y-67585714D01*
X150345238Y-67490476D01*
X150535714Y-67442857D01*
X150869047Y-67442857D01*
X151059523Y-67490476D01*
X151154761Y-67585714D01*
X151202380Y-67680952D01*
X151202380Y-67871428D01*
X150202380Y-66585714D02*
X150202380Y-66776190D01*
X150250000Y-66871428D01*
X150297619Y-66919047D01*
X150440476Y-67014285D01*
X150630952Y-67061904D01*
X151011904Y-67061904D01*
X151107142Y-67014285D01*
X151154761Y-66966666D01*
X151202380Y-66871428D01*
X151202380Y-66680952D01*
X151154761Y-66585714D01*
X151107142Y-66538095D01*
X151011904Y-66490476D01*
X150773809Y-66490476D01*
X150678571Y-66538095D01*
X150630952Y-66585714D01*
X150583333Y-66680952D01*
X150583333Y-66871428D01*
X150630952Y-66966666D01*
X150678571Y-67014285D01*
X150773809Y-67061904D01*
X132247619Y-94065238D02*
X132200000Y-94160476D01*
X132104761Y-94255714D01*
X131961904Y-94398571D01*
X131914285Y-94493809D01*
X131914285Y-94589047D01*
X132152380Y-94541428D02*
X132104761Y-94636666D01*
X132009523Y-94731904D01*
X131819047Y-94779523D01*
X131485714Y-94779523D01*
X131295238Y-94731904D01*
X131200000Y-94636666D01*
X131152380Y-94541428D01*
X131152380Y-94350952D01*
X131200000Y-94255714D01*
X131295238Y-94160476D01*
X131485714Y-94112857D01*
X131819047Y-94112857D01*
X132009523Y-94160476D01*
X132104761Y-94255714D01*
X132152380Y-94350952D01*
X132152380Y-94541428D01*
X131485714Y-93255714D02*
X132152380Y-93255714D01*
X131104761Y-93493809D02*
X131819047Y-93731904D01*
X131819047Y-93112857D01*
X132247619Y-85175238D02*
X132200000Y-85270476D01*
X132104761Y-85365714D01*
X131961904Y-85508571D01*
X131914285Y-85603809D01*
X131914285Y-85699047D01*
X132152380Y-85651428D02*
X132104761Y-85746666D01*
X132009523Y-85841904D01*
X131819047Y-85889523D01*
X131485714Y-85889523D01*
X131295238Y-85841904D01*
X131200000Y-85746666D01*
X131152380Y-85651428D01*
X131152380Y-85460952D01*
X131200000Y-85365714D01*
X131295238Y-85270476D01*
X131485714Y-85222857D01*
X131819047Y-85222857D01*
X132009523Y-85270476D01*
X132104761Y-85365714D01*
X132152380Y-85460952D01*
X132152380Y-85651428D01*
X131152380Y-84889523D02*
X131152380Y-84270476D01*
X131533333Y-84603809D01*
X131533333Y-84460952D01*
X131580952Y-84365714D01*
X131628571Y-84318095D01*
X131723809Y-84270476D01*
X131961904Y-84270476D01*
X132057142Y-84318095D01*
X132104761Y-84365714D01*
X132152380Y-84460952D01*
X132152380Y-84746666D01*
X132104761Y-84841904D01*
X132057142Y-84889523D01*
X132247619Y-76285238D02*
X132200000Y-76380476D01*
X132104761Y-76475714D01*
X131961904Y-76618571D01*
X131914285Y-76713809D01*
X131914285Y-76809047D01*
X132152380Y-76761428D02*
X132104761Y-76856666D01*
X132009523Y-76951904D01*
X131819047Y-76999523D01*
X131485714Y-76999523D01*
X131295238Y-76951904D01*
X131200000Y-76856666D01*
X131152380Y-76761428D01*
X131152380Y-76570952D01*
X131200000Y-76475714D01*
X131295238Y-76380476D01*
X131485714Y-76332857D01*
X131819047Y-76332857D01*
X132009523Y-76380476D01*
X132104761Y-76475714D01*
X132152380Y-76570952D01*
X132152380Y-76761428D01*
X131247619Y-75951904D02*
X131200000Y-75904285D01*
X131152380Y-75809047D01*
X131152380Y-75570952D01*
X131200000Y-75475714D01*
X131247619Y-75428095D01*
X131342857Y-75380476D01*
X131438095Y-75380476D01*
X131580952Y-75428095D01*
X132152380Y-75999523D01*
X132152380Y-75380476D01*
X132247619Y-67395238D02*
X132200000Y-67490476D01*
X132104761Y-67585714D01*
X131961904Y-67728571D01*
X131914285Y-67823809D01*
X131914285Y-67919047D01*
X132152380Y-67871428D02*
X132104761Y-67966666D01*
X132009523Y-68061904D01*
X131819047Y-68109523D01*
X131485714Y-68109523D01*
X131295238Y-68061904D01*
X131200000Y-67966666D01*
X131152380Y-67871428D01*
X131152380Y-67680952D01*
X131200000Y-67585714D01*
X131295238Y-67490476D01*
X131485714Y-67442857D01*
X131819047Y-67442857D01*
X132009523Y-67490476D01*
X132104761Y-67585714D01*
X132152380Y-67680952D01*
X132152380Y-67871428D01*
X132152380Y-66490476D02*
X132152380Y-67061904D01*
X132152380Y-66776190D02*
X131152380Y-66776190D01*
X131295238Y-66871428D01*
X131390476Y-66966666D01*
X131438095Y-67061904D01*
X108672380Y-89193333D02*
X109386666Y-89193333D01*
X109529523Y-89240952D01*
X109624761Y-89336190D01*
X109672380Y-89479047D01*
X109672380Y-89574285D01*
X108672380Y-88812380D02*
X108672380Y-88193333D01*
X109053333Y-88526666D01*
X109053333Y-88383809D01*
X109100952Y-88288571D01*
X109148571Y-88240952D01*
X109243809Y-88193333D01*
X109481904Y-88193333D01*
X109577142Y-88240952D01*
X109624761Y-88288571D01*
X109672380Y-88383809D01*
X109672380Y-88669523D01*
X109624761Y-88764761D01*
X109577142Y-88812380D01*
X186094761Y-107522380D02*
X185761428Y-107046190D01*
X185523333Y-107522380D02*
X185523333Y-106522380D01*
X185904285Y-106522380D01*
X185999523Y-106570000D01*
X186047142Y-106617619D01*
X186094761Y-106712857D01*
X186094761Y-106855714D01*
X186047142Y-106950952D01*
X185999523Y-106998571D01*
X185904285Y-107046190D01*
X185523333Y-107046190D01*
X186380476Y-106522380D02*
X186713809Y-107522380D01*
X187047142Y-106522380D01*
X187904285Y-107522380D02*
X187332857Y-107522380D01*
X187618571Y-107522380D02*
X187618571Y-106522380D01*
X187523333Y-106665238D01*
X187428095Y-106760476D01*
X187332857Y-106808095D01*
X119213333Y-65222380D02*
X118880000Y-64746190D01*
X118641904Y-65222380D02*
X118641904Y-64222380D01*
X119022857Y-64222380D01*
X119118095Y-64270000D01*
X119165714Y-64317619D01*
X119213333Y-64412857D01*
X119213333Y-64555714D01*
X119165714Y-64650952D01*
X119118095Y-64698571D01*
X119022857Y-64746190D01*
X118641904Y-64746190D01*
X120118095Y-64222380D02*
X119641904Y-64222380D01*
X119594285Y-64698571D01*
X119641904Y-64650952D01*
X119737142Y-64603333D01*
X119975238Y-64603333D01*
X120070476Y-64650952D01*
X120118095Y-64698571D01*
X120165714Y-64793809D01*
X120165714Y-65031904D01*
X120118095Y-65127142D01*
X120070476Y-65174761D01*
X119975238Y-65222380D01*
X119737142Y-65222380D01*
X119641904Y-65174761D01*
X119594285Y-65127142D01*
X165557142Y-93392857D02*
X165604761Y-93440476D01*
X165652380Y-93583333D01*
X165652380Y-93678571D01*
X165604761Y-93821428D01*
X165509523Y-93916666D01*
X165414285Y-93964285D01*
X165223809Y-94011904D01*
X165080952Y-94011904D01*
X164890476Y-93964285D01*
X164795238Y-93916666D01*
X164700000Y-93821428D01*
X164652380Y-93678571D01*
X164652380Y-93583333D01*
X164700000Y-93440476D01*
X164747619Y-93392857D01*
X165652380Y-92440476D02*
X165652380Y-93011904D01*
X165652380Y-92726190D02*
X164652380Y-92726190D01*
X164795238Y-92821428D01*
X164890476Y-92916666D01*
X164938095Y-93011904D01*
X165652380Y-91488095D02*
X165652380Y-92059523D01*
X165652380Y-91773809D02*
X164652380Y-91773809D01*
X164795238Y-91869047D01*
X164890476Y-91964285D01*
X164938095Y-92059523D01*
X170688095Y-62952380D02*
X170688095Y-63761904D01*
X170735714Y-63857142D01*
X170783333Y-63904761D01*
X170878571Y-63952380D01*
X171069047Y-63952380D01*
X171164285Y-63904761D01*
X171211904Y-63857142D01*
X171259523Y-63761904D01*
X171259523Y-62952380D01*
X172259523Y-63952380D02*
X171688095Y-63952380D01*
X171973809Y-63952380D02*
X171973809Y-62952380D01*
X171878571Y-63095238D01*
X171783333Y-63190476D01*
X171688095Y-63238095D01*
X186094761Y-85932380D02*
X185761428Y-85456190D01*
X185523333Y-85932380D02*
X185523333Y-84932380D01*
X185904285Y-84932380D01*
X185999523Y-84980000D01*
X186047142Y-85027619D01*
X186094761Y-85122857D01*
X186094761Y-85265714D01*
X186047142Y-85360952D01*
X185999523Y-85408571D01*
X185904285Y-85456190D01*
X185523333Y-85456190D01*
X186380476Y-84932380D02*
X186713809Y-85932380D01*
X187047142Y-84932380D01*
X187332857Y-85027619D02*
X187380476Y-84980000D01*
X187475714Y-84932380D01*
X187713809Y-84932380D01*
X187809047Y-84980000D01*
X187856666Y-85027619D01*
X187904285Y-85122857D01*
X187904285Y-85218095D01*
X187856666Y-85360952D01*
X187285238Y-85932380D01*
X187904285Y-85932380D01*
X163187142Y-63952380D02*
X162853809Y-63476190D01*
X162615714Y-63952380D02*
X162615714Y-62952380D01*
X162996666Y-62952380D01*
X163091904Y-63000000D01*
X163139523Y-63047619D01*
X163187142Y-63142857D01*
X163187142Y-63285714D01*
X163139523Y-63380952D01*
X163091904Y-63428571D01*
X162996666Y-63476190D01*
X162615714Y-63476190D01*
X164139523Y-63952380D02*
X163568095Y-63952380D01*
X163853809Y-63952380D02*
X163853809Y-62952380D01*
X163758571Y-63095238D01*
X163663333Y-63190476D01*
X163568095Y-63238095D01*
X164996666Y-62952380D02*
X164806190Y-62952380D01*
X164710952Y-63000000D01*
X164663333Y-63047619D01*
X164568095Y-63190476D01*
X164520476Y-63380952D01*
X164520476Y-63761904D01*
X164568095Y-63857142D01*
X164615714Y-63904761D01*
X164710952Y-63952380D01*
X164901428Y-63952380D01*
X164996666Y-63904761D01*
X165044285Y-63857142D01*
X165091904Y-63761904D01*
X165091904Y-63523809D01*
X165044285Y-63428571D01*
X164996666Y-63380952D01*
X164901428Y-63333333D01*
X164710952Y-63333333D01*
X164615714Y-63380952D01*
X164568095Y-63428571D01*
X164520476Y-63523809D01*
X154630042Y-112382380D02*
X154296709Y-111906190D01*
X154058614Y-112382380D02*
X154058614Y-111382380D01*
X154439566Y-111382380D01*
X154534804Y-111430000D01*
X154582423Y-111477619D01*
X154630042Y-111572857D01*
X154630042Y-111715714D01*
X154582423Y-111810952D01*
X154534804Y-111858571D01*
X154439566Y-111906190D01*
X154058614Y-111906190D01*
X155582423Y-112382380D02*
X155010995Y-112382380D01*
X155296709Y-112382380D02*
X155296709Y-111382380D01*
X155201471Y-111525238D01*
X155106233Y-111620476D01*
X155010995Y-111668095D01*
X156487185Y-111382380D02*
X156010995Y-111382380D01*
X155963376Y-111858571D01*
X156010995Y-111810952D01*
X156106233Y-111763333D01*
X156344328Y-111763333D01*
X156439566Y-111810952D01*
X156487185Y-111858571D01*
X156534804Y-111953809D01*
X156534804Y-112191904D01*
X156487185Y-112287142D01*
X156439566Y-112334761D01*
X156344328Y-112382380D01*
X156106233Y-112382380D01*
X156010995Y-112334761D01*
X155963376Y-112287142D01*
X163017142Y-72334380D02*
X162683809Y-71858190D01*
X162445714Y-72334380D02*
X162445714Y-71334380D01*
X162826666Y-71334380D01*
X162921904Y-71382000D01*
X162969523Y-71429619D01*
X163017142Y-71524857D01*
X163017142Y-71667714D01*
X162969523Y-71762952D01*
X162921904Y-71810571D01*
X162826666Y-71858190D01*
X162445714Y-71858190D01*
X163969523Y-72334380D02*
X163398095Y-72334380D01*
X163683809Y-72334380D02*
X163683809Y-71334380D01*
X163588571Y-71477238D01*
X163493333Y-71572476D01*
X163398095Y-71620095D01*
X164826666Y-71667714D02*
X164826666Y-72334380D01*
X164588571Y-71286761D02*
X164350476Y-72001047D01*
X164969523Y-72001047D01*
X163017142Y-76144380D02*
X162683809Y-75668190D01*
X162445714Y-76144380D02*
X162445714Y-75144380D01*
X162826666Y-75144380D01*
X162921904Y-75192000D01*
X162969523Y-75239619D01*
X163017142Y-75334857D01*
X163017142Y-75477714D01*
X162969523Y-75572952D01*
X162921904Y-75620571D01*
X162826666Y-75668190D01*
X162445714Y-75668190D01*
X163969523Y-76144380D02*
X163398095Y-76144380D01*
X163683809Y-76144380D02*
X163683809Y-75144380D01*
X163588571Y-75287238D01*
X163493333Y-75382476D01*
X163398095Y-75430095D01*
X164302857Y-75144380D02*
X164921904Y-75144380D01*
X164588571Y-75525333D01*
X164731428Y-75525333D01*
X164826666Y-75572952D01*
X164874285Y-75620571D01*
X164921904Y-75715809D01*
X164921904Y-75953904D01*
X164874285Y-76049142D01*
X164826666Y-76096761D01*
X164731428Y-76144380D01*
X164445714Y-76144380D01*
X164350476Y-76096761D01*
X164302857Y-76049142D01*
X163187142Y-80292380D02*
X162853809Y-79816190D01*
X162615714Y-80292380D02*
X162615714Y-79292380D01*
X162996666Y-79292380D01*
X163091904Y-79340000D01*
X163139523Y-79387619D01*
X163187142Y-79482857D01*
X163187142Y-79625714D01*
X163139523Y-79720952D01*
X163091904Y-79768571D01*
X162996666Y-79816190D01*
X162615714Y-79816190D01*
X164139523Y-80292380D02*
X163568095Y-80292380D01*
X163853809Y-80292380D02*
X163853809Y-79292380D01*
X163758571Y-79435238D01*
X163663333Y-79530476D01*
X163568095Y-79578095D01*
X164520476Y-79387619D02*
X164568095Y-79340000D01*
X164663333Y-79292380D01*
X164901428Y-79292380D01*
X164996666Y-79340000D01*
X165044285Y-79387619D01*
X165091904Y-79482857D01*
X165091904Y-79578095D01*
X165044285Y-79720952D01*
X164472857Y-80292380D01*
X165091904Y-80292380D01*
X147602380Y-114942857D02*
X147126190Y-115276190D01*
X147602380Y-115514285D02*
X146602380Y-115514285D01*
X146602380Y-115133333D01*
X146650000Y-115038095D01*
X146697619Y-114990476D01*
X146792857Y-114942857D01*
X146935714Y-114942857D01*
X147030952Y-114990476D01*
X147078571Y-115038095D01*
X147126190Y-115133333D01*
X147126190Y-115514285D01*
X147602380Y-113990476D02*
X147602380Y-114561904D01*
X147602380Y-114276190D02*
X146602380Y-114276190D01*
X146745238Y-114371428D01*
X146840476Y-114466666D01*
X146888095Y-114561904D01*
X147602380Y-113038095D02*
X147602380Y-113609523D01*
X147602380Y-113323809D02*
X146602380Y-113323809D01*
X146745238Y-113419047D01*
X146840476Y-113514285D01*
X146888095Y-113609523D01*
X132362380Y-118752857D02*
X131886190Y-119086190D01*
X132362380Y-119324285D02*
X131362380Y-119324285D01*
X131362380Y-118943333D01*
X131410000Y-118848095D01*
X131457619Y-118800476D01*
X131552857Y-118752857D01*
X131695714Y-118752857D01*
X131790952Y-118800476D01*
X131838571Y-118848095D01*
X131886190Y-118943333D01*
X131886190Y-119324285D01*
X132362380Y-117800476D02*
X132362380Y-118371904D01*
X132362380Y-118086190D02*
X131362380Y-118086190D01*
X131505238Y-118181428D01*
X131600476Y-118276666D01*
X131648095Y-118371904D01*
X131362380Y-117181428D02*
X131362380Y-117086190D01*
X131410000Y-116990952D01*
X131457619Y-116943333D01*
X131552857Y-116895714D01*
X131743333Y-116848095D01*
X131981428Y-116848095D01*
X132171904Y-116895714D01*
X132267142Y-116943333D01*
X132314761Y-116990952D01*
X132362380Y-117086190D01*
X132362380Y-117181428D01*
X132314761Y-117276666D01*
X132267142Y-117324285D01*
X132171904Y-117371904D01*
X131981428Y-117419523D01*
X131743333Y-117419523D01*
X131552857Y-117371904D01*
X131457619Y-117324285D01*
X131410000Y-117276666D01*
X131362380Y-117181428D01*
X125563333Y-89522380D02*
X125230000Y-89046190D01*
X124991904Y-89522380D02*
X124991904Y-88522380D01*
X125372857Y-88522380D01*
X125468095Y-88570000D01*
X125515714Y-88617619D01*
X125563333Y-88712857D01*
X125563333Y-88855714D01*
X125515714Y-88950952D01*
X125468095Y-88998571D01*
X125372857Y-89046190D01*
X124991904Y-89046190D01*
X126039523Y-89522380D02*
X126230000Y-89522380D01*
X126325238Y-89474761D01*
X126372857Y-89427142D01*
X126468095Y-89284285D01*
X126515714Y-89093809D01*
X126515714Y-88712857D01*
X126468095Y-88617619D01*
X126420476Y-88570000D01*
X126325238Y-88522380D01*
X126134761Y-88522380D01*
X126039523Y-88570000D01*
X125991904Y-88617619D01*
X125944285Y-88712857D01*
X125944285Y-88950952D01*
X125991904Y-89046190D01*
X126039523Y-89093809D01*
X126134761Y-89141428D01*
X126325238Y-89141428D01*
X126420476Y-89093809D01*
X126468095Y-89046190D01*
X126515714Y-88950952D01*
X125563333Y-80632380D02*
X125230000Y-80156190D01*
X124991904Y-80632380D02*
X124991904Y-79632380D01*
X125372857Y-79632380D01*
X125468095Y-79680000D01*
X125515714Y-79727619D01*
X125563333Y-79822857D01*
X125563333Y-79965714D01*
X125515714Y-80060952D01*
X125468095Y-80108571D01*
X125372857Y-80156190D01*
X124991904Y-80156190D01*
X126134761Y-80060952D02*
X126039523Y-80013333D01*
X125991904Y-79965714D01*
X125944285Y-79870476D01*
X125944285Y-79822857D01*
X125991904Y-79727619D01*
X126039523Y-79680000D01*
X126134761Y-79632380D01*
X126325238Y-79632380D01*
X126420476Y-79680000D01*
X126468095Y-79727619D01*
X126515714Y-79822857D01*
X126515714Y-79870476D01*
X126468095Y-79965714D01*
X126420476Y-80013333D01*
X126325238Y-80060952D01*
X126134761Y-80060952D01*
X126039523Y-80108571D01*
X125991904Y-80156190D01*
X125944285Y-80251428D01*
X125944285Y-80441904D01*
X125991904Y-80537142D01*
X126039523Y-80584761D01*
X126134761Y-80632380D01*
X126325238Y-80632380D01*
X126420476Y-80584761D01*
X126468095Y-80537142D01*
X126515714Y-80441904D01*
X126515714Y-80251428D01*
X126468095Y-80156190D01*
X126420476Y-80108571D01*
X126325238Y-80060952D01*
X125563333Y-71742380D02*
X125230000Y-71266190D01*
X124991904Y-71742380D02*
X124991904Y-70742380D01*
X125372857Y-70742380D01*
X125468095Y-70790000D01*
X125515714Y-70837619D01*
X125563333Y-70932857D01*
X125563333Y-71075714D01*
X125515714Y-71170952D01*
X125468095Y-71218571D01*
X125372857Y-71266190D01*
X124991904Y-71266190D01*
X125896666Y-70742380D02*
X126563333Y-70742380D01*
X126134761Y-71742380D01*
X119213333Y-69032380D02*
X118880000Y-68556190D01*
X118641904Y-69032380D02*
X118641904Y-68032380D01*
X119022857Y-68032380D01*
X119118095Y-68080000D01*
X119165714Y-68127619D01*
X119213333Y-68222857D01*
X119213333Y-68365714D01*
X119165714Y-68460952D01*
X119118095Y-68508571D01*
X119022857Y-68556190D01*
X118641904Y-68556190D01*
X120070476Y-68032380D02*
X119880000Y-68032380D01*
X119784761Y-68080000D01*
X119737142Y-68127619D01*
X119641904Y-68270476D01*
X119594285Y-68460952D01*
X119594285Y-68841904D01*
X119641904Y-68937142D01*
X119689523Y-68984761D01*
X119784761Y-69032380D01*
X119975238Y-69032380D01*
X120070476Y-68984761D01*
X120118095Y-68937142D01*
X120165714Y-68841904D01*
X120165714Y-68603809D01*
X120118095Y-68508571D01*
X120070476Y-68460952D01*
X119975238Y-68413333D01*
X119784761Y-68413333D01*
X119689523Y-68460952D01*
X119641904Y-68508571D01*
X119594285Y-68603809D01*
X132362380Y-106846666D02*
X131886190Y-107180000D01*
X132362380Y-107418095D02*
X131362380Y-107418095D01*
X131362380Y-107037142D01*
X131410000Y-106941904D01*
X131457619Y-106894285D01*
X131552857Y-106846666D01*
X131695714Y-106846666D01*
X131790952Y-106894285D01*
X131838571Y-106941904D01*
X131886190Y-107037142D01*
X131886190Y-107418095D01*
X131695714Y-105989523D02*
X132362380Y-105989523D01*
X131314761Y-106227619D02*
X132029047Y-106465714D01*
X132029047Y-105846666D01*
X125563333Y-97142380D02*
X125230000Y-96666190D01*
X124991904Y-97142380D02*
X124991904Y-96142380D01*
X125372857Y-96142380D01*
X125468095Y-96190000D01*
X125515714Y-96237619D01*
X125563333Y-96332857D01*
X125563333Y-96475714D01*
X125515714Y-96570952D01*
X125468095Y-96618571D01*
X125372857Y-96666190D01*
X124991904Y-96666190D01*
X125896666Y-96142380D02*
X126515714Y-96142380D01*
X126182380Y-96523333D01*
X126325238Y-96523333D01*
X126420476Y-96570952D01*
X126468095Y-96618571D01*
X126515714Y-96713809D01*
X126515714Y-96951904D01*
X126468095Y-97047142D01*
X126420476Y-97094761D01*
X126325238Y-97142380D01*
X126039523Y-97142380D01*
X125944285Y-97094761D01*
X125896666Y-97047142D01*
X102052380Y-111926666D02*
X101576190Y-112260000D01*
X102052380Y-112498095D02*
X101052380Y-112498095D01*
X101052380Y-112117142D01*
X101100000Y-112021904D01*
X101147619Y-111974285D01*
X101242857Y-111926666D01*
X101385714Y-111926666D01*
X101480952Y-111974285D01*
X101528571Y-112021904D01*
X101576190Y-112117142D01*
X101576190Y-112498095D01*
X101147619Y-111545714D02*
X101100000Y-111498095D01*
X101052380Y-111402857D01*
X101052380Y-111164761D01*
X101100000Y-111069523D01*
X101147619Y-111021904D01*
X101242857Y-110974285D01*
X101338095Y-110974285D01*
X101480952Y-111021904D01*
X102052380Y-111593333D01*
X102052380Y-110974285D01*
X102052380Y-66206666D02*
X101576190Y-66540000D01*
X102052380Y-66778095D02*
X101052380Y-66778095D01*
X101052380Y-66397142D01*
X101100000Y-66301904D01*
X101147619Y-66254285D01*
X101242857Y-66206666D01*
X101385714Y-66206666D01*
X101480952Y-66254285D01*
X101528571Y-66301904D01*
X101576190Y-66397142D01*
X101576190Y-66778095D01*
X102052380Y-65254285D02*
X102052380Y-65825714D01*
X102052380Y-65540000D02*
X101052380Y-65540000D01*
X101195238Y-65635238D01*
X101290476Y-65730476D01*
X101338095Y-65825714D01*
X168576666Y-118832380D02*
X168576666Y-119546666D01*
X168529047Y-119689523D01*
X168433809Y-119784761D01*
X168290952Y-119832380D01*
X168195714Y-119832380D01*
X169481428Y-119165714D02*
X169481428Y-119832380D01*
X169243333Y-118784761D02*
X169005238Y-119499047D01*
X169624285Y-119499047D01*
X98091666Y-100417380D02*
X98091666Y-101131666D01*
X98044047Y-101274523D01*
X97948809Y-101369761D01*
X97805952Y-101417380D01*
X97710714Y-101417380D01*
X99091666Y-101417380D02*
X98520238Y-101417380D01*
X98805952Y-101417380D02*
X98805952Y-100417380D01*
X98710714Y-100560238D01*
X98615476Y-100655476D01*
X98520238Y-100703095D01*
X107132380Y-109958095D02*
X106132380Y-109958095D01*
X106132380Y-109720000D01*
X106180000Y-109577142D01*
X106275238Y-109481904D01*
X106370476Y-109434285D01*
X106560952Y-109386666D01*
X106703809Y-109386666D01*
X106894285Y-109434285D01*
X106989523Y-109481904D01*
X107084761Y-109577142D01*
X107132380Y-109720000D01*
X107132380Y-109958095D01*
X106227619Y-109005714D02*
X106180000Y-108958095D01*
X106132380Y-108862857D01*
X106132380Y-108624761D01*
X106180000Y-108529523D01*
X106227619Y-108481904D01*
X106322857Y-108434285D01*
X106418095Y-108434285D01*
X106560952Y-108481904D01*
X107132380Y-109053333D01*
X107132380Y-108434285D01*
X107132380Y-69318095D02*
X106132380Y-69318095D01*
X106132380Y-69080000D01*
X106180000Y-68937142D01*
X106275238Y-68841904D01*
X106370476Y-68794285D01*
X106560952Y-68746666D01*
X106703809Y-68746666D01*
X106894285Y-68794285D01*
X106989523Y-68841904D01*
X107084761Y-68937142D01*
X107132380Y-69080000D01*
X107132380Y-69318095D01*
X107132380Y-67794285D02*
X107132380Y-68365714D01*
X107132380Y-68080000D02*
X106132380Y-68080000D01*
X106275238Y-68175238D01*
X106370476Y-68270476D01*
X106418095Y-68365714D01*
X172057142Y-79877142D02*
X172009523Y-79924761D01*
X171866666Y-79972380D01*
X171771428Y-79972380D01*
X171628571Y-79924761D01*
X171533333Y-79829523D01*
X171485714Y-79734285D01*
X171438095Y-79543809D01*
X171438095Y-79400952D01*
X171485714Y-79210476D01*
X171533333Y-79115238D01*
X171628571Y-79020000D01*
X171771428Y-78972380D01*
X171866666Y-78972380D01*
X172009523Y-79020000D01*
X172057142Y-79067619D01*
X173009523Y-79972380D02*
X172438095Y-79972380D01*
X172723809Y-79972380D02*
X172723809Y-78972380D01*
X172628571Y-79115238D01*
X172533333Y-79210476D01*
X172438095Y-79258095D01*
X173628571Y-78972380D02*
X173723809Y-78972380D01*
X173819047Y-79020000D01*
X173866666Y-79067619D01*
X173914285Y-79162857D01*
X173961904Y-79353333D01*
X173961904Y-79591428D01*
X173914285Y-79781904D01*
X173866666Y-79877142D01*
X173819047Y-79924761D01*
X173723809Y-79972380D01*
X173628571Y-79972380D01*
X173533333Y-79924761D01*
X173485714Y-79877142D01*
X173438095Y-79781904D01*
X173390476Y-79591428D01*
X173390476Y-79353333D01*
X173438095Y-79162857D01*
X173485714Y-79067619D01*
X173533333Y-79020000D01*
X173628571Y-78972380D01*
X177653333Y-60537142D02*
X177605714Y-60584761D01*
X177462857Y-60632380D01*
X177367619Y-60632380D01*
X177224761Y-60584761D01*
X177129523Y-60489523D01*
X177081904Y-60394285D01*
X177034285Y-60203809D01*
X177034285Y-60060952D01*
X177081904Y-59870476D01*
X177129523Y-59775238D01*
X177224761Y-59680000D01*
X177367619Y-59632380D01*
X177462857Y-59632380D01*
X177605714Y-59680000D01*
X177653333Y-59727619D01*
X178129523Y-60632380D02*
X178320000Y-60632380D01*
X178415238Y-60584761D01*
X178462857Y-60537142D01*
X178558095Y-60394285D01*
X178605714Y-60203809D01*
X178605714Y-59822857D01*
X178558095Y-59727619D01*
X178510476Y-59680000D01*
X178415238Y-59632380D01*
X178224761Y-59632380D01*
X178129523Y-59680000D01*
X178081904Y-59727619D01*
X178034285Y-59822857D01*
X178034285Y-60060952D01*
X178081904Y-60156190D01*
X178129523Y-60203809D01*
X178224761Y-60251428D01*
X178415238Y-60251428D01*
X178510476Y-60203809D01*
X178558095Y-60156190D01*
X178605714Y-60060952D01*
X144673333Y-100127142D02*
X144625714Y-100174761D01*
X144482857Y-100222380D01*
X144387619Y-100222380D01*
X144244761Y-100174761D01*
X144149523Y-100079523D01*
X144101904Y-99984285D01*
X144054285Y-99793809D01*
X144054285Y-99650952D01*
X144101904Y-99460476D01*
X144149523Y-99365238D01*
X144244761Y-99270000D01*
X144387619Y-99222380D01*
X144482857Y-99222380D01*
X144625714Y-99270000D01*
X144673333Y-99317619D01*
X145244761Y-99650952D02*
X145149523Y-99603333D01*
X145101904Y-99555714D01*
X145054285Y-99460476D01*
X145054285Y-99412857D01*
X145101904Y-99317619D01*
X145149523Y-99270000D01*
X145244761Y-99222380D01*
X145435238Y-99222380D01*
X145530476Y-99270000D01*
X145578095Y-99317619D01*
X145625714Y-99412857D01*
X145625714Y-99460476D01*
X145578095Y-99555714D01*
X145530476Y-99603333D01*
X145435238Y-99650952D01*
X145244761Y-99650952D01*
X145149523Y-99698571D01*
X145101904Y-99746190D01*
X145054285Y-99841428D01*
X145054285Y-100031904D01*
X145101904Y-100127142D01*
X145149523Y-100174761D01*
X145244761Y-100222380D01*
X145435238Y-100222380D01*
X145530476Y-100174761D01*
X145578095Y-100127142D01*
X145625714Y-100031904D01*
X145625714Y-99841428D01*
X145578095Y-99746190D01*
X145530476Y-99698571D01*
X145435238Y-99650952D01*
X144673333Y-91237142D02*
X144625714Y-91284761D01*
X144482857Y-91332380D01*
X144387619Y-91332380D01*
X144244761Y-91284761D01*
X144149523Y-91189523D01*
X144101904Y-91094285D01*
X144054285Y-90903809D01*
X144054285Y-90760952D01*
X144101904Y-90570476D01*
X144149523Y-90475238D01*
X144244761Y-90380000D01*
X144387619Y-90332380D01*
X144482857Y-90332380D01*
X144625714Y-90380000D01*
X144673333Y-90427619D01*
X145006666Y-90332380D02*
X145673333Y-90332380D01*
X145244761Y-91332380D01*
X144673333Y-82347142D02*
X144625714Y-82394761D01*
X144482857Y-82442380D01*
X144387619Y-82442380D01*
X144244761Y-82394761D01*
X144149523Y-82299523D01*
X144101904Y-82204285D01*
X144054285Y-82013809D01*
X144054285Y-81870952D01*
X144101904Y-81680476D01*
X144149523Y-81585238D01*
X144244761Y-81490000D01*
X144387619Y-81442380D01*
X144482857Y-81442380D01*
X144625714Y-81490000D01*
X144673333Y-81537619D01*
X145530476Y-81442380D02*
X145340000Y-81442380D01*
X145244761Y-81490000D01*
X145197142Y-81537619D01*
X145101904Y-81680476D01*
X145054285Y-81870952D01*
X145054285Y-82251904D01*
X145101904Y-82347142D01*
X145149523Y-82394761D01*
X145244761Y-82442380D01*
X145435238Y-82442380D01*
X145530476Y-82394761D01*
X145578095Y-82347142D01*
X145625714Y-82251904D01*
X145625714Y-82013809D01*
X145578095Y-81918571D01*
X145530476Y-81870952D01*
X145435238Y-81823333D01*
X145244761Y-81823333D01*
X145149523Y-81870952D01*
X145101904Y-81918571D01*
X145054285Y-82013809D01*
X144673333Y-73457142D02*
X144625714Y-73504761D01*
X144482857Y-73552380D01*
X144387619Y-73552380D01*
X144244761Y-73504761D01*
X144149523Y-73409523D01*
X144101904Y-73314285D01*
X144054285Y-73123809D01*
X144054285Y-72980952D01*
X144101904Y-72790476D01*
X144149523Y-72695238D01*
X144244761Y-72600000D01*
X144387619Y-72552380D01*
X144482857Y-72552380D01*
X144625714Y-72600000D01*
X144673333Y-72647619D01*
X145578095Y-72552380D02*
X145101904Y-72552380D01*
X145054285Y-73028571D01*
X145101904Y-72980952D01*
X145197142Y-72933333D01*
X145435238Y-72933333D01*
X145530476Y-72980952D01*
X145578095Y-73028571D01*
X145625714Y-73123809D01*
X145625714Y-73361904D01*
X145578095Y-73457142D01*
X145530476Y-73504761D01*
X145435238Y-73552380D01*
X145197142Y-73552380D01*
X145101904Y-73504761D01*
X145054285Y-73457142D01*
X142767142Y-115716666D02*
X142814761Y-115764285D01*
X142862380Y-115907142D01*
X142862380Y-116002380D01*
X142814761Y-116145238D01*
X142719523Y-116240476D01*
X142624285Y-116288095D01*
X142433809Y-116335714D01*
X142290952Y-116335714D01*
X142100476Y-116288095D01*
X142005238Y-116240476D01*
X141910000Y-116145238D01*
X141862380Y-116002380D01*
X141862380Y-115907142D01*
X141910000Y-115764285D01*
X141957619Y-115716666D01*
X142195714Y-114859523D02*
X142862380Y-114859523D01*
X141814761Y-115097619D02*
X142529047Y-115335714D01*
X142529047Y-114716666D01*
X126677142Y-106826666D02*
X126724761Y-106874285D01*
X126772380Y-107017142D01*
X126772380Y-107112380D01*
X126724761Y-107255238D01*
X126629523Y-107350476D01*
X126534285Y-107398095D01*
X126343809Y-107445714D01*
X126200952Y-107445714D01*
X126010476Y-107398095D01*
X125915238Y-107350476D01*
X125820000Y-107255238D01*
X125772380Y-107112380D01*
X125772380Y-107017142D01*
X125820000Y-106874285D01*
X125867619Y-106826666D01*
X125772380Y-106493333D02*
X125772380Y-105874285D01*
X126153333Y-106207619D01*
X126153333Y-106064761D01*
X126200952Y-105969523D01*
X126248571Y-105921904D01*
X126343809Y-105874285D01*
X126581904Y-105874285D01*
X126677142Y-105921904D01*
X126724761Y-105969523D01*
X126772380Y-106064761D01*
X126772380Y-106350476D01*
X126724761Y-106445714D01*
X126677142Y-106493333D01*
X110847142Y-97956666D02*
X110894761Y-98004285D01*
X110942380Y-98147142D01*
X110942380Y-98242380D01*
X110894761Y-98385238D01*
X110799523Y-98480476D01*
X110704285Y-98528095D01*
X110513809Y-98575714D01*
X110370952Y-98575714D01*
X110180476Y-98528095D01*
X110085238Y-98480476D01*
X109990000Y-98385238D01*
X109942380Y-98242380D01*
X109942380Y-98147142D01*
X109990000Y-98004285D01*
X110037619Y-97956666D01*
X110037619Y-97575714D02*
X109990000Y-97528095D01*
X109942380Y-97432857D01*
X109942380Y-97194761D01*
X109990000Y-97099523D01*
X110037619Y-97051904D01*
X110132857Y-97004285D01*
X110228095Y-97004285D01*
X110370952Y-97051904D01*
X110942380Y-97623333D01*
X110942380Y-97004285D01*
X110847142Y-80176666D02*
X110894761Y-80224285D01*
X110942380Y-80367142D01*
X110942380Y-80462380D01*
X110894761Y-80605238D01*
X110799523Y-80700476D01*
X110704285Y-80748095D01*
X110513809Y-80795714D01*
X110370952Y-80795714D01*
X110180476Y-80748095D01*
X110085238Y-80700476D01*
X109990000Y-80605238D01*
X109942380Y-80462380D01*
X109942380Y-80367142D01*
X109990000Y-80224285D01*
X110037619Y-80176666D01*
X110942380Y-79224285D02*
X110942380Y-79795714D01*
X110942380Y-79510000D02*
X109942380Y-79510000D01*
X110085238Y-79605238D01*
X110180476Y-79700476D01*
X110228095Y-79795714D01*
M02*
