G04 #@! TF.GenerationSoftware,KiCad,Pcbnew,(5.1.6)-1*
G04 #@! TF.CreationDate,2020-09-01T14:42:51+09:00*
G04 #@! TF.ProjectId,TLF01_V2,544c4630-315f-4563-922e-6b696361645f,A*
G04 #@! TF.SameCoordinates,Original*
G04 #@! TF.FileFunction,Soldermask,Bot*
G04 #@! TF.FilePolarity,Negative*
%FSLAX46Y46*%
G04 Gerber Fmt 4.6, Leading zero omitted, Abs format (unit mm)*
G04 Created by KiCad (PCBNEW (5.1.6)-1) date 2020-09-01 14:42:51*
%MOMM*%
%LPD*%
G01*
G04 APERTURE LIST*
%ADD10C,0.100000*%
G04 APERTURE END LIST*
D10*
G36*
X188898156Y-125831458D02*
G01*
X189004479Y-125852607D01*
X189304942Y-125977063D01*
X189575351Y-126157745D01*
X189805315Y-126387709D01*
X189985997Y-126658118D01*
X190110453Y-126958581D01*
X190173900Y-127277551D01*
X190173900Y-127602769D01*
X190110453Y-127921739D01*
X189985997Y-128222202D01*
X189805315Y-128492611D01*
X189575351Y-128722575D01*
X189304942Y-128903257D01*
X189004479Y-129027713D01*
X188898156Y-129048862D01*
X188685511Y-129091160D01*
X188360289Y-129091160D01*
X188147644Y-129048862D01*
X188041321Y-129027713D01*
X187740858Y-128903257D01*
X187470449Y-128722575D01*
X187240485Y-128492611D01*
X187059803Y-128222202D01*
X186935347Y-127921739D01*
X186871900Y-127602769D01*
X186871900Y-127277551D01*
X186935347Y-126958581D01*
X187059803Y-126658118D01*
X187240485Y-126387709D01*
X187470449Y-126157745D01*
X187740858Y-125977063D01*
X188041321Y-125852607D01*
X188147644Y-125831458D01*
X188360289Y-125789160D01*
X188685511Y-125789160D01*
X188898156Y-125831458D01*
G37*
G36*
X99898156Y-125831458D02*
G01*
X100004479Y-125852607D01*
X100304942Y-125977063D01*
X100575351Y-126157745D01*
X100805315Y-126387709D01*
X100985997Y-126658118D01*
X101110453Y-126958581D01*
X101173900Y-127277551D01*
X101173900Y-127602769D01*
X101110453Y-127921739D01*
X100985997Y-128222202D01*
X100805315Y-128492611D01*
X100575351Y-128722575D01*
X100304942Y-128903257D01*
X100004479Y-129027713D01*
X99898156Y-129048862D01*
X99685511Y-129091160D01*
X99360289Y-129091160D01*
X99147644Y-129048862D01*
X99041321Y-129027713D01*
X98740858Y-128903257D01*
X98470449Y-128722575D01*
X98240485Y-128492611D01*
X98059803Y-128222202D01*
X97935347Y-127921739D01*
X97871900Y-127602769D01*
X97871900Y-127277551D01*
X97935347Y-126958581D01*
X98059803Y-126658118D01*
X98240485Y-126387709D01*
X98470449Y-126157745D01*
X98740858Y-125977063D01*
X99041321Y-125852607D01*
X99147644Y-125831458D01*
X99360289Y-125789160D01*
X99685511Y-125789160D01*
X99898156Y-125831458D01*
G37*
G36*
X169023512Y-124833927D02*
G01*
X169172812Y-124863624D01*
X169336784Y-124931544D01*
X169484354Y-125030147D01*
X169609853Y-125155646D01*
X169708456Y-125303216D01*
X169776376Y-125467188D01*
X169811000Y-125641259D01*
X169811000Y-125818741D01*
X169776376Y-125992812D01*
X169708456Y-126156784D01*
X169609853Y-126304354D01*
X169484354Y-126429853D01*
X169336784Y-126528456D01*
X169172812Y-126596376D01*
X169023512Y-126626073D01*
X168998742Y-126631000D01*
X168821258Y-126631000D01*
X168796488Y-126626073D01*
X168647188Y-126596376D01*
X168483216Y-126528456D01*
X168335646Y-126429853D01*
X168210147Y-126304354D01*
X168111544Y-126156784D01*
X168043624Y-125992812D01*
X168009000Y-125818741D01*
X168009000Y-125641259D01*
X168043624Y-125467188D01*
X168111544Y-125303216D01*
X168210147Y-125155646D01*
X168335646Y-125030147D01*
X168483216Y-124931544D01*
X168647188Y-124863624D01*
X168796488Y-124833927D01*
X168821258Y-124829000D01*
X168998742Y-124829000D01*
X169023512Y-124833927D01*
G37*
G36*
X142456627Y-123422037D02*
G01*
X142626466Y-123473557D01*
X142782991Y-123557222D01*
X142818729Y-123586552D01*
X142920186Y-123669814D01*
X143003448Y-123771271D01*
X143032778Y-123807009D01*
X143116443Y-123963534D01*
X143167963Y-124133374D01*
X143181000Y-124265743D01*
X143181000Y-124654258D01*
X143167963Y-124786627D01*
X143116443Y-124956466D01*
X143032778Y-125112991D01*
X143003448Y-125148729D01*
X142920186Y-125250186D01*
X142782989Y-125362779D01*
X142626467Y-125446442D01*
X142626465Y-125446443D01*
X142456626Y-125497963D01*
X142280000Y-125515359D01*
X142103373Y-125497963D01*
X141933534Y-125446443D01*
X141777009Y-125362778D01*
X141704435Y-125303218D01*
X141639814Y-125250186D01*
X141527221Y-125112989D01*
X141443558Y-124956467D01*
X141443557Y-124956465D01*
X141392037Y-124786626D01*
X141379000Y-124654257D01*
X141379000Y-124265742D01*
X141392037Y-124133373D01*
X141443557Y-123963534D01*
X141527222Y-123807009D01*
X141639815Y-123669815D01*
X141777010Y-123557222D01*
X141933535Y-123473557D01*
X142103374Y-123422037D01*
X142280000Y-123404641D01*
X142456627Y-123422037D01*
G37*
G36*
X145538600Y-123412989D02*
G01*
X145571652Y-123423015D01*
X145602103Y-123439292D01*
X145628799Y-123461201D01*
X145650708Y-123487897D01*
X145666985Y-123518348D01*
X145677011Y-123551400D01*
X145681000Y-123591903D01*
X145681000Y-125328097D01*
X145677011Y-125368600D01*
X145666985Y-125401652D01*
X145650708Y-125432103D01*
X145628799Y-125458799D01*
X145602103Y-125480708D01*
X145571652Y-125496985D01*
X145538600Y-125507011D01*
X145498097Y-125511000D01*
X144061903Y-125511000D01*
X144021400Y-125507011D01*
X143988348Y-125496985D01*
X143957897Y-125480708D01*
X143931201Y-125458799D01*
X143909292Y-125432103D01*
X143893015Y-125401652D01*
X143882989Y-125368600D01*
X143879000Y-125328097D01*
X143879000Y-123591903D01*
X143882989Y-123551400D01*
X143893015Y-123518348D01*
X143909292Y-123487897D01*
X143931201Y-123461201D01*
X143957897Y-123439292D01*
X143988348Y-123423015D01*
X144021400Y-123412989D01*
X144061903Y-123409000D01*
X145498097Y-123409000D01*
X145538600Y-123412989D01*
G37*
G36*
X169811000Y-124091000D02*
G01*
X168009000Y-124091000D01*
X168009000Y-122289000D01*
X169811000Y-122289000D01*
X169811000Y-124091000D01*
G37*
G36*
X129788228Y-121101703D02*
G01*
X129943100Y-121165853D01*
X130082481Y-121258985D01*
X130201015Y-121377519D01*
X130294147Y-121516900D01*
X130358297Y-121671772D01*
X130391000Y-121836184D01*
X130391000Y-122003816D01*
X130358297Y-122168228D01*
X130294147Y-122323100D01*
X130201015Y-122462481D01*
X130082481Y-122581015D01*
X129943100Y-122674147D01*
X129788228Y-122738297D01*
X129623816Y-122771000D01*
X129456184Y-122771000D01*
X129291772Y-122738297D01*
X129136900Y-122674147D01*
X128997519Y-122581015D01*
X128878985Y-122462481D01*
X128785853Y-122323100D01*
X128721703Y-122168228D01*
X128689000Y-122003816D01*
X128689000Y-121836184D01*
X128721703Y-121671772D01*
X128785853Y-121516900D01*
X128878985Y-121377519D01*
X128997519Y-121258985D01*
X129136900Y-121165853D01*
X129291772Y-121101703D01*
X129456184Y-121069000D01*
X129623816Y-121069000D01*
X129788228Y-121101703D01*
G37*
G36*
X145028228Y-117291703D02*
G01*
X145183100Y-117355853D01*
X145322481Y-117448985D01*
X145441015Y-117567519D01*
X145534147Y-117706900D01*
X145598297Y-117861772D01*
X145631000Y-118026184D01*
X145631000Y-118193816D01*
X145598297Y-118358228D01*
X145534147Y-118513100D01*
X145441015Y-118652481D01*
X145322481Y-118771015D01*
X145183100Y-118864147D01*
X145028228Y-118928297D01*
X144863816Y-118961000D01*
X144696184Y-118961000D01*
X144531772Y-118928297D01*
X144376900Y-118864147D01*
X144237519Y-118771015D01*
X144118985Y-118652481D01*
X144025853Y-118513100D01*
X143961703Y-118358228D01*
X143929000Y-118193816D01*
X143929000Y-118026184D01*
X143961703Y-117861772D01*
X144025853Y-117706900D01*
X144118985Y-117567519D01*
X144237519Y-117448985D01*
X144376900Y-117355853D01*
X144531772Y-117291703D01*
X144696184Y-117259000D01*
X144863816Y-117259000D01*
X145028228Y-117291703D01*
G37*
G36*
X137408228Y-115981703D02*
G01*
X137563100Y-116045853D01*
X137702481Y-116138985D01*
X137821015Y-116257519D01*
X137914147Y-116396900D01*
X137978297Y-116551772D01*
X138011000Y-116716184D01*
X138011000Y-116883816D01*
X137978297Y-117048228D01*
X137914147Y-117203100D01*
X137821015Y-117342481D01*
X137702481Y-117461015D01*
X137563100Y-117554147D01*
X137408228Y-117618297D01*
X137243816Y-117651000D01*
X137076184Y-117651000D01*
X136911772Y-117618297D01*
X136756900Y-117554147D01*
X136617519Y-117461015D01*
X136498985Y-117342481D01*
X136405853Y-117203100D01*
X136341703Y-117048228D01*
X136309000Y-116883816D01*
X136309000Y-116716184D01*
X136341703Y-116551772D01*
X136405853Y-116396900D01*
X136498985Y-116257519D01*
X136617519Y-116138985D01*
X136756900Y-116045853D01*
X136911772Y-115981703D01*
X137076184Y-115949000D01*
X137243816Y-115949000D01*
X137408228Y-115981703D01*
G37*
G36*
X186967395Y-114655546D02*
G01*
X187140466Y-114727234D01*
X187140467Y-114727235D01*
X187296227Y-114831310D01*
X187428690Y-114963773D01*
X187428691Y-114963775D01*
X187532766Y-115119534D01*
X187604454Y-115292605D01*
X187641000Y-115476333D01*
X187641000Y-115663667D01*
X187604454Y-115847395D01*
X187532766Y-116020466D01*
X187515803Y-116045853D01*
X187428690Y-116176227D01*
X187296227Y-116308690D01*
X187217818Y-116361081D01*
X187140466Y-116412766D01*
X186967395Y-116484454D01*
X186783667Y-116521000D01*
X186596333Y-116521000D01*
X186412605Y-116484454D01*
X186239534Y-116412766D01*
X186162182Y-116361081D01*
X186083773Y-116308690D01*
X185951310Y-116176227D01*
X185864197Y-116045853D01*
X185847234Y-116020466D01*
X185775546Y-115847395D01*
X185739000Y-115663667D01*
X185739000Y-115476333D01*
X185775546Y-115292605D01*
X185847234Y-115119534D01*
X185951309Y-114963775D01*
X185951310Y-114963773D01*
X186083773Y-114831310D01*
X186239533Y-114727235D01*
X186239534Y-114727234D01*
X186412605Y-114655546D01*
X186596333Y-114619000D01*
X186783667Y-114619000D01*
X186967395Y-114655546D01*
G37*
G36*
X138011000Y-115151000D02*
G01*
X136309000Y-115151000D01*
X136309000Y-113449000D01*
X138011000Y-113449000D01*
X138011000Y-115151000D01*
G37*
G36*
X159331128Y-113481703D02*
G01*
X159486000Y-113545853D01*
X159625381Y-113638985D01*
X159743915Y-113757519D01*
X159837047Y-113896900D01*
X159901197Y-114051772D01*
X159933900Y-114216184D01*
X159933900Y-114383816D01*
X159901197Y-114548228D01*
X159837047Y-114703100D01*
X159743915Y-114842481D01*
X159625381Y-114961015D01*
X159486000Y-115054147D01*
X159331128Y-115118297D01*
X159166716Y-115151000D01*
X158999084Y-115151000D01*
X158834672Y-115118297D01*
X158679800Y-115054147D01*
X158540419Y-114961015D01*
X158421885Y-114842481D01*
X158328753Y-114703100D01*
X158264603Y-114548228D01*
X158231900Y-114383816D01*
X158231900Y-114216184D01*
X158264603Y-114051772D01*
X158328753Y-113896900D01*
X158421885Y-113757519D01*
X158540419Y-113638985D01*
X158679800Y-113545853D01*
X158834672Y-113481703D01*
X158999084Y-113449000D01*
X159166716Y-113449000D01*
X159331128Y-113481703D01*
G37*
G36*
X151711128Y-113481703D02*
G01*
X151866000Y-113545853D01*
X152005381Y-113638985D01*
X152123915Y-113757519D01*
X152217047Y-113896900D01*
X152281197Y-114051772D01*
X152313900Y-114216184D01*
X152313900Y-114383816D01*
X152281197Y-114548228D01*
X152217047Y-114703100D01*
X152123915Y-114842481D01*
X152005381Y-114961015D01*
X151866000Y-115054147D01*
X151711128Y-115118297D01*
X151546716Y-115151000D01*
X151379084Y-115151000D01*
X151214672Y-115118297D01*
X151059800Y-115054147D01*
X150920419Y-114961015D01*
X150801885Y-114842481D01*
X150708753Y-114703100D01*
X150644603Y-114548228D01*
X150611900Y-114383816D01*
X150611900Y-114216184D01*
X150644603Y-114051772D01*
X150708753Y-113896900D01*
X150801885Y-113757519D01*
X150920419Y-113638985D01*
X151059800Y-113545853D01*
X151214672Y-113481703D01*
X151379084Y-113449000D01*
X151546716Y-113449000D01*
X151711128Y-113481703D01*
G37*
G36*
X129788228Y-113481703D02*
G01*
X129943100Y-113545853D01*
X130082481Y-113638985D01*
X130201015Y-113757519D01*
X130294147Y-113896900D01*
X130358297Y-114051772D01*
X130391000Y-114216184D01*
X130391000Y-114383816D01*
X130358297Y-114548228D01*
X130294147Y-114703100D01*
X130201015Y-114842481D01*
X130082481Y-114961015D01*
X129943100Y-115054147D01*
X129788228Y-115118297D01*
X129623816Y-115151000D01*
X129456184Y-115151000D01*
X129291772Y-115118297D01*
X129136900Y-115054147D01*
X128997519Y-114961015D01*
X128878985Y-114842481D01*
X128785853Y-114703100D01*
X128721703Y-114548228D01*
X128689000Y-114383816D01*
X128689000Y-114216184D01*
X128721703Y-114051772D01*
X128785853Y-113896900D01*
X128878985Y-113757519D01*
X128997519Y-113638985D01*
X129136900Y-113545853D01*
X129291772Y-113481703D01*
X129456184Y-113449000D01*
X129623816Y-113449000D01*
X129788228Y-113481703D01*
G37*
G36*
X186967395Y-112155546D02*
G01*
X187140466Y-112227234D01*
X187140467Y-112227235D01*
X187296227Y-112331310D01*
X187428690Y-112463773D01*
X187428691Y-112463775D01*
X187532766Y-112619534D01*
X187604454Y-112792605D01*
X187641000Y-112976333D01*
X187641000Y-113163667D01*
X187604454Y-113347395D01*
X187532766Y-113520466D01*
X187515803Y-113545853D01*
X187428690Y-113676227D01*
X187296227Y-113808690D01*
X187217818Y-113861081D01*
X187140466Y-113912766D01*
X186967395Y-113984454D01*
X186783667Y-114021000D01*
X186596333Y-114021000D01*
X186412605Y-113984454D01*
X186239534Y-113912766D01*
X186162182Y-113861081D01*
X186083773Y-113808690D01*
X185951310Y-113676227D01*
X185864197Y-113545853D01*
X185847234Y-113520466D01*
X185775546Y-113347395D01*
X185739000Y-113163667D01*
X185739000Y-112976333D01*
X185775546Y-112792605D01*
X185847234Y-112619534D01*
X185951309Y-112463775D01*
X185951310Y-112463773D01*
X186083773Y-112331310D01*
X186239533Y-112227235D01*
X186239534Y-112227234D01*
X186412605Y-112155546D01*
X186596333Y-112119000D01*
X186783667Y-112119000D01*
X186967395Y-112155546D01*
G37*
G36*
X186967395Y-109655546D02*
G01*
X187140466Y-109727234D01*
X187153365Y-109735853D01*
X187296227Y-109831310D01*
X187428690Y-109963773D01*
X187435622Y-109974148D01*
X187532766Y-110119534D01*
X187604454Y-110292605D01*
X187641000Y-110476333D01*
X187641000Y-110663667D01*
X187604454Y-110847395D01*
X187532766Y-111020466D01*
X187532765Y-111020467D01*
X187428690Y-111176227D01*
X187296227Y-111308690D01*
X187247871Y-111341000D01*
X187140466Y-111412766D01*
X186967395Y-111484454D01*
X186783667Y-111521000D01*
X186596333Y-111521000D01*
X186412605Y-111484454D01*
X186239534Y-111412766D01*
X186132129Y-111341000D01*
X186083773Y-111308690D01*
X185951310Y-111176227D01*
X185847235Y-111020467D01*
X185847234Y-111020466D01*
X185775546Y-110847395D01*
X185739000Y-110663667D01*
X185739000Y-110476333D01*
X185775546Y-110292605D01*
X185847234Y-110119534D01*
X185944378Y-109974148D01*
X185951310Y-109963773D01*
X186083773Y-109831310D01*
X186226635Y-109735853D01*
X186239534Y-109727234D01*
X186412605Y-109655546D01*
X186596333Y-109619000D01*
X186783667Y-109619000D01*
X186967395Y-109655546D01*
G37*
G36*
X129788228Y-109671703D02*
G01*
X129943100Y-109735853D01*
X130082481Y-109828985D01*
X130201015Y-109947519D01*
X130294147Y-110086900D01*
X130358297Y-110241772D01*
X130391000Y-110406184D01*
X130391000Y-110573816D01*
X130358297Y-110738228D01*
X130294147Y-110893100D01*
X130201015Y-111032481D01*
X130082481Y-111151015D01*
X129943100Y-111244147D01*
X129788228Y-111308297D01*
X129623816Y-111341000D01*
X129456184Y-111341000D01*
X129291772Y-111308297D01*
X129136900Y-111244147D01*
X128997519Y-111151015D01*
X128878985Y-111032481D01*
X128785853Y-110893100D01*
X128721703Y-110738228D01*
X128689000Y-110573816D01*
X128689000Y-110406184D01*
X128721703Y-110241772D01*
X128785853Y-110086900D01*
X128878985Y-109947519D01*
X128997519Y-109828985D01*
X129136900Y-109735853D01*
X129291772Y-109671703D01*
X129456184Y-109639000D01*
X129623816Y-109639000D01*
X129788228Y-109671703D01*
G37*
G36*
X145028228Y-109671703D02*
G01*
X145183100Y-109735853D01*
X145322481Y-109828985D01*
X145441015Y-109947519D01*
X145534147Y-110086900D01*
X145598297Y-110241772D01*
X145631000Y-110406184D01*
X145631000Y-110573816D01*
X145598297Y-110738228D01*
X145534147Y-110893100D01*
X145441015Y-111032481D01*
X145322481Y-111151015D01*
X145183100Y-111244147D01*
X145028228Y-111308297D01*
X144863816Y-111341000D01*
X144696184Y-111341000D01*
X144531772Y-111308297D01*
X144376900Y-111244147D01*
X144237519Y-111151015D01*
X144118985Y-111032481D01*
X144025853Y-110893100D01*
X143961703Y-110738228D01*
X143929000Y-110573816D01*
X143929000Y-110406184D01*
X143961703Y-110241772D01*
X144025853Y-110086900D01*
X144118985Y-109947519D01*
X144237519Y-109828985D01*
X144376900Y-109735853D01*
X144531772Y-109671703D01*
X144696184Y-109639000D01*
X144863816Y-109639000D01*
X145028228Y-109671703D01*
G37*
G36*
X101848228Y-108401703D02*
G01*
X102003100Y-108465853D01*
X102142481Y-108558985D01*
X102261015Y-108677519D01*
X102354147Y-108816900D01*
X102418297Y-108971772D01*
X102451000Y-109136184D01*
X102451000Y-109303816D01*
X102418297Y-109468228D01*
X102354147Y-109623100D01*
X102261015Y-109762481D01*
X102142481Y-109881015D01*
X102003100Y-109974147D01*
X101848228Y-110038297D01*
X101683816Y-110071000D01*
X101516184Y-110071000D01*
X101351772Y-110038297D01*
X101196900Y-109974147D01*
X101057519Y-109881015D01*
X100938985Y-109762481D01*
X100845853Y-109623100D01*
X100781703Y-109468228D01*
X100749000Y-109303816D01*
X100749000Y-109136184D01*
X100781703Y-108971772D01*
X100845853Y-108816900D01*
X100938985Y-108677519D01*
X101057519Y-108558985D01*
X101196900Y-108465853D01*
X101351772Y-108401703D01*
X101516184Y-108369000D01*
X101683816Y-108369000D01*
X101848228Y-108401703D01*
G37*
G36*
X171575589Y-108458876D02*
G01*
X171674893Y-108478629D01*
X171815206Y-108536748D01*
X171941484Y-108621125D01*
X172048875Y-108728516D01*
X172133252Y-108854794D01*
X172191371Y-108995107D01*
X172221000Y-109144063D01*
X172221000Y-109295937D01*
X172191371Y-109444893D01*
X172133252Y-109585206D01*
X172048875Y-109711484D01*
X171941484Y-109818875D01*
X171815206Y-109903252D01*
X171674893Y-109961371D01*
X171610663Y-109974147D01*
X171525938Y-109991000D01*
X171374062Y-109991000D01*
X171289337Y-109974147D01*
X171225107Y-109961371D01*
X171084794Y-109903252D01*
X170958516Y-109818875D01*
X170851125Y-109711484D01*
X170766748Y-109585206D01*
X170708629Y-109444893D01*
X170679000Y-109295937D01*
X170679000Y-109144063D01*
X170708629Y-108995107D01*
X170766748Y-108854794D01*
X170851125Y-108728516D01*
X170958516Y-108621125D01*
X171084794Y-108536748D01*
X171225107Y-108478629D01*
X171324411Y-108458876D01*
X171374062Y-108449000D01*
X171525938Y-108449000D01*
X171575589Y-108458876D01*
G37*
G36*
X122168228Y-107091703D02*
G01*
X122323100Y-107155853D01*
X122462481Y-107248985D01*
X122581015Y-107367519D01*
X122674147Y-107506900D01*
X122738297Y-107661772D01*
X122771000Y-107826184D01*
X122771000Y-107993816D01*
X122738297Y-108158228D01*
X122674147Y-108313100D01*
X122581015Y-108452481D01*
X122462481Y-108571015D01*
X122323100Y-108664147D01*
X122168228Y-108728297D01*
X122003816Y-108761000D01*
X121836184Y-108761000D01*
X121671772Y-108728297D01*
X121516900Y-108664147D01*
X121377519Y-108571015D01*
X121258985Y-108452481D01*
X121165853Y-108313100D01*
X121101703Y-108158228D01*
X121069000Y-107993816D01*
X121069000Y-107826184D01*
X121101703Y-107661772D01*
X121165853Y-107506900D01*
X121258985Y-107367519D01*
X121377519Y-107248985D01*
X121516900Y-107155853D01*
X121671772Y-107091703D01*
X121836184Y-107059000D01*
X122003816Y-107059000D01*
X122168228Y-107091703D01*
G37*
G36*
X107631000Y-107631000D02*
G01*
X105729000Y-107631000D01*
X105729000Y-105729000D01*
X107631000Y-105729000D01*
X107631000Y-107631000D01*
G37*
G36*
X147553642Y-105909781D02*
G01*
X147699414Y-105970162D01*
X147699416Y-105970163D01*
X147830608Y-106057822D01*
X147942178Y-106169392D01*
X148003388Y-106261000D01*
X148029838Y-106300586D01*
X148090219Y-106446358D01*
X148121000Y-106601107D01*
X148121000Y-106758893D01*
X148090219Y-106913642D01*
X148035724Y-107045204D01*
X148029837Y-107059416D01*
X147942178Y-107190608D01*
X147830608Y-107302178D01*
X147699416Y-107389837D01*
X147699415Y-107389838D01*
X147699414Y-107389838D01*
X147553642Y-107450219D01*
X147398893Y-107481000D01*
X147241107Y-107481000D01*
X147086358Y-107450219D01*
X146940586Y-107389838D01*
X146940585Y-107389838D01*
X146940584Y-107389837D01*
X146809392Y-107302178D01*
X146697822Y-107190608D01*
X146610163Y-107059416D01*
X146604276Y-107045204D01*
X146549781Y-106913642D01*
X146519000Y-106758893D01*
X146519000Y-106601107D01*
X146549781Y-106446358D01*
X146610162Y-106300586D01*
X146636612Y-106261000D01*
X146697822Y-106169392D01*
X146809392Y-106057822D01*
X146940584Y-105970163D01*
X146940586Y-105970162D01*
X147086358Y-105909781D01*
X147241107Y-105879000D01*
X147398893Y-105879000D01*
X147553642Y-105909781D01*
G37*
G36*
X143041000Y-107481000D02*
G01*
X141439000Y-107481000D01*
X141439000Y-105879000D01*
X143041000Y-105879000D01*
X143041000Y-107481000D01*
G37*
G36*
X169035589Y-105918876D02*
G01*
X169134893Y-105938629D01*
X169275206Y-105996748D01*
X169401484Y-106081125D01*
X169508875Y-106188516D01*
X169593252Y-106314794D01*
X169651371Y-106455107D01*
X169681000Y-106604063D01*
X169681000Y-106755937D01*
X169651371Y-106904893D01*
X169593252Y-107045206D01*
X169508875Y-107171484D01*
X169401484Y-107278875D01*
X169275206Y-107363252D01*
X169134893Y-107421371D01*
X169035589Y-107441124D01*
X168985938Y-107451000D01*
X168834062Y-107451000D01*
X168784411Y-107441124D01*
X168685107Y-107421371D01*
X168544794Y-107363252D01*
X168418516Y-107278875D01*
X168311125Y-107171484D01*
X168226748Y-107045206D01*
X168168629Y-106904893D01*
X168139000Y-106755937D01*
X168139000Y-106604063D01*
X168168629Y-106455107D01*
X168226748Y-106314794D01*
X168311125Y-106188516D01*
X168418516Y-106081125D01*
X168544794Y-105996748D01*
X168685107Y-105938629D01*
X168784411Y-105918876D01*
X168834062Y-105909000D01*
X168985938Y-105909000D01*
X169035589Y-105918876D01*
G37*
G36*
X122771000Y-106261000D02*
G01*
X121069000Y-106261000D01*
X121069000Y-104559000D01*
X122771000Y-104559000D01*
X122771000Y-106261000D01*
G37*
G36*
X106957395Y-103225546D02*
G01*
X107130466Y-103297234D01*
X107130467Y-103297235D01*
X107286227Y-103401310D01*
X107418690Y-103533773D01*
X107418691Y-103533775D01*
X107522766Y-103689534D01*
X107594454Y-103862605D01*
X107631000Y-104046333D01*
X107631000Y-104233667D01*
X107594454Y-104417395D01*
X107522766Y-104590466D01*
X107482581Y-104650607D01*
X107418690Y-104746227D01*
X107286227Y-104878690D01*
X107239042Y-104910218D01*
X107130466Y-104982766D01*
X106957395Y-105054454D01*
X106773667Y-105091000D01*
X106586333Y-105091000D01*
X106402605Y-105054454D01*
X106229534Y-104982766D01*
X106120958Y-104910218D01*
X106073773Y-104878690D01*
X105941310Y-104746227D01*
X105877419Y-104650607D01*
X105837234Y-104590466D01*
X105765546Y-104417395D01*
X105729000Y-104233667D01*
X105729000Y-104046333D01*
X105765546Y-103862605D01*
X105837234Y-103689534D01*
X105941309Y-103533775D01*
X105941310Y-103533773D01*
X106073773Y-103401310D01*
X106229533Y-103297235D01*
X106229534Y-103297234D01*
X106402605Y-103225546D01*
X106586333Y-103189000D01*
X106773667Y-103189000D01*
X106957395Y-103225546D01*
G37*
G36*
X150093642Y-103369781D02*
G01*
X150196728Y-103412481D01*
X150239416Y-103430163D01*
X150370608Y-103517822D01*
X150482178Y-103629392D01*
X150522363Y-103689534D01*
X150569838Y-103760586D01*
X150630219Y-103906358D01*
X150661000Y-104061107D01*
X150661000Y-104218893D01*
X150630219Y-104373642D01*
X150612095Y-104417396D01*
X150569837Y-104519416D01*
X150482178Y-104650608D01*
X150370608Y-104762178D01*
X150239416Y-104849837D01*
X150239415Y-104849838D01*
X150239414Y-104849838D01*
X150093642Y-104910219D01*
X149938893Y-104941000D01*
X149781107Y-104941000D01*
X149626358Y-104910219D01*
X149480586Y-104849838D01*
X149480585Y-104849838D01*
X149480584Y-104849837D01*
X149349392Y-104762178D01*
X149237822Y-104650608D01*
X149150163Y-104519416D01*
X149107905Y-104417396D01*
X149089781Y-104373642D01*
X149059000Y-104218893D01*
X149059000Y-104061107D01*
X149089781Y-103906358D01*
X149150162Y-103760586D01*
X149197637Y-103689534D01*
X149237822Y-103629392D01*
X149349392Y-103517822D01*
X149480584Y-103430163D01*
X149523272Y-103412481D01*
X149626358Y-103369781D01*
X149781107Y-103339000D01*
X149938893Y-103339000D01*
X150093642Y-103369781D01*
G37*
G36*
X139933642Y-103369781D02*
G01*
X140036728Y-103412481D01*
X140079416Y-103430163D01*
X140210608Y-103517822D01*
X140322178Y-103629392D01*
X140362363Y-103689534D01*
X140409838Y-103760586D01*
X140470219Y-103906358D01*
X140501000Y-104061107D01*
X140501000Y-104218893D01*
X140470219Y-104373642D01*
X140452095Y-104417396D01*
X140409837Y-104519416D01*
X140322178Y-104650608D01*
X140210608Y-104762178D01*
X140079416Y-104849837D01*
X140079415Y-104849838D01*
X140079414Y-104849838D01*
X139933642Y-104910219D01*
X139778893Y-104941000D01*
X139621107Y-104941000D01*
X139466358Y-104910219D01*
X139320586Y-104849838D01*
X139320585Y-104849838D01*
X139320584Y-104849837D01*
X139189392Y-104762178D01*
X139077822Y-104650608D01*
X138990163Y-104519416D01*
X138947905Y-104417396D01*
X138929781Y-104373642D01*
X138899000Y-104218893D01*
X138899000Y-104061107D01*
X138929781Y-103906358D01*
X138990162Y-103760586D01*
X139037637Y-103689534D01*
X139077822Y-103629392D01*
X139189392Y-103517822D01*
X139320584Y-103430163D01*
X139363272Y-103412481D01*
X139466358Y-103369781D01*
X139621107Y-103339000D01*
X139778893Y-103339000D01*
X139933642Y-103369781D01*
G37*
G36*
X171575589Y-103378876D02*
G01*
X171674893Y-103398629D01*
X171815206Y-103456748D01*
X171941484Y-103541125D01*
X172048875Y-103648516D01*
X172133252Y-103774794D01*
X172191371Y-103915107D01*
X172221000Y-104064063D01*
X172221000Y-104215937D01*
X172191371Y-104364893D01*
X172133252Y-104505206D01*
X172048875Y-104631484D01*
X171941484Y-104738875D01*
X171815206Y-104823252D01*
X171674893Y-104881371D01*
X171575589Y-104901124D01*
X171525938Y-104911000D01*
X171374062Y-104911000D01*
X171324411Y-104901124D01*
X171225107Y-104881371D01*
X171084794Y-104823252D01*
X170958516Y-104738875D01*
X170851125Y-104631484D01*
X170766748Y-104505206D01*
X170708629Y-104364893D01*
X170679000Y-104215937D01*
X170679000Y-104064063D01*
X170708629Y-103915107D01*
X170766748Y-103774794D01*
X170851125Y-103648516D01*
X170958516Y-103541125D01*
X171084794Y-103456748D01*
X171225107Y-103398629D01*
X171324411Y-103378876D01*
X171374062Y-103369000D01*
X171525938Y-103369000D01*
X171575589Y-103378876D01*
G37*
G36*
X129788228Y-102051703D02*
G01*
X129943100Y-102115853D01*
X130082481Y-102208985D01*
X130201015Y-102327519D01*
X130294147Y-102466900D01*
X130358297Y-102621772D01*
X130391000Y-102786184D01*
X130391000Y-102953816D01*
X130358297Y-103118228D01*
X130294147Y-103273100D01*
X130201015Y-103412481D01*
X130082481Y-103531015D01*
X129943100Y-103624147D01*
X129788228Y-103688297D01*
X129623816Y-103721000D01*
X129456184Y-103721000D01*
X129291772Y-103688297D01*
X129136900Y-103624147D01*
X128997519Y-103531015D01*
X128878985Y-103412481D01*
X128785853Y-103273100D01*
X128721703Y-103118228D01*
X128689000Y-102953816D01*
X128689000Y-102786184D01*
X128721703Y-102621772D01*
X128785853Y-102466900D01*
X128878985Y-102327519D01*
X128997519Y-102208985D01*
X129136900Y-102115853D01*
X129291772Y-102051703D01*
X129456184Y-102019000D01*
X129623816Y-102019000D01*
X129788228Y-102051703D01*
G37*
G36*
X115151000Y-103721000D02*
G01*
X113449000Y-103721000D01*
X113449000Y-102019000D01*
X115151000Y-102019000D01*
X115151000Y-103721000D01*
G37*
G36*
X101848228Y-100781703D02*
G01*
X102003100Y-100845853D01*
X102142481Y-100938985D01*
X102261015Y-101057519D01*
X102354147Y-101196900D01*
X102418297Y-101351772D01*
X102451000Y-101516184D01*
X102451000Y-101683816D01*
X102418297Y-101848228D01*
X102354147Y-102003100D01*
X102261015Y-102142481D01*
X102142481Y-102261015D01*
X102003100Y-102354147D01*
X101848228Y-102418297D01*
X101683816Y-102451000D01*
X101516184Y-102451000D01*
X101351772Y-102418297D01*
X101196900Y-102354147D01*
X101057519Y-102261015D01*
X100938985Y-102142481D01*
X100845853Y-102003100D01*
X100781703Y-101848228D01*
X100749000Y-101683816D01*
X100749000Y-101516184D01*
X100781703Y-101351772D01*
X100845853Y-101196900D01*
X100938985Y-101057519D01*
X101057519Y-100938985D01*
X101196900Y-100845853D01*
X101351772Y-100781703D01*
X101516184Y-100749000D01*
X101683816Y-100749000D01*
X101848228Y-100781703D01*
G37*
G36*
X148121000Y-102401000D02*
G01*
X146519000Y-102401000D01*
X146519000Y-100799000D01*
X148121000Y-100799000D01*
X148121000Y-102401000D01*
G37*
G36*
X142473642Y-100829781D02*
G01*
X142619414Y-100890162D01*
X142619416Y-100890163D01*
X142750608Y-100977822D01*
X142862178Y-101089392D01*
X142934012Y-101196900D01*
X142949838Y-101220586D01*
X143010219Y-101366358D01*
X143041000Y-101521107D01*
X143041000Y-101678893D01*
X143010219Y-101833642D01*
X142949838Y-101979414D01*
X142949837Y-101979416D01*
X142862178Y-102110608D01*
X142750608Y-102222178D01*
X142619416Y-102309837D01*
X142619415Y-102309838D01*
X142619414Y-102309838D01*
X142473642Y-102370219D01*
X142318893Y-102401000D01*
X142161107Y-102401000D01*
X142006358Y-102370219D01*
X141860586Y-102309838D01*
X141860585Y-102309838D01*
X141860584Y-102309837D01*
X141729392Y-102222178D01*
X141617822Y-102110608D01*
X141530163Y-101979416D01*
X141530162Y-101979414D01*
X141469781Y-101833642D01*
X141439000Y-101678893D01*
X141439000Y-101521107D01*
X141469781Y-101366358D01*
X141530162Y-101220586D01*
X141545988Y-101196900D01*
X141617822Y-101089392D01*
X141729392Y-100977822D01*
X141860584Y-100890163D01*
X141860586Y-100890162D01*
X142006358Y-100829781D01*
X142161107Y-100799000D01*
X142318893Y-100799000D01*
X142473642Y-100829781D01*
G37*
G36*
X114548228Y-99551703D02*
G01*
X114703100Y-99615853D01*
X114842481Y-99708985D01*
X114961015Y-99827519D01*
X115054147Y-99966900D01*
X115118297Y-100121772D01*
X115151000Y-100286184D01*
X115151000Y-100453816D01*
X115118297Y-100618228D01*
X115054147Y-100773100D01*
X114961015Y-100912481D01*
X114842481Y-101031015D01*
X114703100Y-101124147D01*
X114548228Y-101188297D01*
X114383816Y-101221000D01*
X114216184Y-101221000D01*
X114051772Y-101188297D01*
X113896900Y-101124147D01*
X113757519Y-101031015D01*
X113638985Y-100912481D01*
X113545853Y-100773100D01*
X113481703Y-100618228D01*
X113449000Y-100453816D01*
X113449000Y-100286184D01*
X113481703Y-100121772D01*
X113545853Y-99966900D01*
X113638985Y-99827519D01*
X113757519Y-99708985D01*
X113896900Y-99615853D01*
X114051772Y-99551703D01*
X114216184Y-99519000D01*
X114383816Y-99519000D01*
X114548228Y-99551703D01*
G37*
G36*
X129788228Y-98241703D02*
G01*
X129943100Y-98305853D01*
X130082481Y-98398985D01*
X130201015Y-98517519D01*
X130294147Y-98656900D01*
X130358297Y-98811772D01*
X130391000Y-98976184D01*
X130391000Y-99143816D01*
X130358297Y-99308228D01*
X130294147Y-99463100D01*
X130201015Y-99602481D01*
X130082481Y-99721015D01*
X129943100Y-99814147D01*
X129788228Y-99878297D01*
X129623816Y-99911000D01*
X129456184Y-99911000D01*
X129291772Y-99878297D01*
X129136900Y-99814147D01*
X128997519Y-99721015D01*
X128878985Y-99602481D01*
X128785853Y-99463100D01*
X128721703Y-99308228D01*
X128689000Y-99143816D01*
X128689000Y-98976184D01*
X128721703Y-98811772D01*
X128785853Y-98656900D01*
X128878985Y-98517519D01*
X128997519Y-98398985D01*
X129136900Y-98305853D01*
X129291772Y-98241703D01*
X129456184Y-98209000D01*
X129623816Y-98209000D01*
X129788228Y-98241703D01*
G37*
G36*
X122168228Y-98241703D02*
G01*
X122323100Y-98305853D01*
X122462481Y-98398985D01*
X122581015Y-98517519D01*
X122674147Y-98656900D01*
X122738297Y-98811772D01*
X122771000Y-98976184D01*
X122771000Y-99143816D01*
X122738297Y-99308228D01*
X122674147Y-99463100D01*
X122581015Y-99602481D01*
X122462481Y-99721015D01*
X122323100Y-99814147D01*
X122168228Y-99878297D01*
X122003816Y-99911000D01*
X121836184Y-99911000D01*
X121671772Y-99878297D01*
X121516900Y-99814147D01*
X121377519Y-99721015D01*
X121258985Y-99602481D01*
X121165853Y-99463100D01*
X121101703Y-99308228D01*
X121069000Y-99143816D01*
X121069000Y-98976184D01*
X121101703Y-98811772D01*
X121165853Y-98656900D01*
X121258985Y-98517519D01*
X121377519Y-98398985D01*
X121516900Y-98305853D01*
X121671772Y-98241703D01*
X121836184Y-98209000D01*
X122003816Y-98209000D01*
X122168228Y-98241703D01*
G37*
G36*
X148896564Y-95509389D02*
G01*
X149087833Y-95588615D01*
X149087835Y-95588616D01*
X149259973Y-95703635D01*
X149406365Y-95850027D01*
X149509345Y-96004147D01*
X149521385Y-96022167D01*
X149600611Y-96213436D01*
X149641000Y-96416484D01*
X149641000Y-96623516D01*
X149600611Y-96826564D01*
X149521385Y-97017833D01*
X149521384Y-97017835D01*
X149406365Y-97189973D01*
X149259973Y-97336365D01*
X149087835Y-97451384D01*
X149087834Y-97451385D01*
X149087833Y-97451385D01*
X148896564Y-97530611D01*
X148693516Y-97571000D01*
X148486484Y-97571000D01*
X148283436Y-97530611D01*
X148092167Y-97451385D01*
X148092166Y-97451385D01*
X148092165Y-97451384D01*
X147920027Y-97336365D01*
X147773635Y-97189973D01*
X147658616Y-97017835D01*
X147658615Y-97017833D01*
X147579389Y-96826564D01*
X147539000Y-96623516D01*
X147539000Y-96416484D01*
X147579389Y-96213436D01*
X147658615Y-96022167D01*
X147670656Y-96004147D01*
X147773635Y-95850027D01*
X147920027Y-95703635D01*
X148092165Y-95588616D01*
X148092167Y-95588615D01*
X148283436Y-95509389D01*
X148486484Y-95469000D01*
X148693516Y-95469000D01*
X148896564Y-95509389D01*
G37*
G36*
X141396564Y-95509389D02*
G01*
X141587833Y-95588615D01*
X141587835Y-95588616D01*
X141759973Y-95703635D01*
X141906365Y-95850027D01*
X142009345Y-96004147D01*
X142021385Y-96022167D01*
X142100611Y-96213436D01*
X142141000Y-96416484D01*
X142141000Y-96623516D01*
X142100611Y-96826564D01*
X142021385Y-97017833D01*
X142021384Y-97017835D01*
X141906365Y-97189973D01*
X141759973Y-97336365D01*
X141587835Y-97451384D01*
X141587834Y-97451385D01*
X141587833Y-97451385D01*
X141396564Y-97530611D01*
X141193516Y-97571000D01*
X140986484Y-97571000D01*
X140783436Y-97530611D01*
X140592167Y-97451385D01*
X140592166Y-97451385D01*
X140592165Y-97451384D01*
X140420027Y-97336365D01*
X140273635Y-97189973D01*
X140158616Y-97017835D01*
X140158615Y-97017833D01*
X140079389Y-96826564D01*
X140039000Y-96623516D01*
X140039000Y-96416484D01*
X140079389Y-96213436D01*
X140158615Y-96022167D01*
X140170656Y-96004147D01*
X140273635Y-95850027D01*
X140420027Y-95703635D01*
X140592165Y-95588616D01*
X140592167Y-95588615D01*
X140783436Y-95509389D01*
X140986484Y-95469000D01*
X141193516Y-95469000D01*
X141396564Y-95509389D01*
G37*
G36*
X155741000Y-97321000D02*
G01*
X154139000Y-97321000D01*
X154139000Y-95719000D01*
X155741000Y-95719000D01*
X155741000Y-97321000D01*
G37*
G36*
X136691000Y-97321000D02*
G01*
X135089000Y-97321000D01*
X135089000Y-95719000D01*
X136691000Y-95719000D01*
X136691000Y-97321000D01*
G37*
G36*
X171698228Y-94431703D02*
G01*
X171853100Y-94495853D01*
X171992481Y-94588985D01*
X172111015Y-94707519D01*
X172204147Y-94846900D01*
X172268297Y-95001772D01*
X172301000Y-95166184D01*
X172301000Y-95333816D01*
X172268297Y-95498228D01*
X172204147Y-95653100D01*
X172111015Y-95792481D01*
X171992481Y-95911015D01*
X171853100Y-96004147D01*
X171698228Y-96068297D01*
X171533816Y-96101000D01*
X171366184Y-96101000D01*
X171201772Y-96068297D01*
X171046900Y-96004147D01*
X170907519Y-95911015D01*
X170788985Y-95792481D01*
X170695853Y-95653100D01*
X170631703Y-95498228D01*
X170599000Y-95333816D01*
X170599000Y-95166184D01*
X170631703Y-95001772D01*
X170695853Y-94846900D01*
X170788985Y-94707519D01*
X170907519Y-94588985D01*
X171046900Y-94495853D01*
X171201772Y-94431703D01*
X171366184Y-94399000D01*
X171533816Y-94399000D01*
X171698228Y-94431703D01*
G37*
G36*
X186967395Y-93065546D02*
G01*
X187140466Y-93137234D01*
X187140467Y-93137235D01*
X187296227Y-93241310D01*
X187428690Y-93373773D01*
X187428691Y-93373775D01*
X187532766Y-93529534D01*
X187604454Y-93702605D01*
X187641000Y-93886333D01*
X187641000Y-94073667D01*
X187604454Y-94257395D01*
X187532766Y-94430466D01*
X187532765Y-94430467D01*
X187428690Y-94586227D01*
X187296227Y-94718690D01*
X187249042Y-94750218D01*
X187140466Y-94822766D01*
X186967395Y-94894454D01*
X186783667Y-94931000D01*
X186596333Y-94931000D01*
X186412605Y-94894454D01*
X186239534Y-94822766D01*
X186130958Y-94750218D01*
X186083773Y-94718690D01*
X185951310Y-94586227D01*
X185847235Y-94430467D01*
X185847234Y-94430466D01*
X185775546Y-94257395D01*
X185739000Y-94073667D01*
X185739000Y-93886333D01*
X185775546Y-93702605D01*
X185847234Y-93529534D01*
X185951309Y-93373775D01*
X185951310Y-93373773D01*
X186083773Y-93241310D01*
X186239533Y-93137235D01*
X186239534Y-93137234D01*
X186412605Y-93065546D01*
X186596333Y-93029000D01*
X186783667Y-93029000D01*
X186967395Y-93065546D01*
G37*
G36*
X105054600Y-94894600D02*
G01*
X103225400Y-94894600D01*
X103225400Y-93065400D01*
X105054600Y-93065400D01*
X105054600Y-94894600D01*
G37*
G36*
X101866778Y-93100547D02*
G01*
X102033224Y-93169491D01*
X102183022Y-93269583D01*
X102310417Y-93396978D01*
X102410509Y-93546776D01*
X102479453Y-93713222D01*
X102514600Y-93889918D01*
X102514600Y-94070082D01*
X102479453Y-94246778D01*
X102410509Y-94413224D01*
X102310417Y-94563022D01*
X102183022Y-94690417D01*
X102033224Y-94790509D01*
X101866778Y-94859453D01*
X101690082Y-94894600D01*
X101509918Y-94894600D01*
X101333222Y-94859453D01*
X101166776Y-94790509D01*
X101016978Y-94690417D01*
X100889583Y-94563022D01*
X100789491Y-94413224D01*
X100720547Y-94246778D01*
X100685400Y-94070082D01*
X100685400Y-93889918D01*
X100720547Y-93713222D01*
X100789491Y-93546776D01*
X100889583Y-93396978D01*
X101016978Y-93269583D01*
X101166776Y-93169491D01*
X101333222Y-93100547D01*
X101509918Y-93065400D01*
X101690082Y-93065400D01*
X101866778Y-93100547D01*
G37*
G36*
X152633642Y-93209781D02*
G01*
X152779414Y-93270162D01*
X152779416Y-93270163D01*
X152910608Y-93357822D01*
X153022178Y-93469392D01*
X153109837Y-93600584D01*
X153109838Y-93600586D01*
X153170219Y-93746358D01*
X153201000Y-93901107D01*
X153201000Y-94058893D01*
X153170219Y-94213642D01*
X153152095Y-94257396D01*
X153109837Y-94359416D01*
X153022178Y-94490608D01*
X152910608Y-94602178D01*
X152779416Y-94689837D01*
X152779415Y-94689838D01*
X152779414Y-94689838D01*
X152633642Y-94750219D01*
X152478893Y-94781000D01*
X152321107Y-94781000D01*
X152166358Y-94750219D01*
X152020586Y-94689838D01*
X152020585Y-94689838D01*
X152020584Y-94689837D01*
X151889392Y-94602178D01*
X151777822Y-94490608D01*
X151690163Y-94359416D01*
X151647905Y-94257396D01*
X151629781Y-94213642D01*
X151599000Y-94058893D01*
X151599000Y-93901107D01*
X151629781Y-93746358D01*
X151690162Y-93600586D01*
X151690163Y-93600584D01*
X151777822Y-93469392D01*
X151889392Y-93357822D01*
X152020584Y-93270163D01*
X152020586Y-93270162D01*
X152166358Y-93209781D01*
X152321107Y-93179000D01*
X152478893Y-93179000D01*
X152633642Y-93209781D01*
G37*
G36*
X133583642Y-93209781D02*
G01*
X133729414Y-93270162D01*
X133729416Y-93270163D01*
X133860608Y-93357822D01*
X133972178Y-93469392D01*
X134059837Y-93600584D01*
X134059838Y-93600586D01*
X134120219Y-93746358D01*
X134151000Y-93901107D01*
X134151000Y-94058893D01*
X134120219Y-94213642D01*
X134102095Y-94257396D01*
X134059837Y-94359416D01*
X133972178Y-94490608D01*
X133860608Y-94602178D01*
X133729416Y-94689837D01*
X133729415Y-94689838D01*
X133729414Y-94689838D01*
X133583642Y-94750219D01*
X133428893Y-94781000D01*
X133271107Y-94781000D01*
X133116358Y-94750219D01*
X132970586Y-94689838D01*
X132970585Y-94689838D01*
X132970584Y-94689837D01*
X132839392Y-94602178D01*
X132727822Y-94490608D01*
X132640163Y-94359416D01*
X132597905Y-94257396D01*
X132579781Y-94213642D01*
X132549000Y-94058893D01*
X132549000Y-93901107D01*
X132579781Y-93746358D01*
X132640162Y-93600586D01*
X132640163Y-93600584D01*
X132727822Y-93469392D01*
X132839392Y-93357822D01*
X132970584Y-93270163D01*
X132970586Y-93270162D01*
X133116358Y-93209781D01*
X133271107Y-93179000D01*
X133428893Y-93179000D01*
X133583642Y-93209781D01*
G37*
G36*
X186967395Y-90565546D02*
G01*
X187140466Y-90637234D01*
X187164211Y-90653100D01*
X187296227Y-90741310D01*
X187428690Y-90873773D01*
X187428691Y-90873775D01*
X187532766Y-91029534D01*
X187604454Y-91202605D01*
X187641000Y-91386333D01*
X187641000Y-91573667D01*
X187604454Y-91757395D01*
X187532766Y-91930466D01*
X187481081Y-92007818D01*
X187428690Y-92086227D01*
X187296227Y-92218690D01*
X187248608Y-92250508D01*
X187140466Y-92322766D01*
X186967395Y-92394454D01*
X186783667Y-92431000D01*
X186596333Y-92431000D01*
X186412605Y-92394454D01*
X186239534Y-92322766D01*
X186131392Y-92250508D01*
X186083773Y-92218690D01*
X185951310Y-92086227D01*
X185898919Y-92007818D01*
X185847234Y-91930466D01*
X185775546Y-91757395D01*
X185739000Y-91573667D01*
X185739000Y-91386333D01*
X185775546Y-91202605D01*
X185847234Y-91029534D01*
X185951309Y-90873775D01*
X185951310Y-90873773D01*
X186083773Y-90741310D01*
X186215789Y-90653100D01*
X186239534Y-90637234D01*
X186412605Y-90565546D01*
X186596333Y-90529000D01*
X186783667Y-90529000D01*
X186967395Y-90565546D01*
G37*
G36*
X104406778Y-90560547D02*
G01*
X104573224Y-90629491D01*
X104723022Y-90729583D01*
X104850417Y-90856978D01*
X104950509Y-91006776D01*
X105019453Y-91173222D01*
X105054600Y-91349918D01*
X105054600Y-91530082D01*
X105019453Y-91706778D01*
X104950509Y-91873224D01*
X104850417Y-92023022D01*
X104723022Y-92150417D01*
X104573224Y-92250509D01*
X104406778Y-92319453D01*
X104230082Y-92354600D01*
X104049918Y-92354600D01*
X103873222Y-92319453D01*
X103706776Y-92250509D01*
X103556978Y-92150417D01*
X103429583Y-92023022D01*
X103329491Y-91873224D01*
X103260547Y-91706778D01*
X103225400Y-91530082D01*
X103225400Y-91349918D01*
X103260547Y-91173222D01*
X103329491Y-91006776D01*
X103429583Y-90856978D01*
X103556978Y-90729583D01*
X103706776Y-90629491D01*
X103873222Y-90560547D01*
X104049918Y-90525400D01*
X104230082Y-90525400D01*
X104406778Y-90560547D01*
G37*
G36*
X101866778Y-90560547D02*
G01*
X102033224Y-90629491D01*
X102183022Y-90729583D01*
X102310417Y-90856978D01*
X102410509Y-91006776D01*
X102479453Y-91173222D01*
X102514600Y-91349918D01*
X102514600Y-91530082D01*
X102479453Y-91706778D01*
X102410509Y-91873224D01*
X102310417Y-92023022D01*
X102183022Y-92150417D01*
X102033224Y-92250509D01*
X101866778Y-92319453D01*
X101690082Y-92354600D01*
X101509918Y-92354600D01*
X101333222Y-92319453D01*
X101166776Y-92250509D01*
X101016978Y-92150417D01*
X100889583Y-92023022D01*
X100789491Y-91873224D01*
X100720547Y-91706778D01*
X100685400Y-91530082D01*
X100685400Y-91349918D01*
X100720547Y-91173222D01*
X100789491Y-91006776D01*
X100889583Y-90856978D01*
X101016978Y-90729583D01*
X101166776Y-90629491D01*
X101333222Y-90560547D01*
X101509918Y-90525400D01*
X101690082Y-90525400D01*
X101866778Y-90560547D01*
G37*
G36*
X129788228Y-90621703D02*
G01*
X129943100Y-90685853D01*
X130082481Y-90778985D01*
X130201015Y-90897519D01*
X130294147Y-91036900D01*
X130358297Y-91191772D01*
X130391000Y-91356184D01*
X130391000Y-91523816D01*
X130358297Y-91688228D01*
X130294147Y-91843100D01*
X130201015Y-91982481D01*
X130082481Y-92101015D01*
X129943100Y-92194147D01*
X129788228Y-92258297D01*
X129623816Y-92291000D01*
X129456184Y-92291000D01*
X129291772Y-92258297D01*
X129136900Y-92194147D01*
X128997519Y-92101015D01*
X128878985Y-91982481D01*
X128785853Y-91843100D01*
X128721703Y-91688228D01*
X128689000Y-91523816D01*
X128689000Y-91356184D01*
X128721703Y-91191772D01*
X128785853Y-91036900D01*
X128878985Y-90897519D01*
X128997519Y-90778985D01*
X129136900Y-90685853D01*
X129291772Y-90621703D01*
X129456184Y-90589000D01*
X129623816Y-90589000D01*
X129788228Y-90621703D01*
G37*
G36*
X122168228Y-90621703D02*
G01*
X122323100Y-90685853D01*
X122462481Y-90778985D01*
X122581015Y-90897519D01*
X122674147Y-91036900D01*
X122738297Y-91191772D01*
X122771000Y-91356184D01*
X122771000Y-91523816D01*
X122738297Y-91688228D01*
X122674147Y-91843100D01*
X122581015Y-91982481D01*
X122462481Y-92101015D01*
X122323100Y-92194147D01*
X122168228Y-92258297D01*
X122003816Y-92291000D01*
X121836184Y-92291000D01*
X121671772Y-92258297D01*
X121516900Y-92194147D01*
X121377519Y-92101015D01*
X121258985Y-91982481D01*
X121165853Y-91843100D01*
X121101703Y-91688228D01*
X121069000Y-91523816D01*
X121069000Y-91356184D01*
X121101703Y-91191772D01*
X121165853Y-91036900D01*
X121258985Y-90897519D01*
X121377519Y-90778985D01*
X121516900Y-90685853D01*
X121671772Y-90621703D01*
X121836184Y-90589000D01*
X122003816Y-90589000D01*
X122168228Y-90621703D01*
G37*
G36*
X114535443Y-90465519D02*
G01*
X114601627Y-90472037D01*
X114771466Y-90523557D01*
X114927991Y-90607222D01*
X114955127Y-90629492D01*
X115065186Y-90719814D01*
X115124821Y-90792481D01*
X115177778Y-90857009D01*
X115261443Y-91013534D01*
X115312963Y-91183373D01*
X115330359Y-91360000D01*
X115312963Y-91536627D01*
X115261443Y-91706466D01*
X115177778Y-91862991D01*
X115169379Y-91873225D01*
X115065186Y-92000186D01*
X114989647Y-92062178D01*
X114927991Y-92112778D01*
X114927989Y-92112779D01*
X114775762Y-92194147D01*
X114771466Y-92196443D01*
X114601627Y-92247963D01*
X114535442Y-92254482D01*
X114469260Y-92261000D01*
X114130740Y-92261000D01*
X114064558Y-92254482D01*
X113998373Y-92247963D01*
X113828534Y-92196443D01*
X113824239Y-92194147D01*
X113672011Y-92112779D01*
X113672009Y-92112778D01*
X113610353Y-92062178D01*
X113534814Y-92000186D01*
X113430621Y-91873225D01*
X113422222Y-91862991D01*
X113338557Y-91706466D01*
X113287037Y-91536627D01*
X113269641Y-91360000D01*
X113287037Y-91183373D01*
X113338557Y-91013534D01*
X113422222Y-90857009D01*
X113475179Y-90792481D01*
X113534814Y-90719814D01*
X113644873Y-90629492D01*
X113672009Y-90607222D01*
X113828534Y-90523557D01*
X113998373Y-90472037D01*
X114064557Y-90465519D01*
X114130740Y-90459000D01*
X114469260Y-90459000D01*
X114535443Y-90465519D01*
G37*
G36*
X136123642Y-90669781D02*
G01*
X136269414Y-90730162D01*
X136269416Y-90730163D01*
X136400608Y-90817822D01*
X136512178Y-90929392D01*
X136579090Y-91029534D01*
X136599838Y-91060586D01*
X136660219Y-91206358D01*
X136691000Y-91361107D01*
X136691000Y-91518893D01*
X136660219Y-91673642D01*
X136599838Y-91819414D01*
X136599837Y-91819416D01*
X136512178Y-91950608D01*
X136400608Y-92062178D01*
X136269416Y-92149837D01*
X136269415Y-92149838D01*
X136269414Y-92149838D01*
X136123642Y-92210219D01*
X135968893Y-92241000D01*
X135811107Y-92241000D01*
X135656358Y-92210219D01*
X135510586Y-92149838D01*
X135510585Y-92149838D01*
X135510584Y-92149837D01*
X135379392Y-92062178D01*
X135267822Y-91950608D01*
X135180163Y-91819416D01*
X135180162Y-91819414D01*
X135119781Y-91673642D01*
X135089000Y-91518893D01*
X135089000Y-91361107D01*
X135119781Y-91206358D01*
X135180162Y-91060586D01*
X135200910Y-91029534D01*
X135267822Y-90929392D01*
X135379392Y-90817822D01*
X135510584Y-90730163D01*
X135510586Y-90730162D01*
X135656358Y-90669781D01*
X135811107Y-90639000D01*
X135968893Y-90639000D01*
X136123642Y-90669781D01*
G37*
G36*
X155173642Y-90669781D02*
G01*
X155319414Y-90730162D01*
X155319416Y-90730163D01*
X155450608Y-90817822D01*
X155562178Y-90929392D01*
X155629090Y-91029534D01*
X155649838Y-91060586D01*
X155710219Y-91206358D01*
X155741000Y-91361107D01*
X155741000Y-91518893D01*
X155710219Y-91673642D01*
X155649838Y-91819414D01*
X155649837Y-91819416D01*
X155562178Y-91950608D01*
X155450608Y-92062178D01*
X155319416Y-92149837D01*
X155319415Y-92149838D01*
X155319414Y-92149838D01*
X155173642Y-92210219D01*
X155018893Y-92241000D01*
X154861107Y-92241000D01*
X154706358Y-92210219D01*
X154560586Y-92149838D01*
X154560585Y-92149838D01*
X154560584Y-92149837D01*
X154429392Y-92062178D01*
X154317822Y-91950608D01*
X154230163Y-91819416D01*
X154230162Y-91819414D01*
X154169781Y-91673642D01*
X154139000Y-91518893D01*
X154139000Y-91361107D01*
X154169781Y-91206358D01*
X154230162Y-91060586D01*
X154250910Y-91029534D01*
X154317822Y-90929392D01*
X154429392Y-90817822D01*
X154560584Y-90730163D01*
X154560586Y-90730162D01*
X154706358Y-90669781D01*
X154861107Y-90639000D01*
X155018893Y-90639000D01*
X155173642Y-90669781D01*
G37*
G36*
X171698228Y-89431703D02*
G01*
X171853100Y-89495853D01*
X171992481Y-89588985D01*
X172111015Y-89707519D01*
X172204147Y-89846900D01*
X172268297Y-90001772D01*
X172301000Y-90166184D01*
X172301000Y-90333816D01*
X172268297Y-90498228D01*
X172204147Y-90653100D01*
X172111015Y-90792481D01*
X171992481Y-90911015D01*
X171853100Y-91004147D01*
X171698228Y-91068297D01*
X171533816Y-91101000D01*
X171366184Y-91101000D01*
X171201772Y-91068297D01*
X171046900Y-91004147D01*
X170907519Y-90911015D01*
X170788985Y-90792481D01*
X170695853Y-90653100D01*
X170631703Y-90498228D01*
X170599000Y-90333816D01*
X170599000Y-90166184D01*
X170631703Y-90001772D01*
X170695853Y-89846900D01*
X170788985Y-89707519D01*
X170907519Y-89588985D01*
X171046900Y-89495853D01*
X171201772Y-89431703D01*
X171366184Y-89399000D01*
X171533816Y-89399000D01*
X171698228Y-89431703D01*
G37*
G36*
X186967395Y-88065546D02*
G01*
X187140466Y-88137234D01*
X187140467Y-88137235D01*
X187296227Y-88241310D01*
X187428690Y-88373773D01*
X187428691Y-88373775D01*
X187532766Y-88529534D01*
X187604454Y-88702605D01*
X187641000Y-88886333D01*
X187641000Y-89073667D01*
X187604454Y-89257395D01*
X187532766Y-89430466D01*
X187481081Y-89507818D01*
X187428690Y-89586227D01*
X187296227Y-89718690D01*
X187232905Y-89761000D01*
X187140466Y-89822766D01*
X186967395Y-89894454D01*
X186783667Y-89931000D01*
X186596333Y-89931000D01*
X186412605Y-89894454D01*
X186239534Y-89822766D01*
X186147095Y-89761000D01*
X186083773Y-89718690D01*
X185951310Y-89586227D01*
X185898919Y-89507818D01*
X185847234Y-89430466D01*
X185775546Y-89257395D01*
X185739000Y-89073667D01*
X185739000Y-88886333D01*
X185775546Y-88702605D01*
X185847234Y-88529534D01*
X185951309Y-88373775D01*
X185951310Y-88373773D01*
X186083773Y-88241310D01*
X186239533Y-88137235D01*
X186239534Y-88137234D01*
X186412605Y-88065546D01*
X186596333Y-88029000D01*
X186783667Y-88029000D01*
X186967395Y-88065546D01*
G37*
G36*
X104406778Y-88020547D02*
G01*
X104573224Y-88089491D01*
X104723022Y-88189583D01*
X104850417Y-88316978D01*
X104950509Y-88466776D01*
X105019453Y-88633222D01*
X105054600Y-88809918D01*
X105054600Y-88990082D01*
X105019453Y-89166778D01*
X104950509Y-89333224D01*
X104850417Y-89483022D01*
X104723022Y-89610417D01*
X104573224Y-89710509D01*
X104406778Y-89779453D01*
X104230082Y-89814600D01*
X104049918Y-89814600D01*
X103873222Y-89779453D01*
X103706776Y-89710509D01*
X103556978Y-89610417D01*
X103429583Y-89483022D01*
X103329491Y-89333224D01*
X103260547Y-89166778D01*
X103225400Y-88990082D01*
X103225400Y-88809918D01*
X103260547Y-88633222D01*
X103329491Y-88466776D01*
X103429583Y-88316978D01*
X103556978Y-88189583D01*
X103706776Y-88089491D01*
X103873222Y-88020547D01*
X104049918Y-87985400D01*
X104230082Y-87985400D01*
X104406778Y-88020547D01*
G37*
G36*
X101866778Y-88020547D02*
G01*
X102033224Y-88089491D01*
X102183022Y-88189583D01*
X102310417Y-88316978D01*
X102410509Y-88466776D01*
X102479453Y-88633222D01*
X102514600Y-88809918D01*
X102514600Y-88990082D01*
X102479453Y-89166778D01*
X102410509Y-89333224D01*
X102310417Y-89483022D01*
X102183022Y-89610417D01*
X102033224Y-89710509D01*
X101866778Y-89779453D01*
X101690082Y-89814600D01*
X101509918Y-89814600D01*
X101333222Y-89779453D01*
X101166776Y-89710509D01*
X101016978Y-89610417D01*
X100889583Y-89483022D01*
X100789491Y-89333224D01*
X100720547Y-89166778D01*
X100685400Y-88990082D01*
X100685400Y-88809918D01*
X100720547Y-88633222D01*
X100789491Y-88466776D01*
X100889583Y-88316978D01*
X101016978Y-88189583D01*
X101166776Y-88089491D01*
X101333222Y-88020547D01*
X101509918Y-87985400D01*
X101690082Y-87985400D01*
X101866778Y-88020547D01*
G37*
G36*
X114535443Y-87965519D02*
G01*
X114601627Y-87972037D01*
X114771466Y-88023557D01*
X114927991Y-88107222D01*
X114953105Y-88127833D01*
X115065186Y-88219814D01*
X115144924Y-88316977D01*
X115177778Y-88357009D01*
X115261443Y-88513534D01*
X115312963Y-88683373D01*
X115330359Y-88860000D01*
X115312963Y-89036627D01*
X115261443Y-89206466D01*
X115177778Y-89362991D01*
X115148448Y-89398729D01*
X115065186Y-89500186D01*
X114963729Y-89583448D01*
X114927991Y-89612778D01*
X114771466Y-89696443D01*
X114601627Y-89747963D01*
X114535443Y-89754481D01*
X114469260Y-89761000D01*
X114130740Y-89761000D01*
X114064557Y-89754481D01*
X113998373Y-89747963D01*
X113828534Y-89696443D01*
X113672009Y-89612778D01*
X113636271Y-89583448D01*
X113534814Y-89500186D01*
X113451552Y-89398729D01*
X113422222Y-89362991D01*
X113338557Y-89206466D01*
X113287037Y-89036627D01*
X113269641Y-88860000D01*
X113287037Y-88683373D01*
X113338557Y-88513534D01*
X113422222Y-88357009D01*
X113455076Y-88316977D01*
X113534814Y-88219814D01*
X113646895Y-88127833D01*
X113672009Y-88107222D01*
X113828534Y-88023557D01*
X113998373Y-87972037D01*
X114064557Y-87965519D01*
X114130740Y-87959000D01*
X114469260Y-87959000D01*
X114535443Y-87965519D01*
G37*
G36*
X141396564Y-86619389D02*
G01*
X141587833Y-86698615D01*
X141587835Y-86698616D01*
X141759973Y-86813635D01*
X141906365Y-86960027D01*
X141980125Y-87070416D01*
X142021385Y-87132167D01*
X142100611Y-87323436D01*
X142141000Y-87526484D01*
X142141000Y-87733516D01*
X142100611Y-87936564D01*
X142037266Y-88089492D01*
X142021384Y-88127835D01*
X141906365Y-88299973D01*
X141759973Y-88446365D01*
X141587835Y-88561384D01*
X141587834Y-88561385D01*
X141587833Y-88561385D01*
X141396564Y-88640611D01*
X141193516Y-88681000D01*
X140986484Y-88681000D01*
X140783436Y-88640611D01*
X140592167Y-88561385D01*
X140592166Y-88561385D01*
X140592165Y-88561384D01*
X140420027Y-88446365D01*
X140273635Y-88299973D01*
X140158616Y-88127835D01*
X140142734Y-88089492D01*
X140079389Y-87936564D01*
X140039000Y-87733516D01*
X140039000Y-87526484D01*
X140079389Y-87323436D01*
X140158615Y-87132167D01*
X140199876Y-87070416D01*
X140273635Y-86960027D01*
X140420027Y-86813635D01*
X140592165Y-86698616D01*
X140592167Y-86698615D01*
X140783436Y-86619389D01*
X140986484Y-86579000D01*
X141193516Y-86579000D01*
X141396564Y-86619389D01*
G37*
G36*
X148896564Y-86619389D02*
G01*
X149087833Y-86698615D01*
X149087835Y-86698616D01*
X149259973Y-86813635D01*
X149406365Y-86960027D01*
X149480125Y-87070416D01*
X149521385Y-87132167D01*
X149600611Y-87323436D01*
X149641000Y-87526484D01*
X149641000Y-87733516D01*
X149600611Y-87936564D01*
X149537266Y-88089492D01*
X149521384Y-88127835D01*
X149406365Y-88299973D01*
X149259973Y-88446365D01*
X149087835Y-88561384D01*
X149087834Y-88561385D01*
X149087833Y-88561385D01*
X148896564Y-88640611D01*
X148693516Y-88681000D01*
X148486484Y-88681000D01*
X148283436Y-88640611D01*
X148092167Y-88561385D01*
X148092166Y-88561385D01*
X148092165Y-88561384D01*
X147920027Y-88446365D01*
X147773635Y-88299973D01*
X147658616Y-88127835D01*
X147642734Y-88089492D01*
X147579389Y-87936564D01*
X147539000Y-87733516D01*
X147539000Y-87526484D01*
X147579389Y-87323436D01*
X147658615Y-87132167D01*
X147699876Y-87070416D01*
X147773635Y-86960027D01*
X147920027Y-86813635D01*
X148092165Y-86698616D01*
X148092167Y-86698615D01*
X148283436Y-86619389D01*
X148486484Y-86579000D01*
X148693516Y-86579000D01*
X148896564Y-86619389D01*
G37*
G36*
X155741000Y-88431000D02*
G01*
X154139000Y-88431000D01*
X154139000Y-86829000D01*
X155741000Y-86829000D01*
X155741000Y-88431000D01*
G37*
G36*
X136691000Y-88431000D02*
G01*
X135089000Y-88431000D01*
X135089000Y-86829000D01*
X136691000Y-86829000D01*
X136691000Y-88431000D01*
G37*
G36*
X104406778Y-85480547D02*
G01*
X104573224Y-85549491D01*
X104723022Y-85649583D01*
X104850417Y-85776978D01*
X104950509Y-85926776D01*
X105019453Y-86093222D01*
X105054600Y-86269918D01*
X105054600Y-86450082D01*
X105019453Y-86626778D01*
X104950509Y-86793224D01*
X104850417Y-86943022D01*
X104723022Y-87070417D01*
X104573224Y-87170509D01*
X104406778Y-87239453D01*
X104230082Y-87274600D01*
X104049918Y-87274600D01*
X103873222Y-87239453D01*
X103706776Y-87170509D01*
X103556978Y-87070417D01*
X103429583Y-86943022D01*
X103329491Y-86793224D01*
X103260547Y-86626778D01*
X103225400Y-86450082D01*
X103225400Y-86269918D01*
X103260547Y-86093222D01*
X103329491Y-85926776D01*
X103429583Y-85776978D01*
X103556978Y-85649583D01*
X103706776Y-85549491D01*
X103873222Y-85480547D01*
X104049918Y-85445400D01*
X104230082Y-85445400D01*
X104406778Y-85480547D01*
G37*
G36*
X101866778Y-85480547D02*
G01*
X102033224Y-85549491D01*
X102183022Y-85649583D01*
X102310417Y-85776978D01*
X102410509Y-85926776D01*
X102479453Y-86093222D01*
X102514600Y-86269918D01*
X102514600Y-86450082D01*
X102479453Y-86626778D01*
X102410509Y-86793224D01*
X102310417Y-86943022D01*
X102183022Y-87070417D01*
X102033224Y-87170509D01*
X101866778Y-87239453D01*
X101690082Y-87274600D01*
X101509918Y-87274600D01*
X101333222Y-87239453D01*
X101166776Y-87170509D01*
X101016978Y-87070417D01*
X100889583Y-86943022D01*
X100789491Y-86793224D01*
X100720547Y-86626778D01*
X100685400Y-86450082D01*
X100685400Y-86269918D01*
X100720547Y-86093222D01*
X100789491Y-85926776D01*
X100889583Y-85776978D01*
X101016978Y-85649583D01*
X101166776Y-85549491D01*
X101333222Y-85480547D01*
X101509918Y-85445400D01*
X101690082Y-85445400D01*
X101866778Y-85480547D01*
G37*
G36*
X115183600Y-85462989D02*
G01*
X115216652Y-85473015D01*
X115247103Y-85489292D01*
X115273799Y-85511201D01*
X115295708Y-85537897D01*
X115311985Y-85568348D01*
X115322011Y-85601400D01*
X115326000Y-85641903D01*
X115326000Y-87078097D01*
X115322011Y-87118600D01*
X115311985Y-87151652D01*
X115295708Y-87182103D01*
X115273799Y-87208799D01*
X115247103Y-87230708D01*
X115216652Y-87246985D01*
X115183600Y-87257011D01*
X115143097Y-87261000D01*
X113456903Y-87261000D01*
X113416400Y-87257011D01*
X113383348Y-87246985D01*
X113352897Y-87230708D01*
X113326201Y-87208799D01*
X113304292Y-87182103D01*
X113288015Y-87151652D01*
X113277989Y-87118600D01*
X113274000Y-87078097D01*
X113274000Y-85641903D01*
X113277989Y-85601400D01*
X113288015Y-85568348D01*
X113304292Y-85537897D01*
X113326201Y-85511201D01*
X113352897Y-85489292D01*
X113383348Y-85473015D01*
X113416400Y-85462989D01*
X113456903Y-85459000D01*
X115143097Y-85459000D01*
X115183600Y-85462989D01*
G37*
G36*
X133583642Y-84319781D02*
G01*
X133729414Y-84380162D01*
X133729416Y-84380163D01*
X133860608Y-84467822D01*
X133972178Y-84579392D01*
X134059837Y-84710584D01*
X134059838Y-84710586D01*
X134120219Y-84856358D01*
X134151000Y-85011107D01*
X134151000Y-85168893D01*
X134120219Y-85323642D01*
X134062499Y-85462989D01*
X134059837Y-85469416D01*
X133972178Y-85600608D01*
X133860608Y-85712178D01*
X133729416Y-85799837D01*
X133729415Y-85799838D01*
X133729414Y-85799838D01*
X133583642Y-85860219D01*
X133428893Y-85891000D01*
X133271107Y-85891000D01*
X133116358Y-85860219D01*
X132970586Y-85799838D01*
X132970585Y-85799838D01*
X132970584Y-85799837D01*
X132839392Y-85712178D01*
X132727822Y-85600608D01*
X132640163Y-85469416D01*
X132637501Y-85462989D01*
X132579781Y-85323642D01*
X132549000Y-85168893D01*
X132549000Y-85011107D01*
X132579781Y-84856358D01*
X132640162Y-84710586D01*
X132640163Y-84710584D01*
X132727822Y-84579392D01*
X132839392Y-84467822D01*
X132970584Y-84380163D01*
X132970586Y-84380162D01*
X133116358Y-84319781D01*
X133271107Y-84289000D01*
X133428893Y-84289000D01*
X133583642Y-84319781D01*
G37*
G36*
X152633642Y-84319781D02*
G01*
X152779414Y-84380162D01*
X152779416Y-84380163D01*
X152910608Y-84467822D01*
X153022178Y-84579392D01*
X153109837Y-84710584D01*
X153109838Y-84710586D01*
X153170219Y-84856358D01*
X153201000Y-85011107D01*
X153201000Y-85168893D01*
X153170219Y-85323642D01*
X153112499Y-85462989D01*
X153109837Y-85469416D01*
X153022178Y-85600608D01*
X152910608Y-85712178D01*
X152779416Y-85799837D01*
X152779415Y-85799838D01*
X152779414Y-85799838D01*
X152633642Y-85860219D01*
X152478893Y-85891000D01*
X152321107Y-85891000D01*
X152166358Y-85860219D01*
X152020586Y-85799838D01*
X152020585Y-85799838D01*
X152020584Y-85799837D01*
X151889392Y-85712178D01*
X151777822Y-85600608D01*
X151690163Y-85469416D01*
X151687501Y-85462989D01*
X151629781Y-85323642D01*
X151599000Y-85168893D01*
X151599000Y-85011107D01*
X151629781Y-84856358D01*
X151690162Y-84710586D01*
X151690163Y-84710584D01*
X151777822Y-84579392D01*
X151889392Y-84467822D01*
X152020584Y-84380163D01*
X152020586Y-84380162D01*
X152166358Y-84319781D01*
X152321107Y-84289000D01*
X152478893Y-84289000D01*
X152633642Y-84319781D01*
G37*
G36*
X104406778Y-82940547D02*
G01*
X104573224Y-83009491D01*
X104723022Y-83109583D01*
X104850417Y-83236978D01*
X104950509Y-83386776D01*
X105019453Y-83553222D01*
X105054600Y-83729918D01*
X105054600Y-83910082D01*
X105019453Y-84086778D01*
X104950509Y-84253224D01*
X104850417Y-84403022D01*
X104723022Y-84530417D01*
X104573224Y-84630509D01*
X104406778Y-84699453D01*
X104230082Y-84734600D01*
X104049918Y-84734600D01*
X103873222Y-84699453D01*
X103706776Y-84630509D01*
X103556978Y-84530417D01*
X103429583Y-84403022D01*
X103329491Y-84253224D01*
X103260547Y-84086778D01*
X103225400Y-83910082D01*
X103225400Y-83729918D01*
X103260547Y-83553222D01*
X103329491Y-83386776D01*
X103429583Y-83236978D01*
X103556978Y-83109583D01*
X103706776Y-83009491D01*
X103873222Y-82940547D01*
X104049918Y-82905400D01*
X104230082Y-82905400D01*
X104406778Y-82940547D01*
G37*
G36*
X101866778Y-82940547D02*
G01*
X102033224Y-83009491D01*
X102183022Y-83109583D01*
X102310417Y-83236978D01*
X102410509Y-83386776D01*
X102479453Y-83553222D01*
X102514600Y-83729918D01*
X102514600Y-83910082D01*
X102479453Y-84086778D01*
X102410509Y-84253224D01*
X102310417Y-84403022D01*
X102183022Y-84530417D01*
X102033224Y-84630509D01*
X101866778Y-84699453D01*
X101690082Y-84734600D01*
X101509918Y-84734600D01*
X101333222Y-84699453D01*
X101166776Y-84630509D01*
X101016978Y-84530417D01*
X100889583Y-84403022D01*
X100789491Y-84253224D01*
X100720547Y-84086778D01*
X100685400Y-83910082D01*
X100685400Y-83729918D01*
X100720547Y-83553222D01*
X100789491Y-83386776D01*
X100889583Y-83236978D01*
X101016978Y-83109583D01*
X101166776Y-83009491D01*
X101333222Y-82940547D01*
X101509918Y-82905400D01*
X101690082Y-82905400D01*
X101866778Y-82940547D01*
G37*
G36*
X129788228Y-81731703D02*
G01*
X129943100Y-81795853D01*
X130082481Y-81888985D01*
X130201015Y-82007519D01*
X130294147Y-82146900D01*
X130358297Y-82301772D01*
X130391000Y-82466184D01*
X130391000Y-82633816D01*
X130358297Y-82798228D01*
X130294147Y-82953100D01*
X130201015Y-83092481D01*
X130082481Y-83211015D01*
X129943100Y-83304147D01*
X129788228Y-83368297D01*
X129623816Y-83401000D01*
X129456184Y-83401000D01*
X129291772Y-83368297D01*
X129136900Y-83304147D01*
X128997519Y-83211015D01*
X128878985Y-83092481D01*
X128785853Y-82953100D01*
X128721703Y-82798228D01*
X128689000Y-82633816D01*
X128689000Y-82466184D01*
X128721703Y-82301772D01*
X128785853Y-82146900D01*
X128878985Y-82007519D01*
X128997519Y-81888985D01*
X129136900Y-81795853D01*
X129291772Y-81731703D01*
X129456184Y-81699000D01*
X129623816Y-81699000D01*
X129788228Y-81731703D01*
G37*
G36*
X122168228Y-81731703D02*
G01*
X122323100Y-81795853D01*
X122462481Y-81888985D01*
X122581015Y-82007519D01*
X122674147Y-82146900D01*
X122738297Y-82301772D01*
X122771000Y-82466184D01*
X122771000Y-82633816D01*
X122738297Y-82798228D01*
X122674147Y-82953100D01*
X122581015Y-83092481D01*
X122462481Y-83211015D01*
X122323100Y-83304147D01*
X122168228Y-83368297D01*
X122003816Y-83401000D01*
X121836184Y-83401000D01*
X121671772Y-83368297D01*
X121516900Y-83304147D01*
X121377519Y-83211015D01*
X121258985Y-83092481D01*
X121165853Y-82953100D01*
X121101703Y-82798228D01*
X121069000Y-82633816D01*
X121069000Y-82466184D01*
X121101703Y-82301772D01*
X121165853Y-82146900D01*
X121258985Y-82007519D01*
X121377519Y-81888985D01*
X121516900Y-81795853D01*
X121671772Y-81731703D01*
X121836184Y-81699000D01*
X122003816Y-81699000D01*
X122168228Y-81731703D01*
G37*
G36*
X136123642Y-81779781D02*
G01*
X136269414Y-81840162D01*
X136269416Y-81840163D01*
X136400608Y-81927822D01*
X136512178Y-82039392D01*
X136584012Y-82146900D01*
X136599838Y-82170586D01*
X136660219Y-82316358D01*
X136691000Y-82471107D01*
X136691000Y-82628893D01*
X136660219Y-82783642D01*
X136609785Y-82905400D01*
X136599837Y-82929416D01*
X136512178Y-83060608D01*
X136400608Y-83172178D01*
X136269416Y-83259837D01*
X136269415Y-83259838D01*
X136269414Y-83259838D01*
X136123642Y-83320219D01*
X135968893Y-83351000D01*
X135811107Y-83351000D01*
X135656358Y-83320219D01*
X135510586Y-83259838D01*
X135510585Y-83259838D01*
X135510584Y-83259837D01*
X135379392Y-83172178D01*
X135267822Y-83060608D01*
X135180163Y-82929416D01*
X135170215Y-82905400D01*
X135119781Y-82783642D01*
X135089000Y-82628893D01*
X135089000Y-82471107D01*
X135119781Y-82316358D01*
X135180162Y-82170586D01*
X135195988Y-82146900D01*
X135267822Y-82039392D01*
X135379392Y-81927822D01*
X135510584Y-81840163D01*
X135510586Y-81840162D01*
X135656358Y-81779781D01*
X135811107Y-81749000D01*
X135968893Y-81749000D01*
X136123642Y-81779781D01*
G37*
G36*
X155173642Y-81779781D02*
G01*
X155319414Y-81840162D01*
X155319416Y-81840163D01*
X155450608Y-81927822D01*
X155562178Y-82039392D01*
X155634012Y-82146900D01*
X155649838Y-82170586D01*
X155710219Y-82316358D01*
X155741000Y-82471107D01*
X155741000Y-82628893D01*
X155710219Y-82783642D01*
X155659785Y-82905400D01*
X155649837Y-82929416D01*
X155562178Y-83060608D01*
X155450608Y-83172178D01*
X155319416Y-83259837D01*
X155319415Y-83259838D01*
X155319414Y-83259838D01*
X155173642Y-83320219D01*
X155018893Y-83351000D01*
X154861107Y-83351000D01*
X154706358Y-83320219D01*
X154560586Y-83259838D01*
X154560585Y-83259838D01*
X154560584Y-83259837D01*
X154429392Y-83172178D01*
X154317822Y-83060608D01*
X154230163Y-82929416D01*
X154220215Y-82905400D01*
X154169781Y-82783642D01*
X154139000Y-82628893D01*
X154139000Y-82471107D01*
X154169781Y-82316358D01*
X154230162Y-82170586D01*
X154245988Y-82146900D01*
X154317822Y-82039392D01*
X154429392Y-81927822D01*
X154560584Y-81840163D01*
X154560586Y-81840162D01*
X154706358Y-81779781D01*
X154861107Y-81749000D01*
X155018893Y-81749000D01*
X155173642Y-81779781D01*
G37*
G36*
X148896564Y-77729389D02*
G01*
X149087833Y-77808615D01*
X149087835Y-77808616D01*
X149259973Y-77923635D01*
X149406365Y-78070027D01*
X149509345Y-78224147D01*
X149521385Y-78242167D01*
X149600611Y-78433436D01*
X149641000Y-78636484D01*
X149641000Y-78843516D01*
X149600611Y-79046564D01*
X149568954Y-79122991D01*
X149521384Y-79237835D01*
X149406365Y-79409973D01*
X149259973Y-79556365D01*
X149087835Y-79671384D01*
X149087834Y-79671385D01*
X149087833Y-79671385D01*
X148896564Y-79750611D01*
X148693516Y-79791000D01*
X148486484Y-79791000D01*
X148283436Y-79750611D01*
X148092167Y-79671385D01*
X148092166Y-79671385D01*
X148092165Y-79671384D01*
X147920027Y-79556365D01*
X147773635Y-79409973D01*
X147658616Y-79237835D01*
X147611046Y-79122991D01*
X147579389Y-79046564D01*
X147539000Y-78843516D01*
X147539000Y-78636484D01*
X147579389Y-78433436D01*
X147658615Y-78242167D01*
X147670656Y-78224147D01*
X147773635Y-78070027D01*
X147920027Y-77923635D01*
X148092165Y-77808616D01*
X148092167Y-77808615D01*
X148283436Y-77729389D01*
X148486484Y-77689000D01*
X148693516Y-77689000D01*
X148896564Y-77729389D01*
G37*
G36*
X141396564Y-77729389D02*
G01*
X141587833Y-77808615D01*
X141587835Y-77808616D01*
X141759973Y-77923635D01*
X141906365Y-78070027D01*
X142009345Y-78224147D01*
X142021385Y-78242167D01*
X142100611Y-78433436D01*
X142141000Y-78636484D01*
X142141000Y-78843516D01*
X142100611Y-79046564D01*
X142068954Y-79122991D01*
X142021384Y-79237835D01*
X141906365Y-79409973D01*
X141759973Y-79556365D01*
X141587835Y-79671384D01*
X141587834Y-79671385D01*
X141587833Y-79671385D01*
X141396564Y-79750611D01*
X141193516Y-79791000D01*
X140986484Y-79791000D01*
X140783436Y-79750611D01*
X140592167Y-79671385D01*
X140592166Y-79671385D01*
X140592165Y-79671384D01*
X140420027Y-79556365D01*
X140273635Y-79409973D01*
X140158616Y-79237835D01*
X140111046Y-79122991D01*
X140079389Y-79046564D01*
X140039000Y-78843516D01*
X140039000Y-78636484D01*
X140079389Y-78433436D01*
X140158615Y-78242167D01*
X140170656Y-78224147D01*
X140273635Y-78070027D01*
X140420027Y-77923635D01*
X140592165Y-77808616D01*
X140592167Y-77808615D01*
X140783436Y-77729389D01*
X140986484Y-77689000D01*
X141193516Y-77689000D01*
X141396564Y-77729389D01*
G37*
G36*
X136691000Y-79541000D02*
G01*
X135089000Y-79541000D01*
X135089000Y-77939000D01*
X136691000Y-77939000D01*
X136691000Y-79541000D01*
G37*
G36*
X155741000Y-79541000D02*
G01*
X154139000Y-79541000D01*
X154139000Y-77939000D01*
X155741000Y-77939000D01*
X155741000Y-79541000D01*
G37*
G36*
X186925443Y-77725519D02*
G01*
X186991627Y-77732037D01*
X187161466Y-77783557D01*
X187317991Y-77867222D01*
X187325153Y-77873100D01*
X187455186Y-77979814D01*
X187529221Y-78070027D01*
X187567778Y-78117009D01*
X187651443Y-78273534D01*
X187702963Y-78443373D01*
X187720359Y-78620000D01*
X187702963Y-78796627D01*
X187651443Y-78966466D01*
X187567778Y-79122991D01*
X187538448Y-79158729D01*
X187455186Y-79260186D01*
X187353729Y-79343448D01*
X187317991Y-79372778D01*
X187161466Y-79456443D01*
X186991627Y-79507963D01*
X186925443Y-79514481D01*
X186859260Y-79521000D01*
X186520740Y-79521000D01*
X186454557Y-79514481D01*
X186388373Y-79507963D01*
X186218534Y-79456443D01*
X186062009Y-79372778D01*
X186026271Y-79343448D01*
X185924814Y-79260186D01*
X185841552Y-79158729D01*
X185812222Y-79122991D01*
X185728557Y-78966466D01*
X185677037Y-78796627D01*
X185659641Y-78620000D01*
X185677037Y-78443373D01*
X185728557Y-78273534D01*
X185812222Y-78117009D01*
X185850779Y-78070027D01*
X185924814Y-77979814D01*
X186054847Y-77873100D01*
X186062009Y-77867222D01*
X186218534Y-77783557D01*
X186388373Y-77732037D01*
X186454557Y-77725519D01*
X186520740Y-77719000D01*
X186859260Y-77719000D01*
X186925443Y-77725519D01*
G37*
G36*
X160268228Y-76651703D02*
G01*
X160423100Y-76715853D01*
X160562481Y-76808985D01*
X160681015Y-76927519D01*
X160774147Y-77066900D01*
X160838297Y-77221772D01*
X160871000Y-77386184D01*
X160871000Y-77553816D01*
X160838297Y-77718228D01*
X160774147Y-77873100D01*
X160681015Y-78012481D01*
X160562481Y-78131015D01*
X160423100Y-78224147D01*
X160268228Y-78288297D01*
X160103816Y-78321000D01*
X159936184Y-78321000D01*
X159771772Y-78288297D01*
X159616900Y-78224147D01*
X159477519Y-78131015D01*
X159358985Y-78012481D01*
X159265853Y-77873100D01*
X159201703Y-77718228D01*
X159169000Y-77553816D01*
X159169000Y-77386184D01*
X159201703Y-77221772D01*
X159265853Y-77066900D01*
X159358985Y-76927519D01*
X159477519Y-76808985D01*
X159616900Y-76715853D01*
X159771772Y-76651703D01*
X159936184Y-76619000D01*
X160103816Y-76619000D01*
X160268228Y-76651703D01*
G37*
G36*
X115151000Y-78321000D02*
G01*
X113449000Y-78321000D01*
X113449000Y-76619000D01*
X115151000Y-76619000D01*
X115151000Y-78321000D01*
G37*
G36*
X171698228Y-76651703D02*
G01*
X171853100Y-76715853D01*
X171992481Y-76808985D01*
X172111015Y-76927519D01*
X172204147Y-77066900D01*
X172268297Y-77221772D01*
X172301000Y-77386184D01*
X172301000Y-77553816D01*
X172268297Y-77718228D01*
X172204147Y-77873100D01*
X172111015Y-78012481D01*
X171992481Y-78131015D01*
X171853100Y-78224147D01*
X171698228Y-78288297D01*
X171533816Y-78321000D01*
X171366184Y-78321000D01*
X171201772Y-78288297D01*
X171046900Y-78224147D01*
X170907519Y-78131015D01*
X170788985Y-78012481D01*
X170695853Y-77873100D01*
X170631703Y-77718228D01*
X170599000Y-77553816D01*
X170599000Y-77386184D01*
X170631703Y-77221772D01*
X170695853Y-77066900D01*
X170788985Y-76927519D01*
X170907519Y-76808985D01*
X171046900Y-76715853D01*
X171201772Y-76651703D01*
X171366184Y-76619000D01*
X171533816Y-76619000D01*
X171698228Y-76651703D01*
G37*
G36*
X174198228Y-76651703D02*
G01*
X174353100Y-76715853D01*
X174492481Y-76808985D01*
X174611015Y-76927519D01*
X174704147Y-77066900D01*
X174768297Y-77221772D01*
X174801000Y-77386184D01*
X174801000Y-77553816D01*
X174768297Y-77718228D01*
X174704147Y-77873100D01*
X174611015Y-78012481D01*
X174492481Y-78131015D01*
X174353100Y-78224147D01*
X174198228Y-78288297D01*
X174033816Y-78321000D01*
X173866184Y-78321000D01*
X173701772Y-78288297D01*
X173546900Y-78224147D01*
X173407519Y-78131015D01*
X173288985Y-78012481D01*
X173195853Y-77873100D01*
X173131703Y-77718228D01*
X173099000Y-77553816D01*
X173099000Y-77386184D01*
X173131703Y-77221772D01*
X173195853Y-77066900D01*
X173288985Y-76927519D01*
X173407519Y-76808985D01*
X173546900Y-76715853D01*
X173701772Y-76651703D01*
X173866184Y-76619000D01*
X174033816Y-76619000D01*
X174198228Y-76651703D01*
G37*
G36*
X167888228Y-76651703D02*
G01*
X168043100Y-76715853D01*
X168182481Y-76808985D01*
X168301015Y-76927519D01*
X168394147Y-77066900D01*
X168458297Y-77221772D01*
X168491000Y-77386184D01*
X168491000Y-77553816D01*
X168458297Y-77718228D01*
X168394147Y-77873100D01*
X168301015Y-78012481D01*
X168182481Y-78131015D01*
X168043100Y-78224147D01*
X167888228Y-78288297D01*
X167723816Y-78321000D01*
X167556184Y-78321000D01*
X167391772Y-78288297D01*
X167236900Y-78224147D01*
X167097519Y-78131015D01*
X166978985Y-78012481D01*
X166885853Y-77873100D01*
X166821703Y-77718228D01*
X166789000Y-77553816D01*
X166789000Y-77386184D01*
X166821703Y-77221772D01*
X166885853Y-77066900D01*
X166978985Y-76927519D01*
X167097519Y-76808985D01*
X167236900Y-76715853D01*
X167391772Y-76651703D01*
X167556184Y-76619000D01*
X167723816Y-76619000D01*
X167888228Y-76651703D01*
G37*
G36*
X101848228Y-75381703D02*
G01*
X102003100Y-75445853D01*
X102142481Y-75538985D01*
X102261015Y-75657519D01*
X102354147Y-75796900D01*
X102418297Y-75951772D01*
X102451000Y-76116184D01*
X102451000Y-76283816D01*
X102418297Y-76448228D01*
X102354147Y-76603100D01*
X102261015Y-76742481D01*
X102142481Y-76861015D01*
X102003100Y-76954147D01*
X101848228Y-77018297D01*
X101683816Y-77051000D01*
X101516184Y-77051000D01*
X101351772Y-77018297D01*
X101196900Y-76954147D01*
X101057519Y-76861015D01*
X100938985Y-76742481D01*
X100845853Y-76603100D01*
X100781703Y-76448228D01*
X100749000Y-76283816D01*
X100749000Y-76116184D01*
X100781703Y-75951772D01*
X100845853Y-75796900D01*
X100938985Y-75657519D01*
X101057519Y-75538985D01*
X101196900Y-75445853D01*
X101351772Y-75381703D01*
X101516184Y-75349000D01*
X101683816Y-75349000D01*
X101848228Y-75381703D01*
G37*
G36*
X186925442Y-75225518D02*
G01*
X186991627Y-75232037D01*
X187161466Y-75283557D01*
X187317991Y-75367222D01*
X187325153Y-75373100D01*
X187455186Y-75479814D01*
X187535618Y-75577822D01*
X187567778Y-75617009D01*
X187651443Y-75773534D01*
X187702963Y-75943373D01*
X187720359Y-76120000D01*
X187702963Y-76296627D01*
X187651443Y-76466466D01*
X187567778Y-76622991D01*
X187544213Y-76651705D01*
X187455186Y-76760186D01*
X187379647Y-76822178D01*
X187317991Y-76872778D01*
X187317989Y-76872779D01*
X187165762Y-76954147D01*
X187161466Y-76956443D01*
X186991627Y-77007963D01*
X186925443Y-77014481D01*
X186859260Y-77021000D01*
X186520740Y-77021000D01*
X186454557Y-77014481D01*
X186388373Y-77007963D01*
X186218534Y-76956443D01*
X186214239Y-76954147D01*
X186062011Y-76872779D01*
X186062009Y-76872778D01*
X186000353Y-76822178D01*
X185924814Y-76760186D01*
X185835787Y-76651705D01*
X185812222Y-76622991D01*
X185728557Y-76466466D01*
X185677037Y-76296627D01*
X185659641Y-76120000D01*
X185677037Y-75943373D01*
X185728557Y-75773534D01*
X185812222Y-75617009D01*
X185844382Y-75577822D01*
X185924814Y-75479814D01*
X186054847Y-75373100D01*
X186062009Y-75367222D01*
X186218534Y-75283557D01*
X186388373Y-75232037D01*
X186454558Y-75225518D01*
X186520740Y-75219000D01*
X186859260Y-75219000D01*
X186925442Y-75225518D01*
G37*
G36*
X152633642Y-75429781D02*
G01*
X152754434Y-75479815D01*
X152779416Y-75490163D01*
X152910608Y-75577822D01*
X153022178Y-75689392D01*
X153094012Y-75796900D01*
X153109838Y-75820586D01*
X153170219Y-75966358D01*
X153201000Y-76121107D01*
X153201000Y-76278893D01*
X153170219Y-76433642D01*
X153109838Y-76579414D01*
X153109837Y-76579416D01*
X153022178Y-76710608D01*
X152910608Y-76822178D01*
X152779416Y-76909837D01*
X152779415Y-76909838D01*
X152779414Y-76909838D01*
X152633642Y-76970219D01*
X152478893Y-77001000D01*
X152321107Y-77001000D01*
X152166358Y-76970219D01*
X152020586Y-76909838D01*
X152020585Y-76909838D01*
X152020584Y-76909837D01*
X151889392Y-76822178D01*
X151777822Y-76710608D01*
X151690163Y-76579416D01*
X151690162Y-76579414D01*
X151629781Y-76433642D01*
X151599000Y-76278893D01*
X151599000Y-76121107D01*
X151629781Y-75966358D01*
X151690162Y-75820586D01*
X151705988Y-75796900D01*
X151777822Y-75689392D01*
X151889392Y-75577822D01*
X152020584Y-75490163D01*
X152045566Y-75479815D01*
X152166358Y-75429781D01*
X152321107Y-75399000D01*
X152478893Y-75399000D01*
X152633642Y-75429781D01*
G37*
G36*
X133583642Y-75429781D02*
G01*
X133704434Y-75479815D01*
X133729416Y-75490163D01*
X133860608Y-75577822D01*
X133972178Y-75689392D01*
X134044012Y-75796900D01*
X134059838Y-75820586D01*
X134120219Y-75966358D01*
X134151000Y-76121107D01*
X134151000Y-76278893D01*
X134120219Y-76433642D01*
X134059838Y-76579414D01*
X134059837Y-76579416D01*
X133972178Y-76710608D01*
X133860608Y-76822178D01*
X133729416Y-76909837D01*
X133729415Y-76909838D01*
X133729414Y-76909838D01*
X133583642Y-76970219D01*
X133428893Y-77001000D01*
X133271107Y-77001000D01*
X133116358Y-76970219D01*
X132970586Y-76909838D01*
X132970585Y-76909838D01*
X132970584Y-76909837D01*
X132839392Y-76822178D01*
X132727822Y-76710608D01*
X132640163Y-76579416D01*
X132640162Y-76579414D01*
X132579781Y-76433642D01*
X132549000Y-76278893D01*
X132549000Y-76121107D01*
X132579781Y-75966358D01*
X132640162Y-75820586D01*
X132655988Y-75796900D01*
X132727822Y-75689392D01*
X132839392Y-75577822D01*
X132970584Y-75490163D01*
X132995566Y-75479815D01*
X133116358Y-75429781D01*
X133271107Y-75399000D01*
X133428893Y-75399000D01*
X133583642Y-75429781D01*
G37*
G36*
X114548228Y-74151703D02*
G01*
X114703100Y-74215853D01*
X114842481Y-74308985D01*
X114961015Y-74427519D01*
X115054147Y-74566900D01*
X115118297Y-74721772D01*
X115151000Y-74886184D01*
X115151000Y-75053816D01*
X115118297Y-75218228D01*
X115054147Y-75373100D01*
X114961015Y-75512481D01*
X114842481Y-75631015D01*
X114703100Y-75724147D01*
X114548228Y-75788297D01*
X114383816Y-75821000D01*
X114216184Y-75821000D01*
X114051772Y-75788297D01*
X113896900Y-75724147D01*
X113757519Y-75631015D01*
X113638985Y-75512481D01*
X113545853Y-75373100D01*
X113481703Y-75218228D01*
X113449000Y-75053816D01*
X113449000Y-74886184D01*
X113481703Y-74721772D01*
X113545853Y-74566900D01*
X113638985Y-74427519D01*
X113757519Y-74308985D01*
X113896900Y-74215853D01*
X114051772Y-74151703D01*
X114216184Y-74119000D01*
X114383816Y-74119000D01*
X114548228Y-74151703D01*
G37*
G36*
X107631000Y-74611000D02*
G01*
X105729000Y-74611000D01*
X105729000Y-72709000D01*
X107631000Y-72709000D01*
X107631000Y-74611000D01*
G37*
G36*
X186925443Y-72725519D02*
G01*
X186991627Y-72732037D01*
X187161466Y-72783557D01*
X187317991Y-72867222D01*
X187345479Y-72889781D01*
X187455186Y-72979814D01*
X187517168Y-73055341D01*
X187567778Y-73117009D01*
X187567779Y-73117011D01*
X187642554Y-73256903D01*
X187651443Y-73273534D01*
X187702963Y-73443373D01*
X187720359Y-73620000D01*
X187702963Y-73796627D01*
X187651443Y-73966466D01*
X187567778Y-74122991D01*
X187544213Y-74151705D01*
X187455186Y-74260186D01*
X187353729Y-74343448D01*
X187317991Y-74372778D01*
X187161466Y-74456443D01*
X186991627Y-74507963D01*
X186925442Y-74514482D01*
X186859260Y-74521000D01*
X186520740Y-74521000D01*
X186454558Y-74514482D01*
X186388373Y-74507963D01*
X186218534Y-74456443D01*
X186062009Y-74372778D01*
X186026271Y-74343448D01*
X185924814Y-74260186D01*
X185835787Y-74151705D01*
X185812222Y-74122991D01*
X185728557Y-73966466D01*
X185677037Y-73796627D01*
X185659641Y-73620000D01*
X185677037Y-73443373D01*
X185728557Y-73273534D01*
X185737447Y-73256903D01*
X185812221Y-73117011D01*
X185812222Y-73117009D01*
X185862832Y-73055341D01*
X185924814Y-72979814D01*
X186034521Y-72889781D01*
X186062009Y-72867222D01*
X186218534Y-72783557D01*
X186388373Y-72732037D01*
X186454557Y-72725519D01*
X186520740Y-72719000D01*
X186859260Y-72719000D01*
X186925443Y-72725519D01*
G37*
G36*
X167888228Y-72841703D02*
G01*
X168043100Y-72905853D01*
X168182481Y-72998985D01*
X168301015Y-73117519D01*
X168394147Y-73256900D01*
X168458297Y-73411772D01*
X168491000Y-73576184D01*
X168491000Y-73743816D01*
X168458297Y-73908228D01*
X168394147Y-74063100D01*
X168301015Y-74202481D01*
X168182481Y-74321015D01*
X168043100Y-74414147D01*
X167888228Y-74478297D01*
X167723816Y-74511000D01*
X167556184Y-74511000D01*
X167391772Y-74478297D01*
X167236900Y-74414147D01*
X167097519Y-74321015D01*
X166978985Y-74202481D01*
X166885853Y-74063100D01*
X166821703Y-73908228D01*
X166789000Y-73743816D01*
X166789000Y-73576184D01*
X166821703Y-73411772D01*
X166885853Y-73256900D01*
X166978985Y-73117519D01*
X167097519Y-72998985D01*
X167236900Y-72905853D01*
X167391772Y-72841703D01*
X167556184Y-72809000D01*
X167723816Y-72809000D01*
X167888228Y-72841703D01*
G37*
G36*
X160268228Y-72841703D02*
G01*
X160423100Y-72905853D01*
X160562481Y-72998985D01*
X160681015Y-73117519D01*
X160774147Y-73256900D01*
X160838297Y-73411772D01*
X160871000Y-73576184D01*
X160871000Y-73743816D01*
X160838297Y-73908228D01*
X160774147Y-74063100D01*
X160681015Y-74202481D01*
X160562481Y-74321015D01*
X160423100Y-74414147D01*
X160268228Y-74478297D01*
X160103816Y-74511000D01*
X159936184Y-74511000D01*
X159771772Y-74478297D01*
X159616900Y-74414147D01*
X159477519Y-74321015D01*
X159358985Y-74202481D01*
X159265853Y-74063100D01*
X159201703Y-73908228D01*
X159169000Y-73743816D01*
X159169000Y-73576184D01*
X159201703Y-73411772D01*
X159265853Y-73256900D01*
X159358985Y-73117519D01*
X159477519Y-72998985D01*
X159616900Y-72905853D01*
X159771772Y-72841703D01*
X159936184Y-72809000D01*
X160103816Y-72809000D01*
X160268228Y-72841703D01*
G37*
G36*
X129788228Y-72841703D02*
G01*
X129943100Y-72905853D01*
X130082481Y-72998985D01*
X130201015Y-73117519D01*
X130294147Y-73256900D01*
X130358297Y-73411772D01*
X130391000Y-73576184D01*
X130391000Y-73743816D01*
X130358297Y-73908228D01*
X130294147Y-74063100D01*
X130201015Y-74202481D01*
X130082481Y-74321015D01*
X129943100Y-74414147D01*
X129788228Y-74478297D01*
X129623816Y-74511000D01*
X129456184Y-74511000D01*
X129291772Y-74478297D01*
X129136900Y-74414147D01*
X128997519Y-74321015D01*
X128878985Y-74202481D01*
X128785853Y-74063100D01*
X128721703Y-73908228D01*
X128689000Y-73743816D01*
X128689000Y-73576184D01*
X128721703Y-73411772D01*
X128785853Y-73256900D01*
X128878985Y-73117519D01*
X128997519Y-72998985D01*
X129136900Y-72905853D01*
X129291772Y-72841703D01*
X129456184Y-72809000D01*
X129623816Y-72809000D01*
X129788228Y-72841703D01*
G37*
G36*
X179636823Y-72821313D02*
G01*
X179761059Y-72859000D01*
X179788164Y-72867222D01*
X179797242Y-72869976D01*
X179834296Y-72889782D01*
X179945078Y-72948996D01*
X180074659Y-73055341D01*
X180181004Y-73184922D01*
X180181005Y-73184924D01*
X180260024Y-73332758D01*
X180308687Y-73493177D01*
X180325117Y-73660000D01*
X180308687Y-73826823D01*
X180260024Y-73987242D01*
X180219477Y-74063100D01*
X180181004Y-74135078D01*
X180074659Y-74264659D01*
X179945078Y-74371004D01*
X179945076Y-74371005D01*
X179797242Y-74450024D01*
X179636823Y-74498687D01*
X179511804Y-74511000D01*
X178628196Y-74511000D01*
X178503177Y-74498687D01*
X178342758Y-74450024D01*
X178194924Y-74371005D01*
X178194922Y-74371004D01*
X178065341Y-74264659D01*
X177958996Y-74135078D01*
X177920523Y-74063100D01*
X177879976Y-73987242D01*
X177831313Y-73826823D01*
X177814883Y-73660000D01*
X177831313Y-73493177D01*
X177879976Y-73332758D01*
X177958995Y-73184924D01*
X177958996Y-73184922D01*
X178065341Y-73055341D01*
X178194922Y-72948996D01*
X178305704Y-72889782D01*
X178342758Y-72869976D01*
X178351837Y-72867222D01*
X178378941Y-72859000D01*
X178503177Y-72821313D01*
X178628196Y-72809000D01*
X179511804Y-72809000D01*
X179636823Y-72821313D01*
G37*
G36*
X172016823Y-72821313D02*
G01*
X172141059Y-72859000D01*
X172168164Y-72867222D01*
X172177242Y-72869976D01*
X172214296Y-72889782D01*
X172325078Y-72948996D01*
X172454659Y-73055341D01*
X172561004Y-73184922D01*
X172561005Y-73184924D01*
X172640024Y-73332758D01*
X172688687Y-73493177D01*
X172705117Y-73660000D01*
X172688687Y-73826823D01*
X172640024Y-73987242D01*
X172599477Y-74063100D01*
X172561004Y-74135078D01*
X172454659Y-74264659D01*
X172325078Y-74371004D01*
X172325076Y-74371005D01*
X172177242Y-74450024D01*
X172016823Y-74498687D01*
X171891804Y-74511000D01*
X171008196Y-74511000D01*
X170883177Y-74498687D01*
X170722758Y-74450024D01*
X170574924Y-74371005D01*
X170574922Y-74371004D01*
X170445341Y-74264659D01*
X170338996Y-74135078D01*
X170300523Y-74063100D01*
X170259976Y-73987242D01*
X170211313Y-73826823D01*
X170194883Y-73660000D01*
X170211313Y-73493177D01*
X170259976Y-73332758D01*
X170338995Y-73184924D01*
X170338996Y-73184922D01*
X170445341Y-73055341D01*
X170574922Y-72948996D01*
X170685704Y-72889782D01*
X170722758Y-72869976D01*
X170731837Y-72867222D01*
X170758941Y-72859000D01*
X170883177Y-72821313D01*
X171008196Y-72809000D01*
X171891804Y-72809000D01*
X172016823Y-72821313D01*
G37*
G36*
X122168228Y-72841703D02*
G01*
X122323100Y-72905853D01*
X122462481Y-72998985D01*
X122581015Y-73117519D01*
X122674147Y-73256900D01*
X122738297Y-73411772D01*
X122771000Y-73576184D01*
X122771000Y-73743816D01*
X122738297Y-73908228D01*
X122674147Y-74063100D01*
X122581015Y-74202481D01*
X122462481Y-74321015D01*
X122323100Y-74414147D01*
X122168228Y-74478297D01*
X122003816Y-74511000D01*
X121836184Y-74511000D01*
X121671772Y-74478297D01*
X121516900Y-74414147D01*
X121377519Y-74321015D01*
X121258985Y-74202481D01*
X121165853Y-74063100D01*
X121101703Y-73908228D01*
X121069000Y-73743816D01*
X121069000Y-73576184D01*
X121101703Y-73411772D01*
X121165853Y-73256900D01*
X121258985Y-73117519D01*
X121377519Y-72998985D01*
X121516900Y-72905853D01*
X121671772Y-72841703D01*
X121836184Y-72809000D01*
X122003816Y-72809000D01*
X122168228Y-72841703D01*
G37*
G36*
X155173642Y-72889781D02*
G01*
X155316599Y-72948996D01*
X155319416Y-72950163D01*
X155450608Y-73037822D01*
X155562178Y-73149392D01*
X155634012Y-73256900D01*
X155649838Y-73280586D01*
X155710219Y-73426358D01*
X155741000Y-73581107D01*
X155741000Y-73738893D01*
X155710219Y-73893642D01*
X155671448Y-73987242D01*
X155649837Y-74039416D01*
X155562178Y-74170608D01*
X155450608Y-74282178D01*
X155319416Y-74369837D01*
X155319415Y-74369838D01*
X155319414Y-74369838D01*
X155173642Y-74430219D01*
X155018893Y-74461000D01*
X154861107Y-74461000D01*
X154706358Y-74430219D01*
X154560586Y-74369838D01*
X154560585Y-74369838D01*
X154560584Y-74369837D01*
X154429392Y-74282178D01*
X154317822Y-74170608D01*
X154230163Y-74039416D01*
X154208552Y-73987242D01*
X154169781Y-73893642D01*
X154139000Y-73738893D01*
X154139000Y-73581107D01*
X154169781Y-73426358D01*
X154230162Y-73280586D01*
X154245988Y-73256900D01*
X154317822Y-73149392D01*
X154429392Y-73037822D01*
X154560584Y-72950163D01*
X154563401Y-72948996D01*
X154706358Y-72889781D01*
X154861107Y-72859000D01*
X155018893Y-72859000D01*
X155173642Y-72889781D01*
G37*
G36*
X136123642Y-72889781D02*
G01*
X136266599Y-72948996D01*
X136269416Y-72950163D01*
X136400608Y-73037822D01*
X136512178Y-73149392D01*
X136584012Y-73256900D01*
X136599838Y-73280586D01*
X136660219Y-73426358D01*
X136691000Y-73581107D01*
X136691000Y-73738893D01*
X136660219Y-73893642D01*
X136621448Y-73987242D01*
X136599837Y-74039416D01*
X136512178Y-74170608D01*
X136400608Y-74282178D01*
X136269416Y-74369837D01*
X136269415Y-74369838D01*
X136269414Y-74369838D01*
X136123642Y-74430219D01*
X135968893Y-74461000D01*
X135811107Y-74461000D01*
X135656358Y-74430219D01*
X135510586Y-74369838D01*
X135510585Y-74369838D01*
X135510584Y-74369837D01*
X135379392Y-74282178D01*
X135267822Y-74170608D01*
X135180163Y-74039416D01*
X135158552Y-73987242D01*
X135119781Y-73893642D01*
X135089000Y-73738893D01*
X135089000Y-73581107D01*
X135119781Y-73426358D01*
X135180162Y-73280586D01*
X135195988Y-73256900D01*
X135267822Y-73149392D01*
X135379392Y-73037822D01*
X135510584Y-72950163D01*
X135513401Y-72948996D01*
X135656358Y-72889781D01*
X135811107Y-72859000D01*
X135968893Y-72859000D01*
X136123642Y-72889781D01*
G37*
G36*
X106957395Y-70205546D02*
G01*
X107130466Y-70277234D01*
X107161390Y-70297897D01*
X107286227Y-70381310D01*
X107418690Y-70513773D01*
X107471081Y-70592182D01*
X107522766Y-70669534D01*
X107594454Y-70842605D01*
X107631000Y-71026333D01*
X107631000Y-71213667D01*
X107594454Y-71397395D01*
X107522766Y-71570466D01*
X107522765Y-71570467D01*
X107418690Y-71726227D01*
X107286227Y-71858690D01*
X107256429Y-71878600D01*
X107130466Y-71962766D01*
X106957395Y-72034454D01*
X106773667Y-72071000D01*
X106586333Y-72071000D01*
X106402605Y-72034454D01*
X106229534Y-71962766D01*
X106103571Y-71878600D01*
X106073773Y-71858690D01*
X105941310Y-71726227D01*
X105837235Y-71570467D01*
X105837234Y-71570466D01*
X105765546Y-71397395D01*
X105729000Y-71213667D01*
X105729000Y-71026333D01*
X105765546Y-70842605D01*
X105837234Y-70669534D01*
X105888919Y-70592182D01*
X105941310Y-70513773D01*
X106073773Y-70381310D01*
X106198610Y-70297897D01*
X106229534Y-70277234D01*
X106402605Y-70205546D01*
X106586333Y-70169000D01*
X106773667Y-70169000D01*
X106957395Y-70205546D01*
G37*
G36*
X187573600Y-70222989D02*
G01*
X187606652Y-70233015D01*
X187637103Y-70249292D01*
X187663799Y-70271201D01*
X187685708Y-70297897D01*
X187701985Y-70328348D01*
X187712011Y-70361400D01*
X187716000Y-70401903D01*
X187716000Y-71838097D01*
X187712011Y-71878600D01*
X187701985Y-71911652D01*
X187685708Y-71942103D01*
X187663799Y-71968799D01*
X187637103Y-71990708D01*
X187606652Y-72006985D01*
X187573600Y-72017011D01*
X187533097Y-72021000D01*
X185846903Y-72021000D01*
X185806400Y-72017011D01*
X185773348Y-72006985D01*
X185742897Y-71990708D01*
X185716201Y-71968799D01*
X185694292Y-71942103D01*
X185678015Y-71911652D01*
X185667989Y-71878600D01*
X185664000Y-71838097D01*
X185664000Y-70401903D01*
X185667989Y-70361400D01*
X185678015Y-70328348D01*
X185694292Y-70297897D01*
X185716201Y-70271201D01*
X185742897Y-70249292D01*
X185773348Y-70233015D01*
X185806400Y-70222989D01*
X185846903Y-70219000D01*
X187533097Y-70219000D01*
X187573600Y-70222989D01*
G37*
G36*
X179636823Y-70281313D02*
G01*
X179797242Y-70329976D01*
X179929906Y-70400886D01*
X179945078Y-70408996D01*
X180074659Y-70515341D01*
X180181004Y-70644922D01*
X180181005Y-70644924D01*
X180260024Y-70792758D01*
X180308687Y-70953177D01*
X180325117Y-71120000D01*
X180308687Y-71286823D01*
X180260024Y-71447242D01*
X180194159Y-71570466D01*
X180181004Y-71595078D01*
X180074659Y-71724659D01*
X179945078Y-71831004D01*
X179945076Y-71831005D01*
X179797242Y-71910024D01*
X179636823Y-71958687D01*
X179511804Y-71971000D01*
X178628196Y-71971000D01*
X178503177Y-71958687D01*
X178342758Y-71910024D01*
X178194924Y-71831005D01*
X178194922Y-71831004D01*
X178065341Y-71724659D01*
X177958996Y-71595078D01*
X177945841Y-71570466D01*
X177879976Y-71447242D01*
X177831313Y-71286823D01*
X177814883Y-71120000D01*
X177831313Y-70953177D01*
X177879976Y-70792758D01*
X177958995Y-70644924D01*
X177958996Y-70644922D01*
X178065341Y-70515341D01*
X178194922Y-70408996D01*
X178210094Y-70400886D01*
X178342758Y-70329976D01*
X178503177Y-70281313D01*
X178628196Y-70269000D01*
X179511804Y-70269000D01*
X179636823Y-70281313D01*
G37*
G36*
X172016823Y-70281313D02*
G01*
X172177242Y-70329976D01*
X172309906Y-70400886D01*
X172325078Y-70408996D01*
X172454659Y-70515341D01*
X172561004Y-70644922D01*
X172561005Y-70644924D01*
X172640024Y-70792758D01*
X172688687Y-70953177D01*
X172705117Y-71120000D01*
X172688687Y-71286823D01*
X172640024Y-71447242D01*
X172574159Y-71570466D01*
X172561004Y-71595078D01*
X172454659Y-71724659D01*
X172325078Y-71831004D01*
X172325076Y-71831005D01*
X172177242Y-71910024D01*
X172016823Y-71958687D01*
X171891804Y-71971000D01*
X171008196Y-71971000D01*
X170883177Y-71958687D01*
X170722758Y-71910024D01*
X170574924Y-71831005D01*
X170574922Y-71831004D01*
X170445341Y-71724659D01*
X170338996Y-71595078D01*
X170325841Y-71570466D01*
X170259976Y-71447242D01*
X170211313Y-71286823D01*
X170194883Y-71120000D01*
X170211313Y-70953177D01*
X170259976Y-70792758D01*
X170338995Y-70644924D01*
X170338996Y-70644922D01*
X170445341Y-70515341D01*
X170574922Y-70408996D01*
X170590094Y-70400886D01*
X170722758Y-70329976D01*
X170883177Y-70281313D01*
X171008196Y-70269000D01*
X171891804Y-70269000D01*
X172016823Y-70281313D01*
G37*
G36*
X141396564Y-68839389D02*
G01*
X141560376Y-68907242D01*
X141587835Y-68918616D01*
X141759973Y-69033635D01*
X141906365Y-69180027D01*
X142009345Y-69334147D01*
X142021385Y-69352167D01*
X142100611Y-69543436D01*
X142141000Y-69746484D01*
X142141000Y-69953516D01*
X142100611Y-70156564D01*
X142025966Y-70336774D01*
X142021384Y-70347835D01*
X141906365Y-70519973D01*
X141759973Y-70666365D01*
X141587835Y-70781384D01*
X141587834Y-70781385D01*
X141587833Y-70781385D01*
X141396564Y-70860611D01*
X141193516Y-70901000D01*
X140986484Y-70901000D01*
X140783436Y-70860611D01*
X140592167Y-70781385D01*
X140592166Y-70781385D01*
X140592165Y-70781384D01*
X140420027Y-70666365D01*
X140273635Y-70519973D01*
X140158616Y-70347835D01*
X140154034Y-70336774D01*
X140079389Y-70156564D01*
X140039000Y-69953516D01*
X140039000Y-69746484D01*
X140079389Y-69543436D01*
X140158615Y-69352167D01*
X140170656Y-69334147D01*
X140273635Y-69180027D01*
X140420027Y-69033635D01*
X140592165Y-68918616D01*
X140619624Y-68907242D01*
X140783436Y-68839389D01*
X140986484Y-68799000D01*
X141193516Y-68799000D01*
X141396564Y-68839389D01*
G37*
G36*
X148896564Y-68839389D02*
G01*
X149060376Y-68907242D01*
X149087835Y-68918616D01*
X149259973Y-69033635D01*
X149406365Y-69180027D01*
X149509345Y-69334147D01*
X149521385Y-69352167D01*
X149600611Y-69543436D01*
X149641000Y-69746484D01*
X149641000Y-69953516D01*
X149600611Y-70156564D01*
X149525966Y-70336774D01*
X149521384Y-70347835D01*
X149406365Y-70519973D01*
X149259973Y-70666365D01*
X149087835Y-70781384D01*
X149087834Y-70781385D01*
X149087833Y-70781385D01*
X148896564Y-70860611D01*
X148693516Y-70901000D01*
X148486484Y-70901000D01*
X148283436Y-70860611D01*
X148092167Y-70781385D01*
X148092166Y-70781385D01*
X148092165Y-70781384D01*
X147920027Y-70666365D01*
X147773635Y-70519973D01*
X147658616Y-70347835D01*
X147654034Y-70336774D01*
X147579389Y-70156564D01*
X147539000Y-69953516D01*
X147539000Y-69746484D01*
X147579389Y-69543436D01*
X147658615Y-69352167D01*
X147670656Y-69334147D01*
X147773635Y-69180027D01*
X147920027Y-69033635D01*
X148092165Y-68918616D01*
X148119624Y-68907242D01*
X148283436Y-68839389D01*
X148486484Y-68799000D01*
X148693516Y-68799000D01*
X148896564Y-68839389D01*
G37*
G36*
X160268228Y-69031703D02*
G01*
X160423100Y-69095853D01*
X160562481Y-69188985D01*
X160681015Y-69307519D01*
X160774147Y-69446900D01*
X160838297Y-69601772D01*
X160871000Y-69766184D01*
X160871000Y-69933816D01*
X160838297Y-70098228D01*
X160774147Y-70253100D01*
X160681015Y-70392481D01*
X160562481Y-70511015D01*
X160423100Y-70604147D01*
X160268228Y-70668297D01*
X160103816Y-70701000D01*
X159936184Y-70701000D01*
X159771772Y-70668297D01*
X159616900Y-70604147D01*
X159477519Y-70511015D01*
X159358985Y-70392481D01*
X159265853Y-70253100D01*
X159201703Y-70098228D01*
X159169000Y-69933816D01*
X159169000Y-69766184D01*
X159201703Y-69601772D01*
X159265853Y-69446900D01*
X159358985Y-69307519D01*
X159477519Y-69188985D01*
X159616900Y-69095853D01*
X159771772Y-69031703D01*
X159936184Y-68999000D01*
X160103816Y-68999000D01*
X160268228Y-69031703D01*
G37*
G36*
X167888228Y-69031703D02*
G01*
X168043100Y-69095853D01*
X168182481Y-69188985D01*
X168301015Y-69307519D01*
X168394147Y-69446900D01*
X168458297Y-69601772D01*
X168491000Y-69766184D01*
X168491000Y-69933816D01*
X168458297Y-70098228D01*
X168394147Y-70253100D01*
X168301015Y-70392481D01*
X168182481Y-70511015D01*
X168043100Y-70604147D01*
X167888228Y-70668297D01*
X167723816Y-70701000D01*
X167556184Y-70701000D01*
X167391772Y-70668297D01*
X167236900Y-70604147D01*
X167097519Y-70511015D01*
X166978985Y-70392481D01*
X166885853Y-70253100D01*
X166821703Y-70098228D01*
X166789000Y-69933816D01*
X166789000Y-69766184D01*
X166821703Y-69601772D01*
X166885853Y-69446900D01*
X166978985Y-69307519D01*
X167097519Y-69188985D01*
X167236900Y-69095853D01*
X167391772Y-69031703D01*
X167556184Y-68999000D01*
X167723816Y-68999000D01*
X167888228Y-69031703D01*
G37*
G36*
X136691000Y-70651000D02*
G01*
X135089000Y-70651000D01*
X135089000Y-69049000D01*
X136691000Y-69049000D01*
X136691000Y-70651000D01*
G37*
G36*
X155741000Y-70651000D02*
G01*
X154139000Y-70651000D01*
X154139000Y-69049000D01*
X155741000Y-69049000D01*
X155741000Y-70651000D01*
G37*
G36*
X101848228Y-67761703D02*
G01*
X102003100Y-67825853D01*
X102142481Y-67918985D01*
X102261015Y-68037519D01*
X102354147Y-68176900D01*
X102418297Y-68331772D01*
X102451000Y-68496184D01*
X102451000Y-68663816D01*
X102418297Y-68828228D01*
X102354147Y-68983100D01*
X102261015Y-69122481D01*
X102142481Y-69241015D01*
X102003100Y-69334147D01*
X101848228Y-69398297D01*
X101683816Y-69431000D01*
X101516184Y-69431000D01*
X101351772Y-69398297D01*
X101196900Y-69334147D01*
X101057519Y-69241015D01*
X100938985Y-69122481D01*
X100845853Y-68983100D01*
X100781703Y-68828228D01*
X100749000Y-68663816D01*
X100749000Y-68496184D01*
X100781703Y-68331772D01*
X100845853Y-68176900D01*
X100938985Y-68037519D01*
X101057519Y-67918985D01*
X101196900Y-67825853D01*
X101351772Y-67761703D01*
X101516184Y-67729000D01*
X101683816Y-67729000D01*
X101848228Y-67761703D01*
G37*
G36*
X172016823Y-67741313D02*
G01*
X172177242Y-67789976D01*
X172234550Y-67820608D01*
X172325078Y-67868996D01*
X172454659Y-67975341D01*
X172561004Y-68104922D01*
X172561005Y-68104924D01*
X172640024Y-68252758D01*
X172688687Y-68413177D01*
X172705117Y-68580000D01*
X172688687Y-68746823D01*
X172640024Y-68907242D01*
X172599477Y-68983100D01*
X172561004Y-69055078D01*
X172454659Y-69184659D01*
X172325078Y-69291004D01*
X172325076Y-69291005D01*
X172177242Y-69370024D01*
X172016823Y-69418687D01*
X171891804Y-69431000D01*
X171008196Y-69431000D01*
X170883177Y-69418687D01*
X170722758Y-69370024D01*
X170574924Y-69291005D01*
X170574922Y-69291004D01*
X170445341Y-69184659D01*
X170338996Y-69055078D01*
X170300523Y-68983100D01*
X170259976Y-68907242D01*
X170211313Y-68746823D01*
X170194883Y-68580000D01*
X170211313Y-68413177D01*
X170259976Y-68252758D01*
X170338995Y-68104924D01*
X170338996Y-68104922D01*
X170445341Y-67975341D01*
X170574922Y-67868996D01*
X170665450Y-67820608D01*
X170722758Y-67789976D01*
X170883177Y-67741313D01*
X171008196Y-67729000D01*
X171891804Y-67729000D01*
X172016823Y-67741313D01*
G37*
G36*
X122168228Y-67761703D02*
G01*
X122323100Y-67825853D01*
X122462481Y-67918985D01*
X122581015Y-68037519D01*
X122674147Y-68176900D01*
X122738297Y-68331772D01*
X122771000Y-68496184D01*
X122771000Y-68663816D01*
X122738297Y-68828228D01*
X122674147Y-68983100D01*
X122581015Y-69122481D01*
X122462481Y-69241015D01*
X122323100Y-69334147D01*
X122168228Y-69398297D01*
X122003816Y-69431000D01*
X121836184Y-69431000D01*
X121671772Y-69398297D01*
X121516900Y-69334147D01*
X121377519Y-69241015D01*
X121258985Y-69122481D01*
X121165853Y-68983100D01*
X121101703Y-68828228D01*
X121069000Y-68663816D01*
X121069000Y-68496184D01*
X121101703Y-68331772D01*
X121165853Y-68176900D01*
X121258985Y-68037519D01*
X121377519Y-67918985D01*
X121516900Y-67825853D01*
X121671772Y-67761703D01*
X121836184Y-67729000D01*
X122003816Y-67729000D01*
X122168228Y-67761703D01*
G37*
G36*
X179636823Y-67741313D02*
G01*
X179797242Y-67789976D01*
X179854550Y-67820608D01*
X179945078Y-67868996D01*
X180074659Y-67975341D01*
X180181004Y-68104922D01*
X180181005Y-68104924D01*
X180260024Y-68252758D01*
X180308687Y-68413177D01*
X180325117Y-68580000D01*
X180308687Y-68746823D01*
X180260024Y-68907242D01*
X180219477Y-68983100D01*
X180181004Y-69055078D01*
X180074659Y-69184659D01*
X179945078Y-69291004D01*
X179945076Y-69291005D01*
X179797242Y-69370024D01*
X179636823Y-69418687D01*
X179511804Y-69431000D01*
X178628196Y-69431000D01*
X178503177Y-69418687D01*
X178342758Y-69370024D01*
X178194924Y-69291005D01*
X178194922Y-69291004D01*
X178065341Y-69184659D01*
X177958996Y-69055078D01*
X177920523Y-68983100D01*
X177879976Y-68907242D01*
X177831313Y-68746823D01*
X177814883Y-68580000D01*
X177831313Y-68413177D01*
X177879976Y-68252758D01*
X177958995Y-68104924D01*
X177958996Y-68104922D01*
X178065341Y-67975341D01*
X178194922Y-67868996D01*
X178285450Y-67820608D01*
X178342758Y-67789976D01*
X178503177Y-67741313D01*
X178628196Y-67729000D01*
X179511804Y-67729000D01*
X179636823Y-67741313D01*
G37*
G36*
X129788228Y-67761703D02*
G01*
X129943100Y-67825853D01*
X130082481Y-67918985D01*
X130201015Y-68037519D01*
X130294147Y-68176900D01*
X130358297Y-68331772D01*
X130391000Y-68496184D01*
X130391000Y-68663816D01*
X130358297Y-68828228D01*
X130294147Y-68983100D01*
X130201015Y-69122481D01*
X130082481Y-69241015D01*
X129943100Y-69334147D01*
X129788228Y-69398297D01*
X129623816Y-69431000D01*
X129456184Y-69431000D01*
X129291772Y-69398297D01*
X129136900Y-69334147D01*
X128997519Y-69241015D01*
X128878985Y-69122481D01*
X128785853Y-68983100D01*
X128721703Y-68828228D01*
X128689000Y-68663816D01*
X128689000Y-68496184D01*
X128721703Y-68331772D01*
X128785853Y-68176900D01*
X128878985Y-68037519D01*
X128997519Y-67918985D01*
X129136900Y-67825853D01*
X129291772Y-67761703D01*
X129456184Y-67729000D01*
X129623816Y-67729000D01*
X129788228Y-67761703D01*
G37*
G36*
X152633642Y-66539781D02*
G01*
X152736728Y-66582481D01*
X152779416Y-66600163D01*
X152910608Y-66687822D01*
X153022178Y-66799392D01*
X153083388Y-66891000D01*
X153109838Y-66930586D01*
X153170219Y-67076358D01*
X153201000Y-67231107D01*
X153201000Y-67388893D01*
X153170219Y-67543642D01*
X153109838Y-67689414D01*
X153109837Y-67689416D01*
X153022178Y-67820608D01*
X152910608Y-67932178D01*
X152779416Y-68019837D01*
X152779415Y-68019838D01*
X152779414Y-68019838D01*
X152633642Y-68080219D01*
X152478893Y-68111000D01*
X152321107Y-68111000D01*
X152166358Y-68080219D01*
X152020586Y-68019838D01*
X152020585Y-68019838D01*
X152020584Y-68019837D01*
X151889392Y-67932178D01*
X151777822Y-67820608D01*
X151690163Y-67689416D01*
X151690162Y-67689414D01*
X151629781Y-67543642D01*
X151599000Y-67388893D01*
X151599000Y-67231107D01*
X151629781Y-67076358D01*
X151690162Y-66930586D01*
X151716612Y-66891000D01*
X151777822Y-66799392D01*
X151889392Y-66687822D01*
X152020584Y-66600163D01*
X152063272Y-66582481D01*
X152166358Y-66539781D01*
X152321107Y-66509000D01*
X152478893Y-66509000D01*
X152633642Y-66539781D01*
G37*
G36*
X133583642Y-66539781D02*
G01*
X133686728Y-66582481D01*
X133729416Y-66600163D01*
X133860608Y-66687822D01*
X133972178Y-66799392D01*
X134033388Y-66891000D01*
X134059838Y-66930586D01*
X134120219Y-67076358D01*
X134151000Y-67231107D01*
X134151000Y-67388893D01*
X134120219Y-67543642D01*
X134059838Y-67689414D01*
X134059837Y-67689416D01*
X133972178Y-67820608D01*
X133860608Y-67932178D01*
X133729416Y-68019837D01*
X133729415Y-68019838D01*
X133729414Y-68019838D01*
X133583642Y-68080219D01*
X133428893Y-68111000D01*
X133271107Y-68111000D01*
X133116358Y-68080219D01*
X132970586Y-68019838D01*
X132970585Y-68019838D01*
X132970584Y-68019837D01*
X132839392Y-67932178D01*
X132727822Y-67820608D01*
X132640163Y-67689416D01*
X132640162Y-67689414D01*
X132579781Y-67543642D01*
X132549000Y-67388893D01*
X132549000Y-67231107D01*
X132579781Y-67076358D01*
X132640162Y-66930586D01*
X132666612Y-66891000D01*
X132727822Y-66799392D01*
X132839392Y-66687822D01*
X132970584Y-66600163D01*
X133013272Y-66582481D01*
X133116358Y-66539781D01*
X133271107Y-66509000D01*
X133428893Y-66509000D01*
X133583642Y-66539781D01*
G37*
G36*
X160268228Y-65221703D02*
G01*
X160423100Y-65285853D01*
X160562481Y-65378985D01*
X160681015Y-65497519D01*
X160774147Y-65636900D01*
X160838297Y-65791772D01*
X160871000Y-65956184D01*
X160871000Y-66123816D01*
X160838297Y-66288228D01*
X160774147Y-66443100D01*
X160681015Y-66582481D01*
X160562481Y-66701015D01*
X160423100Y-66794147D01*
X160268228Y-66858297D01*
X160103816Y-66891000D01*
X159936184Y-66891000D01*
X159771772Y-66858297D01*
X159616900Y-66794147D01*
X159477519Y-66701015D01*
X159358985Y-66582481D01*
X159265853Y-66443100D01*
X159201703Y-66288228D01*
X159169000Y-66123816D01*
X159169000Y-65956184D01*
X159201703Y-65791772D01*
X159265853Y-65636900D01*
X159358985Y-65497519D01*
X159477519Y-65378985D01*
X159616900Y-65285853D01*
X159771772Y-65221703D01*
X159936184Y-65189000D01*
X160103816Y-65189000D01*
X160268228Y-65221703D01*
G37*
G36*
X172701000Y-66891000D02*
G01*
X170199000Y-66891000D01*
X170199000Y-65189000D01*
X172701000Y-65189000D01*
X172701000Y-66891000D01*
G37*
G36*
X179636823Y-65201313D02*
G01*
X179797242Y-65249976D01*
X179929906Y-65320886D01*
X179945078Y-65328996D01*
X180074659Y-65435341D01*
X180181004Y-65564922D01*
X180181005Y-65564924D01*
X180260024Y-65712758D01*
X180308687Y-65873177D01*
X180325117Y-66040000D01*
X180308687Y-66206823D01*
X180260024Y-66367242D01*
X180219477Y-66443100D01*
X180181004Y-66515078D01*
X180074659Y-66644659D01*
X179945078Y-66751004D01*
X179945076Y-66751005D01*
X179797242Y-66830024D01*
X179636823Y-66878687D01*
X179511804Y-66891000D01*
X178628196Y-66891000D01*
X178503177Y-66878687D01*
X178342758Y-66830024D01*
X178194924Y-66751005D01*
X178194922Y-66751004D01*
X178065341Y-66644659D01*
X177958996Y-66515078D01*
X177920523Y-66443100D01*
X177879976Y-66367242D01*
X177831313Y-66206823D01*
X177814883Y-66040000D01*
X177831313Y-65873177D01*
X177879976Y-65712758D01*
X177958995Y-65564924D01*
X177958996Y-65564922D01*
X178065341Y-65435341D01*
X178194922Y-65328996D01*
X178210094Y-65320886D01*
X178342758Y-65249976D01*
X178503177Y-65201313D01*
X178628196Y-65189000D01*
X179511804Y-65189000D01*
X179636823Y-65201313D01*
G37*
G36*
X167888228Y-65221703D02*
G01*
X168043100Y-65285853D01*
X168182481Y-65378985D01*
X168301015Y-65497519D01*
X168394147Y-65636900D01*
X168458297Y-65791772D01*
X168491000Y-65956184D01*
X168491000Y-66123816D01*
X168458297Y-66288228D01*
X168394147Y-66443100D01*
X168301015Y-66582481D01*
X168182481Y-66701015D01*
X168043100Y-66794147D01*
X167888228Y-66858297D01*
X167723816Y-66891000D01*
X167556184Y-66891000D01*
X167391772Y-66858297D01*
X167236900Y-66794147D01*
X167097519Y-66701015D01*
X166978985Y-66582481D01*
X166885853Y-66443100D01*
X166821703Y-66288228D01*
X166789000Y-66123816D01*
X166789000Y-65956184D01*
X166821703Y-65791772D01*
X166885853Y-65636900D01*
X166978985Y-65497519D01*
X167097519Y-65378985D01*
X167236900Y-65285853D01*
X167391772Y-65221703D01*
X167556184Y-65189000D01*
X167723816Y-65189000D01*
X167888228Y-65221703D01*
G37*
G36*
X129788228Y-63951703D02*
G01*
X129943100Y-64015853D01*
X130082481Y-64108985D01*
X130201015Y-64227519D01*
X130294147Y-64366900D01*
X130358297Y-64521772D01*
X130391000Y-64686184D01*
X130391000Y-64853816D01*
X130358297Y-65018228D01*
X130294147Y-65173100D01*
X130201015Y-65312481D01*
X130082481Y-65431015D01*
X129943100Y-65524147D01*
X129788228Y-65588297D01*
X129623816Y-65621000D01*
X129456184Y-65621000D01*
X129291772Y-65588297D01*
X129136900Y-65524147D01*
X128997519Y-65431015D01*
X128878985Y-65312481D01*
X128785853Y-65173100D01*
X128721703Y-65018228D01*
X128689000Y-64853816D01*
X128689000Y-64686184D01*
X128721703Y-64521772D01*
X128785853Y-64366900D01*
X128878985Y-64227519D01*
X128997519Y-64108985D01*
X129136900Y-64015853D01*
X129291772Y-63951703D01*
X129456184Y-63919000D01*
X129623816Y-63919000D01*
X129788228Y-63951703D01*
G37*
G36*
X122168228Y-63951703D02*
G01*
X122323100Y-64015853D01*
X122462481Y-64108985D01*
X122581015Y-64227519D01*
X122674147Y-64366900D01*
X122738297Y-64521772D01*
X122771000Y-64686184D01*
X122771000Y-64853816D01*
X122738297Y-65018228D01*
X122674147Y-65173100D01*
X122581015Y-65312481D01*
X122462481Y-65431015D01*
X122323100Y-65524147D01*
X122168228Y-65588297D01*
X122003816Y-65621000D01*
X121836184Y-65621000D01*
X121671772Y-65588297D01*
X121516900Y-65524147D01*
X121377519Y-65431015D01*
X121258985Y-65312481D01*
X121165853Y-65173100D01*
X121101703Y-65018228D01*
X121069000Y-64853816D01*
X121069000Y-64686184D01*
X121101703Y-64521772D01*
X121165853Y-64366900D01*
X121258985Y-64227519D01*
X121377519Y-64108985D01*
X121516900Y-64015853D01*
X121671772Y-63951703D01*
X121836184Y-63919000D01*
X122003816Y-63919000D01*
X122168228Y-63951703D01*
G37*
G36*
X136123642Y-63999781D02*
G01*
X136269414Y-64060162D01*
X136269416Y-64060163D01*
X136400608Y-64147822D01*
X136512178Y-64259392D01*
X136584012Y-64366900D01*
X136599838Y-64390586D01*
X136660219Y-64536358D01*
X136691000Y-64691107D01*
X136691000Y-64848893D01*
X136660219Y-65003642D01*
X136599838Y-65149414D01*
X136599837Y-65149416D01*
X136512178Y-65280608D01*
X136400608Y-65392178D01*
X136269416Y-65479837D01*
X136269415Y-65479838D01*
X136269414Y-65479838D01*
X136123642Y-65540219D01*
X135968893Y-65571000D01*
X135811107Y-65571000D01*
X135656358Y-65540219D01*
X135510586Y-65479838D01*
X135510585Y-65479838D01*
X135510584Y-65479837D01*
X135379392Y-65392178D01*
X135267822Y-65280608D01*
X135180163Y-65149416D01*
X135180162Y-65149414D01*
X135119781Y-65003642D01*
X135089000Y-64848893D01*
X135089000Y-64691107D01*
X135119781Y-64536358D01*
X135180162Y-64390586D01*
X135195988Y-64366900D01*
X135267822Y-64259392D01*
X135379392Y-64147822D01*
X135510584Y-64060163D01*
X135510586Y-64060162D01*
X135656358Y-63999781D01*
X135811107Y-63969000D01*
X135968893Y-63969000D01*
X136123642Y-63999781D01*
G37*
G36*
X155173642Y-63999781D02*
G01*
X155319414Y-64060162D01*
X155319416Y-64060163D01*
X155450608Y-64147822D01*
X155562178Y-64259392D01*
X155634012Y-64366900D01*
X155649838Y-64390586D01*
X155710219Y-64536358D01*
X155741000Y-64691107D01*
X155741000Y-64848893D01*
X155710219Y-65003642D01*
X155649838Y-65149414D01*
X155649837Y-65149416D01*
X155562178Y-65280608D01*
X155450608Y-65392178D01*
X155319416Y-65479837D01*
X155319415Y-65479838D01*
X155319414Y-65479838D01*
X155173642Y-65540219D01*
X155018893Y-65571000D01*
X154861107Y-65571000D01*
X154706358Y-65540219D01*
X154560586Y-65479838D01*
X154560585Y-65479838D01*
X154560584Y-65479837D01*
X154429392Y-65392178D01*
X154317822Y-65280608D01*
X154230163Y-65149416D01*
X154230162Y-65149414D01*
X154169781Y-65003642D01*
X154139000Y-64848893D01*
X154139000Y-64691107D01*
X154169781Y-64536358D01*
X154230162Y-64390586D01*
X154245988Y-64366900D01*
X154317822Y-64259392D01*
X154429392Y-64147822D01*
X154560584Y-64060163D01*
X154560586Y-64060162D01*
X154706358Y-63999781D01*
X154861107Y-63969000D01*
X155018893Y-63969000D01*
X155173642Y-63999781D01*
G37*
G36*
X99898156Y-59831458D02*
G01*
X100004479Y-59852607D01*
X100304942Y-59977063D01*
X100575351Y-60157745D01*
X100805315Y-60387709D01*
X100985997Y-60658118D01*
X101110453Y-60958581D01*
X101173900Y-61277551D01*
X101173900Y-61602769D01*
X101110453Y-61921739D01*
X100985997Y-62222202D01*
X100805315Y-62492611D01*
X100575351Y-62722575D01*
X100304942Y-62903257D01*
X100004479Y-63027713D01*
X99901006Y-63048295D01*
X99685511Y-63091160D01*
X99360289Y-63091160D01*
X99144794Y-63048295D01*
X99041321Y-63027713D01*
X98740858Y-62903257D01*
X98470449Y-62722575D01*
X98240485Y-62492611D01*
X98059803Y-62222202D01*
X97935347Y-61921739D01*
X97871900Y-61602769D01*
X97871900Y-61277551D01*
X97935347Y-60958581D01*
X98059803Y-60658118D01*
X98240485Y-60387709D01*
X98470449Y-60157745D01*
X98740858Y-59977063D01*
X99041321Y-59852607D01*
X99147644Y-59831458D01*
X99360289Y-59789160D01*
X99685511Y-59789160D01*
X99898156Y-59831458D01*
G37*
G36*
X188898156Y-59831458D02*
G01*
X189004479Y-59852607D01*
X189304942Y-59977063D01*
X189575351Y-60157745D01*
X189805315Y-60387709D01*
X189985997Y-60658118D01*
X190110453Y-60958581D01*
X190173900Y-61277551D01*
X190173900Y-61602769D01*
X190110453Y-61921739D01*
X189985997Y-62222202D01*
X189805315Y-62492611D01*
X189575351Y-62722575D01*
X189304942Y-62903257D01*
X189004479Y-63027713D01*
X188901006Y-63048295D01*
X188685511Y-63091160D01*
X188360289Y-63091160D01*
X188144794Y-63048295D01*
X188041321Y-63027713D01*
X187740858Y-62903257D01*
X187470449Y-62722575D01*
X187240485Y-62492611D01*
X187059803Y-62222202D01*
X186935347Y-61921739D01*
X186871900Y-61602769D01*
X186871900Y-61277551D01*
X186935347Y-60958581D01*
X187059803Y-60658118D01*
X187240485Y-60387709D01*
X187470449Y-60157745D01*
X187740858Y-59977063D01*
X188041321Y-59852607D01*
X188147644Y-59831458D01*
X188360289Y-59789160D01*
X188685511Y-59789160D01*
X188898156Y-59831458D01*
G37*
G36*
X179318228Y-61411703D02*
G01*
X179473100Y-61475853D01*
X179612481Y-61568985D01*
X179731015Y-61687519D01*
X179824147Y-61826900D01*
X179888297Y-61981772D01*
X179921000Y-62146184D01*
X179921000Y-62313816D01*
X179888297Y-62478228D01*
X179824147Y-62633100D01*
X179731015Y-62772481D01*
X179612481Y-62891015D01*
X179473100Y-62984147D01*
X179318228Y-63048297D01*
X179153816Y-63081000D01*
X178986184Y-63081000D01*
X178821772Y-63048297D01*
X178666900Y-62984147D01*
X178527519Y-62891015D01*
X178408985Y-62772481D01*
X178315853Y-62633100D01*
X178251703Y-62478228D01*
X178219000Y-62313816D01*
X178219000Y-62146184D01*
X178251703Y-61981772D01*
X178315853Y-61826900D01*
X178408985Y-61687519D01*
X178527519Y-61568985D01*
X178666900Y-61475853D01*
X178821772Y-61411703D01*
X178986184Y-61379000D01*
X179153816Y-61379000D01*
X179318228Y-61411703D01*
G37*
G36*
X176818228Y-61411703D02*
G01*
X176973100Y-61475853D01*
X177112481Y-61568985D01*
X177231015Y-61687519D01*
X177324147Y-61826900D01*
X177388297Y-61981772D01*
X177421000Y-62146184D01*
X177421000Y-62313816D01*
X177388297Y-62478228D01*
X177324147Y-62633100D01*
X177231015Y-62772481D01*
X177112481Y-62891015D01*
X176973100Y-62984147D01*
X176818228Y-63048297D01*
X176653816Y-63081000D01*
X176486184Y-63081000D01*
X176321772Y-63048297D01*
X176166900Y-62984147D01*
X176027519Y-62891015D01*
X175908985Y-62772481D01*
X175815853Y-62633100D01*
X175751703Y-62478228D01*
X175719000Y-62313816D01*
X175719000Y-62146184D01*
X175751703Y-61981772D01*
X175815853Y-61826900D01*
X175908985Y-61687519D01*
X176027519Y-61568985D01*
X176166900Y-61475853D01*
X176321772Y-61411703D01*
X176486184Y-61379000D01*
X176653816Y-61379000D01*
X176818228Y-61411703D01*
G37*
M02*
